<?xml version="1.0" encoding="UTF-8" standalone="no"?>
<svg
   xmlns:dc="http://purl.org/dc/elements/1.1/"
   xmlns:cc="http://creativecommons.org/ns#"
   xmlns:rdf="http://www.w3.org/1999/02/22-rdf-syntax-ns#"
   xmlns:svg="http://www.w3.org/2000/svg"
   xmlns="http://www.w3.org/2000/svg"
   xmlns:sodipodi="http://sodipodi.sourceforge.net/DTD/sodipodi-0.dtd"
   xmlns:inkscape="http://www.inkscape.org/namespaces/inkscape"
   version="1.1"
   id="svg2346"
   xml:space="preserve"
   width="1122.5601"
   height="1587.36"
   viewBox="0 0 1122.5601 1587.36"
   sodipodi:docname="drone-base-side.svg"
   inkscape:version="1.0.1 (3bc2e813f5, 2020-09-07)"><metadata
     id="metadata2352"><rdf:RDF><cc:Work
         rdf:about=""><dc:format>image/svg+xml</dc:format><dc:type
           rdf:resource="http://purl.org/dc/dcmitype/StillImage" /><dc:title></dc:title></cc:Work></rdf:RDF></metadata><defs
     id="defs2350" /><sodipodi:namedview
     pagecolor="#ffffff"
     bordercolor="#666666"
     borderopacity="1"
     objecttolerance="10"
     gridtolerance="10"
     guidetolerance="10"
     inkscape:pageopacity="0"
     inkscape:pageshadow="2"
     inkscape:window-width="1920"
     inkscape:window-height="1057"
     id="namedview2348"
     showgrid="false"
     inkscape:zoom="0.56067937"
     inkscape:cx="561.28003"
     inkscape:cy="946.97511"
     inkscape:window-x="-8"
     inkscape:window-y="-8"
     inkscape:window-maximized="1"
     inkscape:current-layer="g2354" /><g
     id="g2354"
     inkscape:groupmode="layer"
     inkscape:label="side-view"
     transform="translate(0,1.3017334e-5)"><g
       id="g2356"><path
         d="m 640.79999,637.12 v 76.32 h 15.04004 v -76.32"
         style="fill:none;stroke:#000000;stroke-width:1.92;stroke-linecap:round;stroke-linejoin:round;stroke-miterlimit:10;stroke-dasharray:none;stroke-opacity:1"
         id="path2358" /></g><g
       id="g2360"
       transform="translate(610.40002,591.67999)"><path
         d="m 0,0 v 0.32 0.8 1.44 1.76 2.4 2.72 3.04 3.2 3.520001 3.519998 V 26.24 29.76 32.959999 36 v 2.720001 2.399998 1.760002 1.439999 0.799999 0.32"
         style="fill:none;stroke:#000000;stroke-width:1.92;stroke-linecap:round;stroke-linejoin:round;stroke-miterlimit:10;stroke-dasharray:none;stroke-opacity:1"
         id="path2362" /></g><g
       id="g2364"
       transform="translate(668.47998,637.12)"><path
         d="m 0,0 v -0.32 -0.8 -1.44 -1.76 -2.4 -2.72 -3.04 -3.2 -3.520001 -3.519998 V -26.24 -29.76 -32.959999 -36 v -2.720001 -2.399998 -1.760002 -1.439999 -0.799999 -0.32"
         style="fill:none;stroke:#000000;stroke-width:1.92;stroke-linecap:round;stroke-linejoin:round;stroke-miterlimit:10;stroke-dasharray:none;stroke-opacity:1"
         id="path2366" /></g><g
       id="g2368"><path
         d="m 640.79999,847.67999 h 15.04004"
         style="fill:none;stroke:#000000;stroke-width:1.92;stroke-linecap:round;stroke-linejoin:round;stroke-miterlimit:10;stroke-dasharray:none;stroke-opacity:1"
         id="path2370" /></g><g
       id="g2372"
       transform="translate(610.40002,672)"><path
         d="M 0,0 V -0.32 -0.64 L 0.16,-1.12 V -1.44 -1.76 -2.24 L 0.32,-2.56 V -2.88 L 0.48,-3.36 V -3.68 L 0.64,-4 V -4.32 L 0.8,-4.64 0.96,-5.12 1.12,-5.44 1.28,-5.76 V -6.08 L 1.44,-6.4 1.6,-6.72 1.92,-7.04 2.08,-7.36 2.24,-7.68 2.4,-8 2.56,-8.32 2.88,-8.64 3.04,-8.96 3.2,-9.28 3.52,-9.6 3.68,-9.92 4,-10.08 l 0.16,-0.32 0.32,-0.32 0.32,-0.16 0.16,-0.32 0.32,-0.16 0.32,-0.32 0.32,-0.16 0.32,-0.32 0.16,-0.16 0.32,-0.16 0.32,-0.32 0.32,-0.16 0.32,-0.16 0.32,-0.16 0.32,-0.16 0.32,-0.16 0.48,-0.16 0.32,-0.16 0.32,-0.16 0.32,-0.16 0.32,-0.16 h 0.32 l 0.48,-0.16 h 0.32 l 0.32,-0.16 0.32,-0.16 h 0.48 0.32 l 0.32,-0.16 h 0.48 0.32 0.32 0.48 0.32"
         style="fill:none;stroke:#000000;stroke-width:1.92;stroke-linecap:round;stroke-linejoin:round;stroke-miterlimit:10;stroke-dasharray:none;stroke-opacity:1"
         id="path2374" /></g><g
       id="g2376"
       transform="translate(610.40002,672)"><path
         d="m 0,0 v 227.67999 4 3.84001 3.84 3.36 3.03999 2.72001 2.08 1.44"
         style="fill:none;stroke:#000000;stroke-width:1.92;stroke-linecap:round;stroke-linejoin:round;stroke-miterlimit:10;stroke-dasharray:none;stroke-opacity:1"
         id="path2378" /></g><g
       id="g2380"><path
         d="m 671.03998,656.96002 h -15.19995 m -15.04004,0 h -15.20001"
         style="fill:none;stroke:#000000;stroke-width:1.92;stroke-linecap:round;stroke-linejoin:round;stroke-miterlimit:10;stroke-dasharray:none;stroke-opacity:1"
         id="path2382" /></g><g
       id="g2384"
       transform="translate(671.03998,656.96002)"><path
         d="M 0,0 H 0.32 0.64 1.12 1.44 1.76 L 2.24,0.16 H 2.56 2.88 L 3.2,0.32 3.68,0.48 H 4 L 4.32,0.64 H 4.64 L 5.12,0.8 5.44,0.96 5.76,1.12 6.08,1.28 6.4,1.44 6.72,1.6 7.04,1.76 7.36,1.92 7.68,2.08 8,2.24 8.32,2.56 8.64,2.72 8.96,2.88 9.28,3.2 9.6,3.36 l 0.16,0.32 0.32,0.16 0.32,0.32 0.32,0.16 0.16,0.32 0.32,0.32 0.16,0.16 0.32,0.32 0.16,0.32 0.32,0.32 0.16,0.32 0.16,0.32 0.32,0.32 0.16,0.32 0.16,0.32 0.16,0.32 0.16,0.32 0.16,0.32 0.16,0.32 0.16,0.32 0.16,0.32 0.16,0.32 0.16,0.48 v 0.32 l 0.16,0.32 v 0.32 l 0.16,0.32 v 0.48 l 0.16,0.32 v 0.32 l 0.16,0.48 v 0.32 0.32 0.48 0.32 0.32"
         style="fill:none;stroke:#000000;stroke-width:1.92;stroke-linecap:round;stroke-linejoin:round;stroke-miterlimit:10;stroke-dasharray:none;stroke-opacity:1"
         id="path2386" /></g><g
       id="g2388"><path
         d="m 685.91998,927.84003 0.16004,-1.28003 v -1.27997"
         style="fill:none;stroke:#000000;stroke-width:1.92;stroke-linecap:round;stroke-linejoin:bevel;stroke-miterlimit:10;stroke-dasharray:none;stroke-opacity:1"
         id="path2390" /></g><g
       id="g2392"
       transform="translate(686.08002,925.28003)"><path
         d="m 0,0 v -0.32 -0.96 -1.6 -2.08 -2.56 -3.04 -3.52 -3.68 -3.84 -4 -227.68"
         style="fill:none;stroke:#000000;stroke-width:1.92;stroke-linecap:round;stroke-linejoin:round;stroke-miterlimit:10;stroke-dasharray:none;stroke-opacity:1"
         id="path2394" /></g><g
       id="g2396"><path
         d="m 640.79999,924 v -76.32001 m 15.04004,0 V 924"
         style="fill:none;stroke:#000000;stroke-width:1.92;stroke-linecap:round;stroke-linejoin:round;stroke-miterlimit:10;stroke-dasharray:none;stroke-opacity:1"
         id="path2398" /></g><g
       id="g2400"
       transform="translate(610.40002,969.44)"><path
         d="m 0,0 v -0.32 -0.8 -1.44 -1.76 -2.4 -2.72 -3.04 -3.2 -3.520001 -3.519998 V -26.24 -29.76 -32.959999 -36 v -2.720001 -2.399998 -1.760002 -1.439999 -0.799999 -0.32"
         style="fill:none;stroke:#000000;stroke-width:1.92;stroke-linecap:round;stroke-linejoin:round;stroke-miterlimit:10;stroke-dasharray:none;stroke-opacity:1"
         id="path2402" /></g><g
       id="g2404"
       transform="translate(668.47998,924)"><path
         d="m 0,0 v 0.32 0.8 1.44 1.76 2.4 2.72 3.04 3.2 3.520001 3.519998 V 26.24 29.76 32.959999 36 v 2.720001 2.399998 1.760002 1.439999 0.799999 0.32"
         style="fill:none;stroke:#000000;stroke-width:1.92;stroke-linecap:round;stroke-linejoin:round;stroke-miterlimit:10;stroke-dasharray:none;stroke-opacity:1"
         id="path2406" /></g><g
       id="g2408"
       transform="translate(668.47998,637.12)"><path
         d="M 0,0 H -58.080002 M 0,-45.439999 h -58.080002 m 0,332.319999 H 0 m -58.080002,45.44001 H 0"
         style="fill:none;stroke:#000000;stroke-width:1.92;stroke-linecap:round;stroke-linejoin:round;stroke-miterlimit:10;stroke-dasharray:none;stroke-opacity:1"
         id="path2410" /></g><g
       id="g2412"
       transform="translate(695.52002,964.47998)"><path
         d="m 0,0 v -0.32 -0.8 -1.28 -1.76 -2.24 -2.4 -2.88 -3.04 -3.04 -3.039999 -3.040001 -2.879999 -2.400002 -2.24 -1.759998 -1.280003 -0.799999 V -35.52"
         style="fill:none;stroke:#000000;stroke-width:1.92;stroke-linecap:round;stroke-linejoin:round;stroke-miterlimit:10;stroke-dasharray:none;stroke-opacity:1"
         id="path2414" /></g><g
       id="g2416"><path
         d="m 695.52002,943.67999 h 3.67999 m -3.67999,6.08002 h 3.67999"
         style="fill:none;stroke:#000000;stroke-width:1.92;stroke-linecap:round;stroke-linejoin:round;stroke-miterlimit:10;stroke-dasharray:none;stroke-opacity:1"
         id="path2418" /></g><g
       id="g2420"><path
         d="M 694.40002,965.59998 694.88,965.44 l 0.32001,-0.15997 0.15997,-0.32001 0.16004,-0.48004"
         style="fill:none;stroke:#000000;stroke-width:1.92;stroke-linecap:round;stroke-linejoin:bevel;stroke-miterlimit:10;stroke-dasharray:none;stroke-opacity:1"
         id="path2422" /></g><g
       id="g2424"><path
         d="m 695.52002,928.96002 -0.16004,-0.48004 -0.15997,-0.32001 L 694.88,928 l -0.47998,-0.15997"
         style="fill:none;stroke:#000000;stroke-width:1.92;stroke-linecap:round;stroke-linejoin:bevel;stroke-miterlimit:10;stroke-dasharray:none;stroke-opacity:1"
         id="path2426" /></g><g
       id="g2428"><path
         d="m 668.47998,927.84003 h 25.92004 m -25.92004,37.75995 h 25.92004"
         style="fill:none;stroke:#000000;stroke-width:1.92;stroke-linecap:round;stroke-linejoin:round;stroke-miterlimit:10;stroke-dasharray:none;stroke-opacity:1"
         id="path2430" /></g><g
       id="g2432"
       transform="translate(712.79999,961.76001)"><path
         d="m 0,0 0.32,1.76 0.16,1.76 0.32,1.92 0.16,1.76 0.16,1.76 0.16,1.92 0.16,1.76 0.16,1.76 0.16,1.76 0.16,1.76 0.16,1.76 v 1.92 l 0.16,1.760001 v 1.76 L 2.4,26.719999 V 28.48 30.24 32 v 1.759998 1.600003 1.759998 L 2.24,38.720001 V 39.52 40.48 41.279999 L 2.08,42.080002 V 42.880001 43.68 l -0.16,0.8 v 0.799999 l -0.16,0.960003 v 0.799999 L 1.6,47.84 v 0.799999 l -0.16,0.8 v 0.800003 L 1.28,51.040001 V 51.84 L 1.12,52.48 0.96,53.279999 0.8,54.080002 v 0.799999 L 0.64,55.68 0.48,56.48 0.32,57.279999 0.16,57.919998 0,58.720001 -0.16,59.52 -0.32,60.16 -0.48,60.959999 -0.64,61.759998 -0.8,62.400002 -0.96,63.200001 -1.12,64 l -0.16,0.639999 -0.16,0.800003 -0.32,0.64 -0.16,0.799995 -0.16,0.64 -0.16,0.800003 -0.32,0.639999 -0.16,0.639999 -0.16,0.800004 -0.32,0.639999 -0.16,0.799995 -0.32,0.640007 -0.16,0.64 -0.32,0.639999 -0.48,1.439995 -0.48,1.280006 -0.48,1.439995 -0.64,1.279999 -0.16,0.639999 -0.32,0.640007 -0.64,1.279999 -0.16,0.64 -0.32,0.639999 L -8.16,83.68 -8.32,84 l -0.16,0.32 -0.32,0.480003 -0.32,0.639999 -0.16,0.32 -0.16,0.32 -0.32,0.639999 -0.32,0.64 L -10.4,88 l -0.16,0.32 -0.16,0.319999 -0.16,0.32 -0.16,0.160004 -0.16,0.319999 -0.16,0.32 -0.32,0.479996 -0.32,0.480003 -0.16,0.32 -0.16,0.32 -0.16,0.159996 -0.16,0.319999 -0.16,0.320008 -0.16,0.319999 -0.48,0.799996 -0.16,0.319999 -0.16,0.32 -0.16,0.32 -0.16,0.32 -0.16,0.160003 v 0.159996 l -0.16,0.160004 -0.16,0.159996 v 0.160004 h -0.16 l -0.16,0.159996 -0.16,0.160003 h -0.16 -0.16 -0.16 -0.16 l -0.16,-0.160003 H -16 v -0.159996 -0.160004 h -0.16 v -0.159996 -0.160004 h -0.16 v -0.159996 -0.160003 -0.159996 l -0.16,-0.160004 v -0.159996 -0.160004 -0.159996 -0.160004 l -0.159999,-0.319999 v -0.32 -0.32 V 92.32 91.839996 l -0.16,-0.319999 v -0.32 -0.479996 -0.319999 -0.480004 -0.32 -0.319999 -0.479996 -0.32 -0.319999 -0.320008 l 0.16,-0.319999 v -0.32 -0.32 -0.319999 -0.32 l 0.159999,-0.32 v -0.32"
         style="fill:none;stroke:#000000;stroke-width:1.92;stroke-linecap:round;stroke-linejoin:round;stroke-miterlimit:10;stroke-dasharray:none;stroke-opacity:1"
         id="path2434" /></g><g
       id="g2436"><path
         d="m 713.12,931.67999 h 0.16003"
         style="fill:none;stroke:#000000;stroke-width:1.92;stroke-linecap:round;stroke-linejoin:round;stroke-miterlimit:10;stroke-dasharray:none;stroke-opacity:1"
         id="path2438" /></g><g
       id="g2440"
       transform="translate(696.64001,847.67999)"><path
         d="M 0,0 V 0.32 0.64 L 0.16,1.12 V 1.44 L 0.32,1.92 V 2.4 L 0.48,2.88 0.64,3.36 V 3.84 L 0.8,4.32 0.96,4.8 V 5.28 L 1.12,5.76 V 6.24 L 1.28,6.56 V 7.04 L 1.44,7.52 V 8 l 0.16,0.8 0.16,0.96 0.16,0.8 0.16,0.96 0.16,0.8 0.16,0.8 v 0.8 l 0.16,0.96 v 0.8 l 0.16,0.8 0.16,0.800001 V 18.08 l 0.16,0.799999 V 19.68 l 0.16,0.8 v 0.960001 l 0.16,1.6 v 1.599998 L 3.52,26.24 l 0.16,1.6 v 1.440001 L 3.84,30.879999 3.84,32.48 4,34.080002 V 35.68 37.119999 l 0.16,1.600002 V 40.32 v 1.439998 1.600003 l 0.16,1.599998 V 46.400002 48 49.439999 50.880001 52.48 l 0.16,1.439998 v 1.440003 1.599998 1.440003 1.439998 1.439999 1.440002 1.440003 1.599998 1.439995 1.280006 1.439995 l 0.16,1.440003 v 1.440002 1.439995 1.440002 1.279999 1.440003 1.439994 1.280007 1.439995 1.279998 1.440003 1.279999 l -0.16,1.279998 v 1.440003 1.279999 1.279998 1.280007 1.279999 l -0.16,1.439994 v 1.280007 1.279999"
         style="fill:none;stroke:#000000;stroke-width:1.92;stroke-linecap:round;stroke-linejoin:round;stroke-miterlimit:10;stroke-dasharray:none;stroke-opacity:1"
         id="path2442" /></g><g
       id="g2444"><path
         d="m 701.12,945.91998 v 0.16004 h -0.15998"
         style="fill:none;stroke:#000000;stroke-width:1.92;stroke-linecap:round;stroke-linejoin:round;stroke-miterlimit:10;stroke-dasharray:none;stroke-opacity:1"
         id="path2446" /></g><g
       id="g2448"
       transform="translate(701.12,946.08002)"><path
         d="M 0,0 V -1.44 L 0.16,-2.88 V -4.32 -5.76 -7.2 -8.64 l 0.16,-1.44 v -1.44 -1.6 -1.44 -1.44 -1.6 -1.440001 -1.439999 -1.6 -1.6 -1.440001 -1.599998 L 0.16,-28.32 v -1.44 -1.600001 -1.599998 -1.600002 -1.599999 -1.599998 -1.600003 -1.599998 -1.760002 V -44.32 L 0,-45.919998 V -47.52 -49.279999 -50.880001 -52.48 -54.240002 L -0.16,-55.84 v -1.759998 -1.600003 l -0.16,-1.759998 V -62.720001 -64.32 l -0.16,-1.760002 v -1.759994 l -0.16,-1.760002 v -1.760003 l -0.16,-1.760002 -0.16,-1.759994 -0.16,-1.760002 v -0.800003 -0.96 l -0.16,-0.799995 -0.16,-0.960007 v -0.959999 l -0.16,-0.799995 v -0.959999 l -0.16,-0.959999 -0.16,-0.800003 v -0.959999 l -0.16,-0.96 -0.16,-0.959999 -0.16,-0.960006 -0.16,-0.959999 -0.16,-0.479996 v -0.480004 l -0.16,-0.479995 v -0.480004 l -0.16,-0.479995 V -92.32 l -0.16,-0.480003 -0.16,-0.479996 v -0.480003 l -0.16,-0.64 -0.16,-0.479995 v -0.480004 L -3.84,-96 -4,-96.639999 -4.16,-97.120003 v -0.319999 -0.32 l -0.16,-0.159996 v -0.32 -0.32 l -0.16,-0.319999 v -0.160004 -0.32 V -99.68 l -0.16,-0.159996 v -0.320004 -0.32 -0.16 -0.32 l -0.16,-0.32 v -0.16 -0.48 -0.64 -0.48 -0.32 -0.32 -0.16 -0.32 -0.64 -0.64 -0.64 -0.16 -0.32 -0.32 -0.32 -0.32 l 0.16,-0.16 v -0.32 -0.16 -0.32 l 0.16,-0.16 v -0.16 -0.16 l 0.16,-0.16 v -0.16 -0.16 l 0.16,-0.16 v -0.16 H -4 v -0.16 h 0.16 v -0.16 h 0.16 0.16 0.16 0.16 l 0.16,0.16 h 0.16 v 0.16 l 0.16,0.16 h 0.16 v 0.16 l 0.16,0.16 v 0.16 l 0.16,0.16 0.16,0.16 v 0.16 l 0.16,0.32 0.32,0.32 0.16,0.32 0.32,0.8 0.16,0.32 0.16,0.32 0.16,0.32 0.16,0.16 0.16,0.32 0.16,0.32 0.48,0.48 0.32,0.48 0.16,0.32 0.16,0.32 0.16,0.32 0.16,0.32 0.16,0.32 0.16,0.32 0.32,0.64 0.32,0.64 0.32,0.64 0.16,0.32 0.16,0.32 0.64,1.120002 0.16,0.32 0.16,0.32 0.16,0.639999 0.32,0.64 L 4.64,-96 l 0.64,1.279999 0.32,0.800003 0.16,0.639999 L 6.4,-92 l 0.48,1.440002 0.48,1.279999 0.32,0.64 0.16,0.800003 0.32,0.639999 0.16,0.639999 0.32,0.799996 0.16,0.639999 0.32,0.800003 0.16,0.64 0.16,0.800003 0.32,0.639999 0.16,0.799996 0.16,0.639999 L 10.4,-80 l 0.16,0.800003 0.16,0.639999 0.16,0.799996 0.16,0.800003 0.16,0.639999 0.16,0.800003 0.16,0.799996 0.16,0.639999 0.16,0.800003 0.16,0.799996 0.16,0.800003 0.16,0.800003 0.16,0.799995 0.16,0.800003 0.16,0.799996 v 0.640007 l 0.16,0.799995 0.16,0.800003 v 0.799996 l 0.16,0.959999 0.16,0.800003 v 0.799999 l 0.16,0.799999 v 0.800003 L 13.76,-60.48 v 0.8 l 0.16,0.799999 v 0.960003 0.799999 L 14.08,-56.32 v 0.8 0.959999 l 0.16,0.800003 V -52.959999 -52 v 0.799999 0.799999 l 0.16,1.760003 v 1.759998 1.760002 l -0.16,1.759998 v 1.760003 1.759998 l -0.16,1.759998 V -36.32 l -0.16,1.759999 v 1.920002 l -0.16,1.76 -0.16,1.759998 -0.16,1.92 -0.16,1.76 -0.16,1.920001 -0.32,1.76 -0.16,1.92 -0.16,1.76 -0.32,1.92 -0.16,1.76"
         style="fill:none;stroke:#000000;stroke-width:1.92;stroke-linecap:round;stroke-linejoin:round;stroke-miterlimit:10;stroke-dasharray:none;stroke-opacity:1"
         id="path2450" /></g><g
       id="g2452"
       transform="translate(700.96002,946.08002)"><path
         d="M 0,0 -0.16,-0.16 V -0.32 H -0.32 V -0.48 -0.64 L -0.48,-0.8 V -0.96 -1.28 L -0.64,-1.6 v -0.32 -0.16"
         style="fill:none;stroke:#000000;stroke-width:1.92;stroke-linecap:round;stroke-linejoin:round;stroke-miterlimit:10;stroke-dasharray:none;stroke-opacity:1"
         id="path2454" /></g><g
       id="g2456"><path
         d="m 701.12,941.12 h 0.16003 m 0,-0.47999 H 701.44"
         style="fill:none;stroke:#000000;stroke-width:1.92;stroke-linecap:round;stroke-linejoin:round;stroke-miterlimit:10;stroke-dasharray:none;stroke-opacity:1"
         id="path2458" /></g><g
       id="g2460"
       transform="translate(713.12,931.67999)"><path
         d="M 0,0 -0.16,0.16 H -0.32 -0.48 -0.64 L -0.8,0.32 H -0.96 L -1.12,0.48 H -1.28 L -1.44,0.64 -1.6,0.8 H -1.76 L -1.92,0.96 -2.08,1.12 -2.24,1.28 -2.4,1.44 -2.56,1.6 -2.72,1.76 -2.88,1.92 -3.04,2.08 -3.2,2.24 -3.52,2.4 -3.68,2.72 -3.84,2.88 -4,3.04 -4.16,3.36 -4.32,3.52 -4.64,3.68 -4.8,4 -4.96,4.16 -5.12,4.48 -5.44,4.64 -5.6,4.96 -5.76,5.28 -6.08,5.44 -6.24,5.76 -6.4,6.08 -6.72,6.4 -6.88,6.56 -7.04,6.88 -7.36,7.2 -7.52,7.52 -7.68,7.84 -8,8 -8.16,8.32 -8.32,8.64 -8.64,8.96 -8.8,9.28 -8.96,9.6 l -0.32,0.32 -0.16,0.32 -0.16,0.32 -0.32,0.32 -0.16,0.32 -0.16,0.32 -0.32,0.32 -0.16,0.32 -0.16,0.32 -0.16,0.32 -0.32,0.32 -0.16,0.32 -0.16,0.32 -0.16,0.32 -0.16,0.32"
         style="fill:none;stroke:#000000;stroke-width:1.92;stroke-linecap:round;stroke-linejoin:round;stroke-miterlimit:10;stroke-dasharray:none;stroke-opacity:1"
         id="path2462" /></g><g
       id="g2464"
       transform="translate(714.08002,961.44)"><path
         d="m 0,0 v -0.32 -0.8 -1.28 -1.92 -2.24 -2.56 -2.72 -2.88 -2.88 -2.72 -2.559999 -2.240002 -1.92 -1.279999 -0.800001 -0.32"
         style="fill:none;stroke:#000000;stroke-width:1.92;stroke-linecap:round;stroke-linejoin:round;stroke-miterlimit:10;stroke-dasharray:none;stroke-opacity:1"
         id="path2466" /></g><g
       id="g2468"
       transform="translate(699.20001,932)"><path
         d="m 0,0 v 0.32 0.8 1.28 1.92 2.24 2.56 2.72 2.88 2.88 2.72 2.559999 2.240002 1.92 1.279999 0.800001 0.32"
         style="fill:none;stroke:#000000;stroke-width:1.92;stroke-linecap:round;stroke-linejoin:round;stroke-miterlimit:10;stroke-dasharray:none;stroke-opacity:1"
         id="path2470" /></g><g
       id="g2472"
       transform="translate(713.12,961.76001)"><path
         d="m 0,0 0.16,1.76 0.32,1.76 0.16,1.92 0.16,1.76 0.32,1.76 0.16,1.76 0.16,1.92 0.16,1.76 0.16,1.76 v 1.76 l 0.16,1.76 0.16,1.760001 v 1.76 l 0.16,1.759998 v 1.76 V 28.48 l 0.16,1.76 v 1.6 1.759998 L 2.24,35.360001 V 36.959999 38.720001 39.52 l -0.16,0.8 v 0.799999 0.799999 L 1.92,42.720001 V 43.68 v 0.8 l -0.16,0.799999 v 0.800003 L 1.6,46.880001 V 47.68 l -0.16,0.8 v 0.799999 l -0.16,0.800003 v 0.799999 L 1.12,51.68 0.96,52.48 0.8,53.279999 v 0.800003 L 0.64,54.720001 0.48,55.52 0.32,56.32 0.16,57.119999 v 0.799999 L 0,58.560001 l -0.16,0.8 -0.16,0.799999 -0.16,0.799999 -0.16,0.639999 -0.16,0.800004 -0.16,0.639999 -0.32,0.799999 -0.16,0.799999 -0.16,0.64 -0.16,0.800003 -0.16,0.639999 -0.32,0.799996 -0.16,0.640007 -0.16,0.639999 -0.16,0.799995 -0.32,0.64 L -3.2,71.040001 -3.52,71.68 -3.68,72.32 -4,72.959999 -4.16,73.760002 -4.64,75.040001 -5.12,76.32 -5.76,77.760002 -6.24,79.040001 -6.72,80.32 -7.36,81.599998 -8,82.879997 l -0.48,1.280007 -0.64,1.119995 -0.64,1.279999 -0.64,1.279998 -0.32,0.640007 -0.16,0.32 -0.16,0.32 -0.32,0.479995 -0.32,0.64 -0.64,1.120003 -0.32,0.479995 -0.16,0.320008 -0.32,0.319999 -0.16,0.32 -0.16,0.32 -0.16,0.319999 -0.16,0.32 -0.16,0.32 -0.16,0.32 -0.16,0.319999 h -0.16 v 0.159996 l -0.16,0.160004 v 0.159996 l -0.16,0.160004 -0.16,0.159996 h -0.16 V 95.68 h -0.16 -0.16 l -0.16,0.159996 h -0.16 L -15.84,95.68 H -16 l -0.16,-0.160003"
         style="fill:none;stroke:#000000;stroke-width:1.92;stroke-linecap:round;stroke-linejoin:round;stroke-miterlimit:10;stroke-dasharray:none;stroke-opacity:1"
         id="path2474" /></g><g
       id="g2476"
       transform="translate(696.64001,1056.64)"><path
         d="M 0,0 H -0.16 V -0.16 -0.32 L -0.32,-0.48 V -0.64 -0.8 -0.96 L -0.48,-1.12 V -1.44 -1.76 -2.08 -2.4 L -0.64,-2.72 V -3.04 -3.36 -4 -4.64"
         style="fill:none;stroke:#000000;stroke-width:1.92;stroke-linecap:round;stroke-linejoin:round;stroke-miterlimit:10;stroke-dasharray:none;stroke-opacity:1"
         id="path2478" /></g><g
       id="g2480"
       transform="translate(696.32001,1047.36)"><path
         d="M 0,0 V -0.48 L 0.16,-0.96 V -1.28 L 0.32,-1.76 V -2.08 -2.56 L 0.48,-2.88 V -3.36 L 0.64,-3.68 V -4 L 0.8,-4.48 V -4.8 l 0.16,-0.8 0.16,-0.64 v -0.8 l 0.16,-0.64 0.16,-0.8 0.16,-0.64 v -0.8 l 0.16,-0.64 v -0.8 l 0.16,-0.64 0.16,-1.44 0.16,-1.44 v -1.28 L 2.4,-17.6 2.56,-19.040001 V -20.32 l 0.16,-1.44 V -23.200001 -24.48 l 0.16,-1.44 v -1.280001 -1.439998 L 3.04,-30.08 v -1.280001 -2.720001 -2.719997 V -39.52 -42.240002 -43.52 L 3.2,-44.959999 V -46.240002 -47.52 -48.959999 -50.240002 -51.52 l 0.16,-1.439999 V -54.240002 -55.52 -56.799999 l 0.16,-1.280003 V -59.52 v -1.279999 -1.280003 l 0.16,-1.279999 v -1.279998 -1.279999 l 0.16,-1.279999 v -1.280006 -1.279999 -1.279999 L 4,-72.160004 V -73.440002 -74.720001 -76 l 0.16,-1.120003 v -1.279999 -1.279998 -1.120003 -1.279999 -1.119995 -1.280006 l 0.16,-1.119995"
         style="fill:none;stroke:#000000;stroke-width:1.92;stroke-linecap:round;stroke-linejoin:round;stroke-miterlimit:10;stroke-dasharray:none;stroke-opacity:1"
         id="path2482" /></g><g
       id="g2484"
       transform="translate(696.64001,847.67999)"><path
         d="M 0,0 -0.16,-0.32 V -0.64 -0.8 L -0.32,-1.12 V -1.44 -1.76 -2.08 L -0.48,-2.4 V -2.72 -3.04 -3.2 -3.52 L -0.64,-4.16 V -4.8 -5.28 -5.92 -6.56 -7.04 -7.68 -8 -8.16 l 0.16,-0.32 V -8.8 -9.12 -9.28 -9.6 l 0.16,-0.32 v -0.16 -0.32 l 0.16,-0.16 v -0.16 L 0,-10.88 v -0.32 l 0.16,-0.16 0.16,-0.16 0.16,-0.16 h 0.16 v -0.16 H 0.8 0.96 1.12 v 0.16 h 0.16 0.16 l 0.16,0.16 0.16,0.16 0.16,0.16 v 0.16 l 0.16,0.16 v 0.16 l 0.16,0.16 0.16,0.32 0.16,0.32 0.48,0.64 0.32,0.64 0.16,0.48 0.16,0.32 0.16,0.32 0.32,0.32 0.32,0.48 0.32,0.64 0.32,0.64 0.48,0.64 0.32,0.64 0.32,0.64 0.32,0.64 0.32,0.8 0.8,1.28 0.64,1.44 0.64,1.28 0.64,1.44 0.48,1.44 0.64,1.44 0.32,0.64 0.32,0.8 0.16,0.64 0.32,0.8 0.32,0.64 0.16,0.8 0.32,0.64 0.32,0.8 0.16,0.8 0.32,0.64 0.16,0.8 0.32,0.8 0.16,0.8 0.16,0.799999 0.32,0.640002 0.16,0.799999 0.16,0.799999 0.32,0.800001 0.16,0.8 0.16,0.800001 L 15.68,22.08 15.84,23.040001 16,23.84 l 0.16,0.799999 0.16,0.800002 0.16,0.799999 0.159999,0.800001 0.16,0.959999 0.16,0.799999 0.160002,0.800001 0.16,0.959999 0.16,0.800002 V 32.16 L 17.6,33.119999 l 0.16,0.799999 v 0.960003 L 17.92,35.68 v 0.959999 l 0.16,0.8 v 0.960003 l 0.16,0.799999 V 40.16 l 0.16,0.959999 v 0.799999 0.960003 L 18.559999,43.84 v 0.799999 0.959999 l 0.16,0.960003 V 47.52 v 0.8 0.959999 0.960003 0.959999 0.959999 0.959999 0.799999 0.960003 0.959999 0.959999 0.959999 0.960003 l -0.16,0.959999 v 0.959999 0.959999 0.960003 L 18.4,63.52 v 0.960003 L 18.24,66.400002 18.08,68.32 17.92,70.239998 17.76,72.32 l -0.16,1.919998 -0.159999,1.920006 -0.32,1.919998 -0.160002,2.080002 -0.32,1.919998 L 16.48,84"
         style="fill:none;stroke:#000000;stroke-width:1.92;stroke-linecap:round;stroke-linejoin:round;stroke-miterlimit:10;stroke-dasharray:none;stroke-opacity:1"
         id="path2486" /></g><g
       id="g2488"
       transform="translate(700.32001,944)"><path
         d="M 0,0 0.16,-1.28 V -2.72 -4 -5.28 -6.72 L 0.32,-8 v -1.44 -1.28 -1.44 -1.44 -1.28 l -0.16,-1.44 v -1.44 -1.440001 -1.439998 V -22.08 L 0,-23.52 V -24.959999 -26.4 -27.84 l -0.16,-1.440001 V -30.879999 -32.32 l -0.16,-1.439998 v -1.600003 -1.439998 l -0.16,-1.440003 V -39.84 -41.279999 l -0.16,-1.600002 V -44.48 -45.919998 -47.52 l -0.16,-1.599999 v -1.440002 -1.599999 -1.599998 -1.600003 l -0.16,-1.439998 v -1.600003 -3.199996 -1.600003 -1.600002 -1.599999 L -1.12,-68 v -1.599998 -1.599999 -1.600006 l -0.16,-1.599999 V -76 l -0.16,-1.599998 v -1.599999 l -0.16,-1.600006 -0.16,-1.599999 v -0.799995 L -1.92,-84 v -0.800003 l -0.16,-0.959999 -0.16,-0.799996 v -0.800003 l -0.16,-0.800003 -0.16,-0.799995 v -0.800003 l -0.16,-0.959999 -0.16,-0.799996 -0.16,-0.800003 -0.16,-0.959999 -0.16,-0.319999 v -0.480004 l -0.16,-0.479996 v -0.480003 l -0.16,-0.479996 V -96 l -0.16,-0.480003 v -0.479996 -0.160004 L -4,-97.440002 v -0.159996 -0.32"
         style="fill:none;stroke:#000000;stroke-width:1.92;stroke-linecap:round;stroke-linejoin:round;stroke-miterlimit:10;stroke-dasharray:none;stroke-opacity:1"
         id="path2490" /></g><g
       id="g2492"><path
         d="m 713.91998,932 v -0.15997 h -0.15997"
         style="fill:none;stroke:#000000;stroke-width:1.92;stroke-linecap:round;stroke-linejoin:bevel;stroke-miterlimit:10;stroke-dasharray:none;stroke-opacity:1"
         id="path2494" /></g><g
       id="g2496"><path
         d="m 713.76001,961.59998 h 0.15997 V 961.44"
         style="fill:none;stroke:#000000;stroke-width:1.92;stroke-linecap:round;stroke-linejoin:bevel;stroke-miterlimit:10;stroke-dasharray:none;stroke-opacity:1"
         id="path2498" /></g><g
       id="g2500"
       transform="translate(713.76001,961.76001)"><path
         d="M 0,0 H -14.4 M 0,-30.08 h -0.64 m -11.68,0 h 0.16 m -1.12,0 h -1.12"
         style="fill:none;stroke:#000000;stroke-width:1.92;stroke-linecap:round;stroke-linejoin:round;stroke-miterlimit:10;stroke-dasharray:none;stroke-opacity:1"
         id="path2502" /></g><g
       id="g2504"><path
         d="m 699.35998,931.84003 h -0.15997 V 932"
         style="fill:none;stroke:#000000;stroke-width:1.92;stroke-linecap:round;stroke-linejoin:bevel;stroke-miterlimit:10;stroke-dasharray:none;stroke-opacity:1"
         id="path2506" /></g><g
       id="g2508"><path
         d="m 699.20001,961.44 v 0.15998 h 0.15997"
         style="fill:none;stroke:#000000;stroke-width:1.92;stroke-linecap:round;stroke-linejoin:bevel;stroke-miterlimit:10;stroke-dasharray:none;stroke-opacity:1"
         id="path2510" /></g><g
       id="g2512"
       transform="translate(696.79999,503.84)"><path
         d="M 0,0 V 0.16 0.32 H -0.16 V 0.48 0.64 H -0.32 V 0.8 0.96 1.12 L -0.48,1.28 V 1.44 1.6 1.76 1.92 L -0.64,2.24 V 2.56 2.88 3.2 3.68 L -0.8,4 V 4.32 4.8 5.12 5.6 5.92 6.24 6.72 7.04 7.36 7.68 L -0.64,8 v 0.32 0.32 0.32 0.32 l 0.16,0.32 v 0.32"
         style="fill:none;stroke:#000000;stroke-width:1.92;stroke-linecap:round;stroke-linejoin:round;stroke-miterlimit:10;stroke-dasharray:none;stroke-opacity:1"
         id="path2514" /></g><g
       id="g2516"
       transform="translate(712.79999,599.35998)"><path
         d="m 0,0 0.32,-1.76 0.16,-1.76 0.32,-1.92 0.16,-1.76 0.16,-1.76 0.16,-1.92 0.16,-1.76 0.16,-1.76 0.16,-1.76 0.16,-1.76 0.16,-1.76 v -1.92 l 0.16,-1.760001 v -1.76 L 2.4,-26.719999 V -28.48 -30.24 -32 v -1.759998 -1.600003 -1.759998 L 2.24,-38.720001 V -39.52 -40.48 -41.279999 L 2.08,-42.080002 V -42.880001 -43.68 l -0.16,-0.8 v -0.799999 l -0.16,-0.960003 v -0.799999 L 1.6,-47.84 v -0.799999 l -0.16,-0.8 v -0.800003 L 1.28,-51.040001 V -51.84 L 1.12,-52.48 0.96,-53.279999 0.8,-54.080002 v -0.799999 L 0.64,-55.68 0.48,-56.48 0.32,-57.279999 0.16,-57.919998 0,-58.720001 -0.16,-59.52 -0.32,-60.16 -0.48,-60.959999 -0.64,-61.759998 -0.8,-62.400002 -0.96,-63.200001 -1.12,-64 l -0.16,-0.639999 -0.16,-0.800003 -0.32,-0.64 -0.16,-0.799995 -0.16,-0.64 -0.16,-0.800003 -0.32,-0.639999 -0.16,-0.639999 -0.16,-0.800004 -0.32,-0.639999 -0.16,-0.799995 -0.32,-0.640007 -0.16,-0.64 -0.32,-0.639999 -0.48,-1.439995 -0.48,-1.280006 -0.48,-1.439995 -0.64,-1.279999 -0.16,-0.639999 -0.32,-0.640007 -0.64,-1.279999 -0.16,-0.64 -0.32,-0.639999 L -8.16,-83.68 -8.32,-84 l -0.16,-0.32 -0.32,-0.480003 -0.32,-0.639999 -0.16,-0.32 -0.16,-0.32 -0.32,-0.639999 -0.32,-0.64 L -10.4,-88 l -0.16,-0.32 -0.16,-0.319999 -0.16,-0.32 -0.16,-0.160004 -0.16,-0.319999 -0.16,-0.32 -0.32,-0.479996 -0.32,-0.480003 -0.16,-0.32 -0.16,-0.32 -0.16,-0.159996 -0.16,-0.319999 -0.16,-0.320008 -0.16,-0.319999 -0.48,-0.799996 -0.16,-0.319999 -0.16,-0.32 -0.16,-0.32 -0.16,-0.32 -0.16,-0.160003 v -0.159996 l -0.16,-0.160004 -0.16,-0.159996 v -0.160004 h -0.16 l -0.16,-0.159996 -0.16,-0.160003 h -0.16 -0.16 -0.16 -0.16 l -0.16,0.160003 H -16"
         style="fill:none;stroke:#000000;stroke-width:1.92;stroke-linecap:round;stroke-linejoin:round;stroke-miterlimit:10;stroke-dasharray:none;stroke-opacity:1"
         id="path2518" /></g><g
       id="g2520"><path
         d="m 713.12,629.44 h 0.16003"
         style="fill:none;stroke:#000000;stroke-width:1.92;stroke-linecap:round;stroke-linejoin:round;stroke-miterlimit:10;stroke-dasharray:none;stroke-opacity:1"
         id="path2522" /></g><g
       id="g2524"
       transform="translate(701.12,615.20001)"><path
         d="M 0,0 V 1.28 L 0.16,2.72 V 4.16 5.6 7.04 8.48 l 0.16,1.44 v 1.44 1.6 1.44 1.44 1.600001 1.439998 1.440001 1.6 1.6 1.439999 1.6 L 0.16,28.16 v 1.44 1.600001 1.599998 1.600003 V 36 37.599998 39.200001 40.799999 42.560001 44.16 L 0,45.759998 v 1.600003 1.759998 1.600002 V 52.32 54.080002 L -0.16,55.68 v 1.759999 1.600002 l -0.16,1.759998 v 1.760002 1.600003 l -0.16,1.759994 V 67.68 l -0.16,1.760002 v 1.759995 l -0.16,1.760002 -0.16,1.760002 -0.16,1.760002 v 0.799996 0.959999 L -1.28,79.040001 -1.44,80 v 0.959999 l -0.16,0.800003 v 0.959999 L -1.76,83.68 -1.92,84.480003 v 0.959999 l -0.16,0.96 -0.16,0.959999 -0.16,0.959999 -0.16,0.959999 -0.16,0.480003 v 0.479996 l -0.16,0.480003 v 0.479996 L -3.04,91.68 v 0.480004 l -0.16,0.479995 -0.16,0.480004 v 0.479995 l -0.16,0.64 -0.16,0.480003 v 0.479996 l -0.16,0.639999 -0.16,0.640007 -0.16,0.479996 v 0.32 0.319999 l -0.16,0.160004 v 0.32 0.32 l -0.16,0.319999 v 0.159996 0.32 0.32 L -4.64,99.68 v 0.32 0.32 0.16 0.32 l -0.16,0.32 v 0.16 0.48 0.64 0.48 0.32 0.32 0.16 0.32 0.64 0.64 0.64 0.16 0.32 0.32 0.32 0.32 l 0.16,0.16 v 0.32 0.16 0.32 l 0.16,0.16 v 0.16 0.16 l 0.16,0.16 v 0.16 0.16 l 0.16,0.16 v 0.16 H -4 v 0.16 h 0.16 v 0.16 h 0.16 0.16 0.16 0.16 l 0.16,-0.16 h 0.16 v -0.16 l 0.16,-0.16 h 0.16 v -0.16 l 0.16,-0.16 v -0.16 l 0.16,-0.16 0.16,-0.16 v -0.16 l 0.16,-0.32 0.32,-0.32 0.16,-0.32 0.32,-0.8 0.16,-0.32 0.16,-0.32 0.16,-0.32 0.16,-0.16 0.16,-0.32 0.16,-0.32 0.48,-0.48 0.32,-0.48 0.16,-0.32 0.16,-0.32 0.16,-0.32 0.16,-0.32 0.16,-0.32 0.16,-0.32 0.32,-0.64 0.32,-0.64 0.32,-0.64 0.16,-0.320004 0.16,-0.319999 0.64,-1.119995 0.16,-0.32 0.16,-0.32 0.16,-0.639999 0.32,-0.64 0.32,-0.640007 0.64,-1.279998 0.32,-0.799996 0.16,-0.639999 0.64,-1.280007 0.48,-1.439994 0.48,-1.279999 0.32,-0.64 L 7.84,87.68 8.16,87.040001 8.32,86.400002 8.64,85.599998 8.8,84.959999 l 0.32,-0.799995 0.16,-0.640007 0.16,-0.799996 0.32,-0.639999 0.16,-0.800003 0.16,-0.64 0.32,-0.800003 0.16,-0.799995 0.16,-0.639999 0.16,-0.800004 0.16,-0.799995 0.16,-0.639999 0.16,-0.800003 0.16,-0.800003 0.16,-0.64 0.16,-0.799995 L 12,72.32 12.16,71.519997 12.32,70.720001 12.48,69.919998 12.64,69.120003 12.8,68.32 v -0.64 l 0.16,-0.800003 0.16,-0.799995 V 65.279999 L 13.28,64.32 13.44,63.52 V 62.720001 L 13.6,61.919998 V 61.119999 L 13.76,60.32 v -0.8 l 0.16,-0.799999 V 57.759998 56.959999 L 14.08,56.16 v -0.799999 -0.959999 l 0.16,-0.800004 V 52.799999 51.84 51.040001 50.240002 L 14.4,48.48 V 46.720001 44.959999 L 14.24,43.200001 V 41.439999 39.68 L 14.08,37.919998 V 36.16 L 13.92,34.400002 V 32.48 l -0.16,-1.760001 -0.16,-1.76 -0.16,-1.919998 -0.16,-1.76 -0.16,-1.92 L 12.8,21.6 12.64,19.68 12.48,17.92 12.16,16 12,14.24"
         style="fill:none;stroke:#000000;stroke-width:1.92;stroke-linecap:round;stroke-linejoin:round;stroke-miterlimit:10;stroke-dasharray:none;stroke-opacity:1"
         id="path2526" /></g><g
       id="g2528"><path
         d="m 701.12,615.20001 v -0.16003 h -0.15998"
         style="fill:none;stroke:#000000;stroke-width:1.92;stroke-linecap:round;stroke-linejoin:round;stroke-miterlimit:10;stroke-dasharray:none;stroke-opacity:1"
         id="path2530" /></g><g
       id="g2532"
       transform="translate(696.96002,711.03998)"><path
         d="M 0,0 0.16,-0.48 0.32,-0.96 V -1.44 L 0.48,-1.92 0.64,-2.4 V -2.88 L 0.8,-3.36 V -3.84 L 0.96,-4.16 V -4.64 L 1.12,-5.12 V -5.6 l 0.16,-0.8 0.16,-0.96 0.16,-0.8 0.16,-0.96 0.16,-0.8 0.16,-0.8 v -0.8 l 0.16,-0.96 v -0.8 l 0.16,-0.8 0.16,-0.8 v -0.8 l 0.16,-0.8 v -0.800001 L 2.88,-18.08 v -0.960001 l 0.16,-1.599998 V -22.24 l 0.16,-1.6 0.16,-1.600001 v -1.439998 L 3.52,-28.48 v -1.6 l 0.16,-1.6 v -1.599999 -1.440002 L 3.84,-36.32 v -1.599998 -1.440003 -1.599998 L 4,-42.560001 V -44 -45.599998 -47.040001 -48.48 -50.080002 L 4.16,-51.52 V -52.959999 -54.560001 -56 -57.439999 -58.880001 -60.32 v -1.439998 -1.600003 -1.440002 -1.279999 -1.439995 l 0.16,-1.440002 v -1.440003 -1.439994 -1.440003 -1.279999 V -76 v -1.440002 -1.279999 -1.440003 -1.279998 -1.439995 -1.280007 l -0.16,-1.279998 v -1.439995 -1.280007 -1.279998 -1.279999 V -92 L 4,-93.440002 V -94.720001 -96"
         style="fill:none;stroke:#000000;stroke-width:1.92;stroke-linecap:round;stroke-linejoin:round;stroke-miterlimit:10;stroke-dasharray:none;stroke-opacity:1"
         id="path2534" /></g><g
       id="g2536"><path
         d="m 696.64001,712.79999 0.15998,-0.47998 V 712 l 0.16003,-0.47998 v -0.48004"
         style="fill:none;stroke:#000000;stroke-width:1.92;stroke-linecap:round;stroke-linejoin:round;stroke-miterlimit:10;stroke-dasharray:none;stroke-opacity:1"
         id="path2538" /></g><g
       id="g2540"
       transform="translate(696.32001,715.03998)"><path
         d="M 0,0 V -0.32 -0.64 L 0.16,-0.8 V -1.12 -1.44 L 0.32,-1.6 v -0.32 -0.32"
         style="fill:none;stroke:#000000;stroke-width:1.92;stroke-linecap:round;stroke-linejoin:round;stroke-miterlimit:10;stroke-dasharray:none;stroke-opacity:1"
         id="path2542" /></g><g
       id="g2544"
       transform="translate(700.96002,615.03998)"><path
         d="M 0,0 -0.16,0.16 V 0.32 H -0.32 V 0.48 0.64 L -0.48,0.8 V 0.96 1.28 L -0.64,1.6 v 0.32 0.16"
         style="fill:none;stroke:#000000;stroke-width:1.92;stroke-linecap:round;stroke-linejoin:round;stroke-miterlimit:10;stroke-dasharray:none;stroke-opacity:1"
         id="path2546" /></g><g
       id="g2548"><path
         d="m 701.12,620 h 0.16003 m 0,0.47998 H 701.44"
         style="fill:none;stroke:#000000;stroke-width:1.92;stroke-linecap:round;stroke-linejoin:round;stroke-miterlimit:10;stroke-dasharray:none;stroke-opacity:1"
         id="path2550" /></g><g
       id="g2552"
       transform="translate(713.12,629.44)"><path
         d="M 0,0 -0.16,-0.16 H -0.32 -0.48 -0.64 L -0.8,-0.32 H -0.96 L -1.12,-0.48 H -1.28 L -1.44,-0.64 -1.6,-0.8 H -1.76 L -1.92,-0.96 -2.08,-1.12 -2.24,-1.28 -2.4,-1.44 -2.56,-1.6 -2.72,-1.76 -2.88,-1.92 -3.04,-2.08 -3.2,-2.24 -3.52,-2.4 -3.68,-2.72 -3.84,-2.88 -4,-3.04 -4.16,-3.36 -4.32,-3.52 -4.64,-3.68 -4.8,-4 -4.96,-4.16 -5.12,-4.48 -5.44,-4.64 -5.6,-4.96 -5.76,-5.28 -6.08,-5.44 -6.24,-5.76 -6.4,-6.08 -6.72,-6.4 -6.88,-6.56 -7.04,-6.88 -7.36,-7.2 -7.52,-7.52 -7.68,-7.84 -8,-8 -8.16,-8.32 -8.32,-8.64 -8.64,-8.96 -8.8,-9.28 -8.96,-9.6 l -0.32,-0.32 -0.16,-0.32 -0.16,-0.32 -0.32,-0.32 -0.16,-0.32 -0.16,-0.32 -0.32,-0.32 -0.16,-0.32 -0.16,-0.32 -0.16,-0.32 -0.32,-0.32 -0.16,-0.32 -0.16,-0.32 -0.16,-0.32 -0.16,-0.16"
         style="fill:none;stroke:#000000;stroke-width:1.92;stroke-linecap:round;stroke-linejoin:round;stroke-miterlimit:10;stroke-dasharray:none;stroke-opacity:1"
         id="path2554" /></g><g
       id="g2556"
       transform="translate(714.08002,599.67999)"><path
         d="m 0,0 v 0.32 0.8 1.28 1.92 2.24 2.56 2.72 2.88 2.88 2.72 2.559999 2.240002 1.92 1.279999 0.800001 0.32"
         style="fill:none;stroke:#000000;stroke-width:1.92;stroke-linecap:round;stroke-linejoin:round;stroke-miterlimit:10;stroke-dasharray:none;stroke-opacity:1"
         id="path2558" /></g><g
       id="g2560"
       transform="translate(699.20001,629.12)"><path
         d="m 0,0 v -0.32 -0.8 -1.28 -1.92 -2.24 -2.56 -2.72 -2.88 -2.88 -2.72 -2.559999 -2.240002 -1.92 -1.279999 -0.800001 -0.32"
         style="fill:none;stroke:#000000;stroke-width:1.92;stroke-linecap:round;stroke-linejoin:round;stroke-miterlimit:10;stroke-dasharray:none;stroke-opacity:1"
         id="path2562" /></g><g
       id="g2564"
       transform="translate(696,509.12)"><path
         d="M 0,0 V -0.64 -1.28 -1.6 -1.92 L 0.16,-2.24 V -2.56 -2.88 -3.2 -3.36 L 0.32,-3.68 V -3.84 -4 -4.16 l 0.16,-0.16 v -0.16 -0.16 h 0.16"
         style="fill:none;stroke:#000000;stroke-width:1.92;stroke-linecap:round;stroke-linejoin:round;stroke-miterlimit:10;stroke-dasharray:none;stroke-opacity:1"
         id="path2566" /></g><g
       id="g2568"
       transform="translate(696.96002,503.84)"><path
         d="M 0,0 0.16,-0.16 H 0.32 L 0.48,-0.32 H 0.64 L 0.8,-0.16 H 0.96 1.12 V 0 H 1.28 L 1.44,0.16 1.6,0.32 V 0.48 L 1.76,0.64 V 0.8 H 1.92 L 2.08,1.12 2.24,1.44 2.4,1.76 3.04,3.04 3.2,3.36 3.36,3.68 3.68,4 3.84,4.32 4.48,5.44 4.8,5.92 5.12,6.56 5.44,7.04 5.76,7.68 6.08,8.32 6.4,8.96 l 0.64,1.28 0.64,1.12 0.48,1.28 0.64,1.28 0.48,1.28 0.64,1.28 0.48,1.28 0.64,1.280001 L 11.52,20.48 11.68,21.120001 12,21.76 l 0.16,0.64 0.32,0.640001 0.16,0.799999 0.32,0.64 0.16,0.640001 0.16,0.799999 0.32,0.639999 0.16,0.800002 L 13.92,28 l 0.32,0.639999 0.16,0.800002 0.16,0.639999 0.16,0.799999 0.16,0.800001 0.16,0.64 0.16,0.799999 0.16,0.639999 0.16,0.800003 0.16,0.8 L 15.84,36 16,36.799999 l 0.16,0.799999 0.16,0.800004 0.16,0.799999 0.159999,0.639999 v 0.799999 l 0.16,0.8 0.16,0.800003 0.160002,0.799999 V 43.84 l 0.16,0.799999 0.16,0.8 v 0.800003 L 17.6,47.040001 V 47.84 l 0.16,0.799999 0.16,1.600003 V 51.84 l 0.16,1.759998 0.16,1.600003 v 1.759998 l 0.16,1.600002 V 60.32 61.919998 63.68 v 1.760002 1.759995 1.600006 1.759995 L 18.24,72.32 v 1.760002 l -0.16,1.759994 -0.16,1.760002 v 1.760003 l -0.16,1.760002 -0.16,1.919998 -0.159999,1.760002 -0.16,1.759995 -0.320002,1.760002 -0.16,1.760002 L 16.639999,92 16.32,93.760002 16.16,95.519997"
         style="fill:none;stroke:#000000;stroke-width:1.92;stroke-linecap:round;stroke-linejoin:round;stroke-miterlimit:10;stroke-dasharray:none;stroke-opacity:1"
         id="path2570" /></g><g
       id="g2572"
       transform="translate(700.47998,599.35998)"><path
         d="M 0,0 V -1.12 -2.24 -3.52 L -0.16,-4.8 V -5.92 -7.2 -8.32 -9.6 l -0.16,-1.28 v -1.28 -1.28 -1.12 -1.28 l -0.16,-1.280001 V -18.4 -19.68 -20.959999 L -0.64,-22.24 V -23.52 -24.799999 -26.08 -27.52 L -0.8,-28.799999 V -30.08 -32.639999 l -0.16,-2.720002 v -2.720001 -2.559997 l -0.16,-2.720002 V -46.080002 -48.799999 -51.52 -54.240002 L -1.28,-55.52 V -56.959999 -58.400002 -59.68 l -0.16,-1.439999 V -62.400002 -63.84 l -0.16,-1.439999 v -1.279999 L -1.76,-68 -1.92,-69.440002 v -1.279999 L -2.08,-72.160004 -2.24,-73.599998 -2.4,-75.040001 -2.56,-75.68 v -0.800003 l -0.16,-0.64 -0.16,-0.799995 -0.16,-0.64 v -0.800003 L -3.2,-80 -3.36,-80.800003 v -0.32 l -0.16,-0.319999 v -0.479996 l -0.16,-0.32 v -0.480003 l -0.16,-0.32 v -0.479996 -0.319999 L -4,-84.32 v -0.319999 l -0.16,-0.480004 v -0.479995"
         style="fill:none;stroke:#000000;stroke-width:1.92;stroke-linecap:round;stroke-linejoin:round;stroke-miterlimit:10;stroke-dasharray:none;stroke-opacity:1"
         id="path2574" /></g><g
       id="g2576"
       transform="translate(713.12,629.44)"><path
         d="m 0,0 0.16,1.92 0.32,1.92 0.16,2.08 0.32,1.92 0.16,1.92 0.16,1.92 0.16,1.92 0.16,2.08 0.16,1.92 0.16,1.92 0.16,1.920001 v 1.92 l 0.16,1.76 V 26.08 27.040001 28 28.959999 L 2.4,29.92 v 0.959999 0.800001 0.959999 0.959999 0.960003 L 2.24,35.52 v 0.8 0.959999 0.960003 0.799999 L 2.08,40 v 0.959999 0.799999 0.960003 L 1.92,43.52 v 0.96 l -0.16,0.799999 v 0.960003 L 1.6,47.040001 V 48 l -0.16,0.799999 -0.16,0.959999 v 0.800003 l -0.16,0.8 L 0.96,52.32 v 0.799999 L 0.8,53.919998 0.64,54.880001 0.48,55.68 0.32,56.48 0.16,57.279999 0,58.240002 -0.16,59.040001 -0.32,59.84 l -0.16,0.799999 -0.16,0.8 -0.16,0.800003 -0.16,0.799999 -0.32,0.799999 -0.16,0.799999 -0.16,0.800003 -0.16,0.799996 -0.32,0.800003 -0.16,0.799995 -0.16,0.640007 -0.32,0.799996 -0.16,0.800003 -0.32,0.799995 -0.16,0.64 L -3.68,72.32 -4,73.120003 -4.16,73.760002 -4.48,74.559998 -4.8,75.199997 -4.96,76 -5.28,76.639999 -5.6,77.440002 -6.08,78.879997 -6.72,80.160004 -7.36,81.599998 -8,83.040001 -8.64,84.32 l -0.64,1.440002 -0.64,1.279999 -0.8,1.440002 -0.16,0.32 -0.16,0.32 -0.32,0.479995 -0.8,1.279999 -0.32,0.64 -0.32,0.640007 -0.16,0.319999 -0.32,0.32 -0.16,0.32 -0.16,0.319999 -0.16,0.32 -0.16,0.32 -0.16,0.479996 -0.16,0.160003 h -0.16 v 0.159996 l -0.16,0.160004 v 0.159996 l -0.16,0.160004 -0.16,0.159996 -0.16,0.160003 h -0.16 -0.16 v 0.159996 h -0.16 -0.16 L -15.84,95.68 H -16 l -0.16,-0.160003 -0.16,-0.159996 -0.16,-0.160004 v -0.32 l -0.159999,-0.159996 v -0.160003 l -0.16,-0.159996 v -0.32 -0.160004 l -0.16,-0.32 v -0.319999 -0.159996 -0.32 -0.32 l -0.160002,-0.319999 V 92 v -0.639999 -0.64 -0.480003 -0.64 -0.479995 -0.64 -0.640007 l 0.160002,-0.479995 v -0.32 -0.32 -0.319999 -0.32 l 0.16,-0.32 v -0.32 -0.160003 l 0.16,-0.32"
         style="fill:none;stroke:#000000;stroke-width:1.92;stroke-linecap:round;stroke-linejoin:round;stroke-miterlimit:10;stroke-dasharray:none;stroke-opacity:1"
         id="path2578" /></g><g
       id="g2580"
       transform="translate(696.32001,715.03998)"><path
         d="M 0,0 V -0.32 -0.48 L 0.16,-0.8 V -0.96 -1.44 L 0.32,-1.92 V -2.4 L 0.48,-2.88 V -3.36 L 0.64,-3.84 V -4.32 L 0.8,-4.64 V -5.12 L 0.96,-5.6 1.12,-6.4 1.28,-7.2 1.44,-8.16 v -0.8 l 0.16,-0.8 0.16,-0.8 v -0.8 l 0.16,-0.8 0.16,-0.96 v -0.8 l 0.16,-1.6 0.16,-1.600001 0.16,-1.599998 V -20.32 l 0.16,-1.6 v -1.6 l 0.16,-1.600001 V -26.719999 -28.32 l 0.16,-1.6 v -1.6 -1.599999 -1.600002 -1.599999 -3.2 -3.040001 L 3.2,-44.16 v -1.599998 -1.600003 -1.439998 -1.600003 V -52 l 0.16,-1.439999 v -1.600002 -1.599998 l 0.16,-1.440003 V -59.68 -61.119999 l 0.16,-1.440002 v -1.600003 -1.439994 l 0.16,-1.440003 v -1.599998 -1.440003 -1.439995 L 4,-72.959999 v -1.440003 -1.439994 l 0.16,-1.440003 v -1.440002 -1.440003 -1.439994 -1.440003 V -84.32 l 0.16,-1.440002 v -1.439995 -1.280006 -1.439995 l -0.16,-1.279999 v -1.440002 -1.279999 -1.279999 -1.440002 L 4,-97.919998"
         style="fill:none;stroke:#000000;stroke-width:1.92;stroke-linecap:round;stroke-linejoin:round;stroke-miterlimit:10;stroke-dasharray:none;stroke-opacity:1"
         id="path2582" /></g><g
       id="g2584"><path
         d="m 713.91998,599.67999 v -0.15997 h -0.15997"
         style="fill:none;stroke:#000000;stroke-width:1.92;stroke-linecap:round;stroke-linejoin:bevel;stroke-miterlimit:10;stroke-dasharray:none;stroke-opacity:1"
         id="path2586" /></g><g
       id="g2588"><path
         d="m 713.76001,629.28003 h 0.15997 V 629.12"
         style="fill:none;stroke:#000000;stroke-width:1.92;stroke-linecap:round;stroke-linejoin:bevel;stroke-miterlimit:10;stroke-dasharray:none;stroke-opacity:1"
         id="path2590" /></g><g
       id="g2592"
       transform="translate(699.35998,599.35998)"><path
         d="M 0,0 H 14.4 M 0,30.08 h 1.28 m 0.8,0 h 0.16 m 11.52,0 h 0.64"
         style="fill:none;stroke:#000000;stroke-width:1.92;stroke-linecap:round;stroke-linejoin:round;stroke-miterlimit:10;stroke-dasharray:none;stroke-opacity:1"
         id="path2594" /></g><g
       id="g2596"><path
         d="m 699.35998,599.52002 h -0.15997 v 0.15997"
         style="fill:none;stroke:#000000;stroke-width:1.92;stroke-linecap:round;stroke-linejoin:bevel;stroke-miterlimit:10;stroke-dasharray:none;stroke-opacity:1"
         id="path2598" /></g><g
       id="g2600"><path
         d="m 699.20001,629.12 v 0.16003 h 0.15997"
         style="fill:none;stroke:#000000;stroke-width:1.92;stroke-linecap:round;stroke-linejoin:bevel;stroke-miterlimit:10;stroke-dasharray:none;stroke-opacity:1"
         id="path2602" /></g><g
       id="g2604"
       transform="translate(695.52002,596.64001)"><path
         d="m 0,0 v 0.32 0.8 1.28 1.76 2.24 2.4 2.88 3.04 3.04 3.039999 3.040001 2.879999 2.400002 2.24 1.759998 1.280003 0.799999 V 35.52"
         style="fill:none;stroke:#000000;stroke-width:1.92;stroke-linecap:round;stroke-linejoin:round;stroke-miterlimit:10;stroke-dasharray:none;stroke-opacity:1"
         id="path2606" /></g><g
       id="g2608"><path
         d="m 699.20001,617.44 h -3.67999 m 3.67999,-6.08002 h -3.67999"
         style="fill:none;stroke:#000000;stroke-width:1.92;stroke-linecap:round;stroke-linejoin:round;stroke-miterlimit:10;stroke-dasharray:none;stroke-opacity:1"
         id="path2610" /></g><g
       id="g2612"><path
         d="M 694.40002,633.28003 694.88,633.12 l 0.32001,-0.15998 0.15997,-0.32001 0.16004,-0.48004"
         style="fill:none;stroke:#000000;stroke-width:1.92;stroke-linecap:round;stroke-linejoin:bevel;stroke-miterlimit:10;stroke-dasharray:none;stroke-opacity:1"
         id="path2614" /></g><g
       id="g2616"><path
         d="m 695.52002,596.64001 -0.16004,-0.48004 -0.15997,-0.31994 -0.32001,-0.16004 -0.47998,-0.15997"
         style="fill:none;stroke:#000000;stroke-width:1.92;stroke-linecap:round;stroke-linejoin:bevel;stroke-miterlimit:10;stroke-dasharray:none;stroke-opacity:1"
         id="path2618" /></g><g
       id="g2620"><path
         d="m 694.40002,633.28003 h -25.92004 m 25.92004,-37.76001 h -25.92004"
         style="fill:none;stroke:#000000;stroke-width:1.92;stroke-linecap:round;stroke-linejoin:round;stroke-miterlimit:10;stroke-dasharray:none;stroke-opacity:1"
         id="path2622" /></g></g></svg>
