<?xml version="1.0" encoding="UTF-8" standalone="no"?>
<svg
   xmlns:dc="http://purl.org/dc/elements/1.1/"
   xmlns:cc="http://creativecommons.org/ns#"
   xmlns:rdf="http://www.w3.org/1999/02/22-rdf-syntax-ns#"
   xmlns:svg="http://www.w3.org/2000/svg"
   xmlns="http://www.w3.org/2000/svg"
   xmlns:sodipodi="http://sodipodi.sourceforge.net/DTD/sodipodi-0.dtd"
   xmlns:inkscape="http://www.inkscape.org/namespaces/inkscape"
   version="1.1"
   id="svg1371"
   xml:space="preserve"
   width="1122.5601"
   height="1587.36"
   viewBox="0 0 1122.5601 1587.36"
   sodipodi:docname="drone-base-top.svg"
   inkscape:version="1.0.1 (3bc2e813f5, 2020-09-07)"><metadata
     id="metadata1377"><rdf:RDF><cc:Work
         rdf:about=""><dc:format>image/svg+xml</dc:format><dc:type
           rdf:resource="http://purl.org/dc/dcmitype/StillImage" /><dc:title></dc:title></cc:Work></rdf:RDF></metadata><defs
     id="defs1375" /><sodipodi:namedview
     pagecolor="#ffffff"
     bordercolor="#666666"
     borderopacity="1"
     objecttolerance="10"
     gridtolerance="10"
     guidetolerance="10"
     inkscape:pageopacity="0"
     inkscape:pageshadow="2"
     inkscape:window-width="1920"
     inkscape:window-height="1057"
     id="namedview1373"
     showgrid="false"
     inkscape:zoom="0.56067937"
     inkscape:cx="561.28003"
     inkscape:cy="865.02201"
     inkscape:window-x="-8"
     inkscape:window-y="-8"
     inkscape:window-maximized="1"
     inkscape:current-layer="g1379" /><g
     id="g1379"
     inkscape:groupmode="layer"
     inkscape:label="top-view"
     transform="translate(0,1.3017334e-5)"><g
       id="g1381"
       transform="translate(811.35998,762.71997)"><path
         d="m 0,0 v 0.32 0.96 1.6 1.92 2.56 2.72 2.72 2.88 2.72 2.559999 1.92 V 24.48 25.440001 25.76"
         style="fill:none;stroke:#000000;stroke-width:1.92;stroke-linecap:round;stroke-linejoin:round;stroke-miterlimit:10;stroke-dasharray:none;stroke-opacity:1"
         id="path1383" /></g><g
       id="g1385"><path
         d="M 807.52002,807.67999 V 743.52002"
         style="fill:none;stroke:#000000;stroke-width:1.92;stroke-linecap:round;stroke-linejoin:round;stroke-miterlimit:10;stroke-dasharray:none;stroke-opacity:1"
         id="path1387" /></g><g
       id="g1389"><path
         d="M 534.40002,848.47998 H 524 l -43.84,84.16003"
         style="fill:none;stroke:#000000;stroke-width:1.92;stroke-linecap:round;stroke-linejoin:round;stroke-miterlimit:10;stroke-dasharray:none;stroke-opacity:1"
         id="path1391" /></g><g
       id="g1393"><path
         d="m 502.56,946.23999 78.08001,-97.76001"
         style="fill:none;stroke:#000000;stroke-width:1.92;stroke-linecap:round;stroke-linejoin:round;stroke-miterlimit:10;stroke-dasharray:none;stroke-opacity:1"
         id="path1395" /></g><g
       id="g1397"
       transform="translate(481.76001,936.32001)"><path
         d="m 0,0 -2.72,0.16 -2.56,0.64 -2.56,0.96 -2.4,1.28 -2.08,1.6 -1.92,1.92 -1.6,2.08 -1.280001,2.4 -0.959999,2.56 -0.639999,2.56 -0.16,2.719999 0.16,2.720001 0.639999,2.56 0.959999,2.559999 1.280001,2.400002 1.6,2.08 1.92,1.919998 2.08,1.600002 2.4,1.279999 2.56,0.959999 2.56,0.639999 2.72,0.16 2.72,-0.16 L 5.28,36.959999 7.84,36 l 2.4,-1.279999 2.08,-1.600002 1.92,-1.919998 1.6,-2.08 1.280001,-2.400002 L 18.08,24.16 l 0.639999,-2.56 0.16,-2.720001 L 18.719999,16.16 18.08,13.6 17.120001,11.04 15.84,8.64 14.24,6.56 12.32,4.64 10.24,3.04 7.84,1.76 5.28,0.8 2.72,0.16 Z"
         style="fill:none;stroke:#000000;stroke-width:1.92;stroke-linecap:round;stroke-linejoin:bevel;stroke-miterlimit:10;stroke-dasharray:none;stroke-opacity:1"
         id="path1399" /></g><g
       id="g1401"
       transform="translate(481.76001,932.64001)"><path
         d="m 0,0 -2.88,0.16 -2.88,0.64 -2.88,0.96 -2.56,1.28 -2.56,1.6 -2.24,1.92 -1.92,2.24 -1.6,2.4 -1.279999,2.72 L -21.76,16.799999 -22.4,19.68 -22.559999,22.559999 -22.4,25.440001 -21.76,28.32 l 0.960001,2.880001 1.279999,2.559997 1.6,2.560002 1.92,2.240001 2.24,1.919999 2.56,1.600002 2.56,1.279999 2.88,0.959999 2.88,0.639999 2.88,0.16 2.88,-0.16 L 5.76,44.32 8.64,43.360001 11.36,42.080002 13.76,40.48 16,38.560001 17.92,36.32 19.52,33.759998 20.799999,31.200001 21.76,28.32 22.4,25.440001 22.559999,22.559999 22.4,19.68 21.76,16.799999 20.799999,13.92 19.52,11.2 17.92,8.8 16,6.56 13.76,4.64 11.36,3.04 8.64,1.76 5.76,0.8 2.88,0.16 Z"
         style="fill:none;stroke:#000000;stroke-width:1.92;stroke-linecap:round;stroke-linejoin:bevel;stroke-miterlimit:10;stroke-dasharray:none;stroke-opacity:1"
         id="path1403" /></g><g
       id="g1405"><path
         d="M 534.40002,702.71997 H 524 m -21.44,-97.75995 78.08001,97.75995 M 524,702.71997 480.16,618.56"
         style="fill:none;stroke:#000000;stroke-width:1.92;stroke-linecap:round;stroke-linejoin:round;stroke-miterlimit:10;stroke-dasharray:none;stroke-opacity:1"
         id="path1407" /></g><g
       id="g1409"
       transform="translate(481.76001,577.12)"><path
         d="m 0,0 -2.72,0.16 -2.56,0.64 -2.56,0.96 -2.4,1.28 -2.08,1.6 -1.92,1.92 -1.6,2.08 -1.280001,2.4 -0.959999,2.56 -0.639999,2.56 -0.16,2.719999 0.16,2.720001 0.639999,2.56 0.959999,2.559999 1.280001,2.400002 1.6,2.08 1.92,1.919998 2.08,1.600002 2.4,1.279999 2.56,0.959999 2.56,0.639999 2.72,0.16 2.72,-0.16 L 5.28,36.959999 7.84,36 l 2.4,-1.279999 2.08,-1.600002 1.92,-1.919998 1.6,-2.08 1.280001,-2.400002 L 18.08,24.16 l 0.639999,-2.56 0.16,-2.720001 L 18.719999,16.16 18.08,13.6 17.120001,11.04 15.84,8.64 14.24,6.56 12.32,4.64 10.24,3.04 7.84,1.76 5.28,0.8 2.72,0.16 Z"
         style="fill:none;stroke:#000000;stroke-width:1.92;stroke-linecap:round;stroke-linejoin:bevel;stroke-miterlimit:10;stroke-dasharray:none;stroke-opacity:1"
         id="path1411" /></g><g
       id="g1413"
       transform="translate(481.76001,573.44)"><path
         d="m 0,0 -2.88,0.16 -2.88,0.64 -2.88,0.96 -2.56,1.28 -2.56,1.6 -2.24,1.92 -1.92,2.24 -1.6,2.4 -1.279999,2.72 L -21.76,16.799999 -22.4,19.68 -22.559999,22.559999 -22.4,25.440001 -21.76,28.32 l 0.960001,2.880001 1.279999,2.559997 1.6,2.560002 1.92,2.240001 2.24,1.919999 2.56,1.600002 2.56,1.279999 2.88,0.959999 2.88,0.639999 2.88,0.16 2.88,-0.16 L 5.76,44.32 8.64,43.360001 11.36,42.080002 13.76,40.48 16,38.560001 17.92,36.32 19.52,33.759998 20.799999,31.200001 21.76,28.32 22.4,25.440001 22.559999,22.559999 22.4,19.68 21.76,16.799999 20.799999,13.92 19.52,11.2 17.92,8.8 16,6.56 13.76,4.64 11.36,3.04 8.64,1.76 5.76,0.8 2.88,0.16 Z"
         style="fill:none;stroke:#000000;stroke-width:1.92;stroke-linecap:round;stroke-linejoin:bevel;stroke-miterlimit:10;stroke-dasharray:none;stroke-opacity:1"
         id="path1415" /></g><g
       id="g1417"
       transform="translate(766.88,702.71997)"><path
         d="M 0,0 H -232.48 M 0,145.75999 H 4.8 M 26.24,243.52 -51.84,145.75999 m 56.64,0 43.839999,84.16001"
         style="fill:none;stroke:#000000;stroke-width:1.92;stroke-linecap:round;stroke-linejoin:round;stroke-miterlimit:10;stroke-dasharray:none;stroke-opacity:1"
         id="path1419" /></g><g
       id="g1421"
       transform="translate(813.91998,936.32001)"><path
         d="m 0,0 -2.72,0.16 -2.56,0.64 -2.56,0.96 -2.4,1.28 -2.08,1.6 -1.92,1.92 -1.6,2.08 -1.280001,2.4 -0.959999,2.56 -0.639999,2.56 -0.16,2.719999 0.16,2.720001 0.639999,2.56 0.959999,2.559999 1.280001,2.400002 1.6,2.08 1.92,1.919998 2.08,1.600002 2.4,1.279999 2.56,0.959999 2.56,0.639999 2.72,0.16 2.72,-0.16 L 5.28,36.959999 7.84,36 l 2.4,-1.279999 2.08,-1.600002 1.92,-1.919998 1.6,-2.08 1.280001,-2.400002 L 18.08,24.16 l 0.639999,-2.56 0.16,-2.720001 L 18.719999,16.16 18.08,13.6 17.120001,11.04 15.84,8.64 14.24,6.56 12.32,4.64 10.24,3.04 7.84,1.76 5.28,0.8 2.72,0.16 Z"
         style="fill:none;stroke:#000000;stroke-width:1.92;stroke-linecap:round;stroke-linejoin:bevel;stroke-miterlimit:10;stroke-dasharray:none;stroke-opacity:1"
         id="path1423" /></g><g
       id="g1425"
       transform="translate(813.91998,932.64001)"><path
         d="m 0,0 -2.88,0.16 -2.88,0.64 -2.88,0.96 -2.56,1.28 -2.56,1.6 -2.24,1.92 -1.92,2.24 -1.6,2.4 -1.279999,2.72 L -21.76,16.799999 -22.4,19.68 -22.559999,22.559999 -22.4,25.440001 -21.76,28.32 l 0.960001,2.880001 1.279999,2.559997 1.6,2.560002 1.92,2.240001 2.24,1.919999 2.56,1.600002 2.56,1.279999 2.88,0.959999 2.88,0.639999 2.88,0.16 2.88,-0.16 L 5.76,44.32 8.64,43.360001 11.36,42.080002 13.76,40.48 16,38.560001 17.92,36.32 19.52,33.759998 20.799999,31.200001 21.76,28.32 22.4,25.440001 22.559999,22.559999 22.4,19.68 21.76,16.799999 20.799999,13.92 19.52,11.2 17.92,8.8 16,6.56 13.76,4.64 11.36,3.04 8.64,1.76 5.76,0.8 2.88,0.16 Z"
         style="fill:none;stroke:#000000;stroke-width:1.92;stroke-linecap:round;stroke-linejoin:bevel;stroke-miterlimit:10;stroke-dasharray:none;stroke-opacity:1"
         id="path1427" /></g><g
       id="g1429"><path
         d="M 534.40002,848.47998 H 766.88 M 524.15997,712.96002 v 125.27997"
         style="fill:none;stroke:#000000;stroke-width:1.92;stroke-linecap:round;stroke-linejoin:round;stroke-miterlimit:10;stroke-dasharray:none;stroke-opacity:1"
         id="path1431" /></g><g
       id="g1433"
       transform="translate(807.52002,743.52002)"><path
         d="m 0,0 -0.16,-3.52 -0.48,-3.52 -0.8,-3.52 -0.96,-3.36 -1.44,-3.200001 -1.6,-3.199999 -1.92,-3.040001 -2.08,-2.719999 -2.4,-2.719999 -2.72,-2.400002 -2.720001,-2.079998 -3.039999,-1.920002 -3.2,-1.599998 -3.199999,-1.440003 L -30.08,-39.200001 -33.599998,-40 l -3.520001,-0.48 -3.52,-0.159999"
         style="fill:none;stroke:#000000;stroke-width:1.92;stroke-linecap:round;stroke-linejoin:bevel;stroke-miterlimit:10;stroke-dasharray:none;stroke-opacity:1"
         id="path1435" /></g><g
       id="g1437"
       transform="translate(766.88,848.32001)"><path
         d="m 0,0 3.52,-0.16 3.52,-0.48 3.52,-0.8 3.36,-0.96 3.200001,-1.44 3.199999,-1.6 3.040001,-1.92 2.719999,-2.08 2.719999,-2.4 2.400002,-2.72 2.079998,-2.720001 1.920002,-3.039999 1.599998,-3.2 1.440003,-3.199999 L 39.200001,-30.08 40,-33.599998 l 0.48,-3.520001 0.159999,-3.52"
         style="fill:none;stroke:#000000;stroke-width:1.92;stroke-linecap:round;stroke-linejoin:bevel;stroke-miterlimit:10;stroke-dasharray:none;stroke-opacity:1"
         id="path1439" /></g><g
       id="g1441"
       transform="translate(524.15997,838.23999)"><path
         d="M 0,0 V 0.32 0.48 L 0.16,0.64 V 0.96 1.12 1.28 1.6 1.76 L 0.32,2.08 V 2.24 L 0.48,2.56 V 2.72 3.04 L 0.64,3.2 V 3.36 L 0.8,3.68 0.96,3.84 V 4.16 L 1.12,4.32 1.28,4.64 V 4.8 L 1.44,5.12 1.6,5.28 1.76,5.44 1.92,5.76 2.08,5.92 2.24,6.08 2.4,6.4 2.56,6.56 2.72,6.72 2.88,6.88 3.2,7.2 3.36,7.36 3.52,7.52 3.68,7.68 4,7.84 4.16,8 4.32,8.16 4.64,8.32 4.8,8.48 4.96,8.64 5.28,8.8 5.44,8.96 5.6,9.12 H 5.92 L 6.08,9.28 6.4,9.44 H 6.56 L 6.88,9.6 H 7.04 L 7.36,9.76 H 7.52 L 7.84,9.92 H 8 8.16 l 0.32,0.16 h 0.16 0.32 0.16 l 0.32,0.16 h 0.16 0.16 0.32 0.16"
         style="fill:none;stroke:#000000;stroke-width:1.92;stroke-linecap:round;stroke-linejoin:round;stroke-miterlimit:10;stroke-dasharray:none;stroke-opacity:1"
         id="path1443" /></g><g
       id="g1445"
       transform="translate(534.40002,702.71997)"><path
         d="M 0,0 H -0.16 -0.48 -0.64 -0.8 L -1.12,0.16 H -1.28 -1.6 -1.76 L -2.08,0.32 H -2.24 -2.4 L -2.72,0.48 H -2.88 L -3.2,0.64 H -3.36 L -3.68,0.8 H -3.84 L -4.16,0.96 -4.32,1.12 H -4.64 L -4.8,1.28 -4.96,1.44 -5.28,1.6 -5.44,1.76 -5.76,1.92 -5.92,2.08 -6.08,2.24 -6.4,2.4 -6.56,2.56 -6.72,2.72 -6.88,2.88 -7.04,3.04 -7.36,3.36 -7.52,3.52 -7.68,3.68 -7.84,3.84 -8,4.16 -8.16,4.32 -8.32,4.48 -8.48,4.8 -8.64,4.96 -8.8,5.12 -8.96,5.44 V 5.6 L -9.12,5.92 -9.28,6.08 V 6.4 L -9.44,6.56 -9.6,6.88 V 7.04 L -9.76,7.2 V 7.52 L -9.92,7.68 V 8 8.16 l -0.16,0.32 V 8.64 8.96 9.12 9.28 9.6 l -0.16,0.16 v 0.16 0.32"
         style="fill:none;stroke:#000000;stroke-width:1.92;stroke-linecap:round;stroke-linejoin:round;stroke-miterlimit:10;stroke-dasharray:none;stroke-opacity:1"
         id="path1447" /></g><g
       id="g1449"><path
         d="m 766.88,702.71997 h 4.79999 L 815.52002,618.56"
         style="fill:none;stroke:#000000;stroke-width:1.92;stroke-linecap:round;stroke-linejoin:round;stroke-miterlimit:10;stroke-dasharray:none;stroke-opacity:1"
         id="path1451" /></g><g
       id="g1453"><path
         d="m 793.12,604.96002 -78.08002,97.75995"
         style="fill:none;stroke:#000000;stroke-width:1.92;stroke-linecap:round;stroke-linejoin:round;stroke-miterlimit:10;stroke-dasharray:none;stroke-opacity:1"
         id="path1455" /></g><g
       id="g1457"
       transform="translate(813.91998,577.12)"><path
         d="m 0,0 -2.72,0.16 -2.56,0.64 -2.56,0.96 -2.4,1.28 -2.08,1.6 -1.92,1.92 -1.6,2.08 -1.280001,2.4 -0.959999,2.56 -0.639999,2.56 -0.16,2.719999 0.16,2.720001 0.639999,2.56 0.959999,2.559999 1.280001,2.400002 1.6,2.08 1.92,1.919998 2.08,1.600002 2.4,1.279999 2.56,0.959999 2.56,0.639999 2.72,0.16 2.72,-0.16 L 5.28,36.959999 7.84,36 l 2.4,-1.279999 2.08,-1.600002 1.92,-1.919998 1.6,-2.08 1.280001,-2.400002 L 18.08,24.16 l 0.639999,-2.56 0.16,-2.720001 L 18.719999,16.16 18.08,13.6 17.120001,11.04 15.84,8.64 14.24,6.56 12.32,4.64 10.24,3.04 7.84,1.76 5.28,0.8 2.72,0.16 Z"
         style="fill:none;stroke:#000000;stroke-width:1.92;stroke-linecap:round;stroke-linejoin:bevel;stroke-miterlimit:10;stroke-dasharray:none;stroke-opacity:1"
         id="path1459" /></g><g
       id="g1461"
       transform="translate(813.91998,573.44)"><path
         d="m 0,0 -2.88,0.16 -2.88,0.64 -2.88,0.96 -2.56,1.28 -2.56,1.6 -2.24,1.92 -1.92,2.24 -1.6,2.4 -1.279999,2.72 L -21.76,16.799999 -22.4,19.68 -22.559999,22.559999 -22.4,25.440001 -21.76,28.32 l 0.960001,2.880001 1.279999,2.559997 1.6,2.560002 1.92,2.240001 2.24,1.919999 2.56,1.600002 2.56,1.279999 2.88,0.959999 2.88,0.639999 2.88,0.16 2.88,-0.16 L 5.76,44.32 8.64,43.360001 11.36,42.080002 13.76,40.48 16,38.560001 17.92,36.32 19.52,33.759998 20.799999,31.200001 21.76,28.32 22.4,25.440001 22.559999,22.559999 22.4,19.68 21.76,16.799999 20.799999,13.92 19.52,11.2 17.92,8.8 16,6.56 13.76,4.64 11.36,3.04 8.64,1.76 5.76,0.8 2.88,0.16 Z"
         style="fill:none;stroke:#000000;stroke-width:1.92;stroke-linecap:round;stroke-linejoin:bevel;stroke-miterlimit:10;stroke-dasharray:none;stroke-opacity:1"
         id="path1463" /></g><g
       id="g1465"><path
         d="m 807.52002,762.71997 h 3.83996 m -3.83996,25.76001 h 3.83996"
         style="fill:none;stroke:#000000;stroke-width:1.92;stroke-linecap:round;stroke-linejoin:round;stroke-miterlimit:10;stroke-dasharray:none;stroke-opacity:1"
         id="path1467" /></g><g
       id="g1469"
       transform="translate(836,601.28003)"><path
         d="m 0,0 1.76,1.12 1.6,1.28 1.76,1.28 1.6,1.12 1.76,1.28 1.6,1.28 1.76,1.28 1.6,1.28 1.76,1.28 1.599999,1.28 1.600001,1.28 1.6,1.28 1.76,1.44 1.600001,1.28 1.599998,1.280001 1.6,1.439999 1.600001,1.28 1.6,1.440001 L 30.559999,23.84 31.360001,24.48 32.16,25.280001 32.799999,25.92 33.599998,26.559999 34.400002,27.360001 35.200001,28 36,28.799999 l 0.799999,0.640002 0.64,0.639999 0.800003,0.799999 0.799999,0.640001 0.799999,0.8 0.799999,0.639999 0.64,0.799999 0.800003,0.640004 0.799999,0.799999 L 43.52,35.84 l 0.8,0.799999 0.799999,0.8 0.639999,0.640003 0.800003,0.799999 0.64,0.639999 0.799999,0.8 0.639999,0.799999 0.8,0.639999 0.640003,0.800003 0.799999,0.8 L 51.52,44.16 l 0.8,0.639999 0.639999,0.799999 0.799999,0.800004 0.640004,0.799999 0.639999,0.639999 0.799999,0.799999 0.64,0.8 0.639999,0.800003 0.799999,0.799999 0.640003,0.799999 0.64,0.64 0.639999,0.799999 0.64,0.800003 0.799999,0.799999 0.639999,0.799999 0.640003,0.8 0.64,0.799999 0.639999,0.800003 0.640003,0.799999 0.64,0.799999 0.639999,0.8 0.64,0.799999 0.639999,0.800003 L 68.32,63.68 l 1.279998,1.599999 1.279999,1.599998 1.280007,1.600006 0.479995,0.799996 0.64,0.800003 1.279999,1.759994 0.480003,0.800003 0.639999,0.800003 0.64,0.799996 0.319999,0.480003 0.32,0.32 0.160004,0.479996 0.319999,0.319999 0.64,0.800003 0.159996,0.480004 0.32,0.319999 0.319999,0.479996 0.32,0.480004 0.639999,0.799995 L 80.32,80 l 0.639999,0.800003 0.32,0.479996 0.319999,0.319999 0.160004,0.480004 0.32,0.479996 0.32,0.319999 0.159996,0.480004 0.480003,0.800003 0.479996,0.799995 0.319999,0.480003 0.160004,0.32 0.32,0.479996 0.319999,0.32 0.32,0.480003 0.160004,0.479996 0.319999,0.319999 0.32,0.480004 0.799996,0.800003 0.319999,0.479995 0.32,0.480004 0.160004,0.479996 0.159996,0.160003 0.160003,0.159996 0.159996,0.32 L 88,91.360001 v 0.159996 L 88.160004,91.839996 88.32,92 v 0.160004 l 0.160003,0.319999 v 0.159996 0.32 l 0.159996,0.160004 v 0.159996 0.319999 0.160004 0.159996 0.32 0.160004 0.159996 l -0.159996,0.160003 v 0.32 0.159996 L 88.32,95.360001 v 0.159996 L 88.160004,95.68 v 0.159996 L 88,96 87.839996,96.160004 V 96.32 H 87.68 l -0.160003,0.160003 -0.159996,0.159996 -0.160004,0.160004 -0.159996,0.159996 h -0.160004 l -0.159996,0.160004 -0.160003,0.159996 -0.159996,0.160003 h -0.160004 l -0.159996,0.159996 h -0.32 l -0.160004,0.160004 -0.479995,0.159996 -0.32,0.160004 -0.480003,0.159996 -0.480004,0.160004 -0.479995,0.159996 -0.480004,0.160003 h -0.479995 l -0.32,0.159996 -0.480004,0.160004 -0.479995,0.159996 h -0.32 L 80.32,99.360001 H 80 l -0.480003,0.159996 h -0.32 l -0.32,0.160003 h -0.479995 -0.160004 -0.159996 -0.32 -0.160004 -0.319999 L 76.800003,99.519997 H 76.32 75.839996 l -0.319999,-0.159996 -0.479996,-0.160004 h -0.480003 l -0.479996,-0.159996 -0.480004,-0.160004 -0.479995,-0.159996 -0.32,-0.160003 -0.480003,-0.159996 -0.480004,-0.32 -0.479995,-0.160004 -0.32,-0.159996 -0.480003,-0.160004 -0.32,-0.319999 -0.479996,-0.159996 -0.32,-0.32 L 68.959999,96.639999 68.480003,96.32 67.68,95.839996 l -0.800003,-0.479995 -0.799995,-0.480004 -0.800003,-0.479995 -0.799996,-0.64 -0.800003,-0.480003 -0.799999,-0.64 -0.799999,-0.479995 -0.640003,-0.640007 -0.8,-0.479996 L 59.84,90.400002 59.040001,89.919998 58.240002,89.279999 57.599998,88.639999 56.799999,88.160004 55.200001,86.879997 53.759998,85.760002 52.32,84.480003 50.720001,83.199997 49.279999,82.080002 47.84,80.800003 46.400002,79.519997 44.799999,78.239998 43.360001,77.120003 41.919998,75.839996 40.48,74.559998 39.040001,73.279999 37.599998,72 36.16,70.720001 34.720001,69.440002 33.279999,68.160004 31.84,66.879997 30.4,65.440002 29.120001,64.160004 27.68,62.880001 26.24,61.599998 24.799999,60.32 23.360001,58.880001 22.08,57.599998 20.639999,56.32 19.200001,54.880001 17.92,53.599998 16.48,52.16 15.2,50.880001 13.76,49.439999 12.48,48.16 11.04,46.720001 9.76,45.279999 8.48,44 7.04,42.560001 5.76,41.119999 4.48,39.68 3.2,38.400002 1.76,36.959999 0.48,35.52 -0.8,34.080002 -2.08,32.639999 -3.36,31.200001 -4.64,29.76"
         style="fill:none;stroke:#000000;stroke-width:1.92;stroke-linecap:round;stroke-linejoin:round;stroke-miterlimit:10;stroke-dasharray:none;stroke-opacity:1"
         id="path1471" /></g><g
       id="g1473"
       transform="translate(831.35998,631.03998)"><path
         d="m 0,0 -1.28,-1.44 -1.28,-1.44 -1.28,-1.44 -1.12,-1.44 -1.28,-1.6 -1.28,-1.44 -1.28,-1.44 -1.12,-1.44 -1.28,-1.6"
         style="fill:none;stroke:#000000;stroke-width:1.92;stroke-linecap:round;stroke-linejoin:round;stroke-miterlimit:10;stroke-dasharray:none;stroke-opacity:1"
         id="path1475" /></g><g
       id="g1477"
       transform="translate(791.84003,590.71997)"><path
         d="m 0,0 -1.6,-1.12 -1.76,-1.28 -1.6,-1.28 -1.76,-1.28 -1.76,-1.12 -1.6,-1.28 -1.6,-1.28 -1.76,-1.28 -1.6,-1.28 -1.759999,-1.28 -1.600001,-1.28 -1.6,-1.44 -1.6,-1.28 -1.600001,-1.28 -1.599998,-1.440001 L -26.4,-20.48 -28,-21.76 -29.6,-23.200001 -30.4,-23.84 -31.200001,-24.639999 -32,-25.280001 -32.799999,-25.92 -33.599998,-26.719999 -34.400002,-27.360001 -35.200001,-28 -35.84,-28.799999 l -0.799999,-0.640002 -0.8,-0.799999 -0.800003,-0.639999 -0.799999,-0.800001 -0.639999,-0.64 -0.8,-0.639999 -0.799999,-0.799999 -0.800003,-0.800003 -0.639999,-0.64 L -43.52,-36 l -0.8,-0.639999 -0.639999,-0.8 -0.799999,-0.640003 -0.640004,-0.799999 -0.799999,-0.799999 -0.639999,-0.64 -0.799999,-0.799999 -0.8,-0.799999 -0.640003,-0.640003 -0.799999,-0.8 L -51.52,-44.16 l -0.64,-0.639999 -0.799999,-0.799999 -0.639999,-0.800004 -0.800004,-0.799999 L -55.040001,-48 -55.68,-48.639999 l -0.8,-0.8 -0.639999,-0.800003 -0.639999,-0.799999 -0.640004,-0.799999 -0.799999,-0.799999 -0.639999,-0.8 -0.64,-0.640003 -0.639999,-0.799999 -0.639999,-0.799999 -0.800003,-0.8 -0.64,-0.799999 -0.639999,-0.800003 -0.640003,-0.799999 -0.64,-0.799999 -0.639999,-0.8 -0.64,-0.799999 -0.639999,-0.800003 L -68.32,-63.68 -69.599998,-65.279999 -70.720001,-66.879997 -72,-68.480003 l -0.639999,-0.799996 -0.64,-0.959999 -1.120003,-1.599998 -0.639999,-0.800003 -0.639999,-0.800003 -0.64,-0.799996 -0.160003,-0.480003 -0.32,-0.32 -0.32,-0.479996 -0.319999,-0.319999 -0.479996,-0.800003 -0.32,-0.480004 -0.32,-0.479995 -0.319999,-0.32 -0.160004,-0.480004 L -79.68,-79.199997 -80.32,-80 l -0.639999,-0.800003 -0.32,-0.479996 -0.160003,-0.480003 -0.32,-0.32 -0.32,-0.479996 -0.159996,-0.319999 -0.32,-0.480004 -0.480003,-0.800003 -0.479996,-0.799995 -0.319999,-0.480003 -0.160004,-0.32 -0.32,-0.479996 -0.160003,-0.480003 -0.32,-0.32 -0.32,-0.479996 L -85.440002,-88 l -0.32,-0.32 -0.64,-0.959999 -0.319999,-0.319999 -0.32,-0.480004 -0.32,-0.479996 -0.159996,-0.160003 -0.160003,-0.159996 -0.159996,-0.32 v -0.160004 L -88,-91.68 -88.160004,-91.839996 V -92 L -88.32,-92.32 v -0.160003 l -0.160003,-0.159996 v -0.32 -0.160004 l -0.159996,-0.319999 v -0.159996 -0.160004 -0.32 -0.159996 -0.160004 l 0.159996,-0.159996 v -0.319999 -0.160004 L -88.32,-95.199997 v -0.160004 l 0.159996,-0.159996 V -95.68 L -88,-95.839996 V -96 l 0.160004,-0.160004 L -87.68,-96.32 v -0.160003 h 0.160003 l 0.159996,-0.159996 0.160004,-0.160004 0.159996,-0.159996 0.160004,-0.160004 h 0.159996 l 0.160003,-0.159996 0.159996,-0.160003 h 0.32 l 0.160004,-0.159996 0.159996,-0.160004 h 0.160004 l 0.479995,-0.159996 0.480004,-0.160004 0.479995,-0.159996 0.480004,-0.160004 0.319999,-0.159996 0.480004,-0.160003 0.479995,-0.159996 h 0.480004 l 0.32,-0.160004 0.479995,-0.159996 h 0.480004 L -80.32,-99.360001 H -80 l 0.480003,-0.159996 h 0.32 L -78.720001,-99.68 h 0.319999 0.160004 0.32 0.159996 0.160004 0.479995 0.32 l 0.480003,0.160003 h 0.480004 l 0.479995,0.159996 h 0.32 l 0.480003,0.160004 0.479996,0.159996 0.480004,0.160004 0.479995,0.159996 0.480004,0.160003 0.479995,0.159996 0.320008,0.160004 0.479995,0.32 0.480004,0.159996 0.319999,0.160004 0.479996,0.319999 0.32,0.159996 0.480003,0.160004 0.32,0.32 0.479996,0.159996 0.800003,0.640007 0.800003,0.479995 0.799995,0.480004 0.800003,0.479995 0.799996,0.64 0.800003,0.480003 0.799999,0.479996 0.799999,0.639999 0.800003,0.480004 0.799999,0.639999 0.64,0.639999 0.799999,0.480004 0.799999,0.639999 0.800003,0.64 0.64,0.479995 1.599998,1.280007 1.440003,1.119995 1.599998,1.279999 1.439999,1.120002 1.440002,1.279999 1.599999,1.279999 1.439998,1.280006 1.440003,1.119995 1.439998,1.279999 1.440003,1.280007 1.439998,1.279998 1.439999,1.279999 1.440003,1.279999 1.439998,1.279999 1.439999,1.279999 1.440002,1.279998 1.439999,1.280007 1.44,1.279999 1.440001,1.439994 1.439999,1.280003 1.28,1.280003 1.440001,1.279998 1.439998,1.439999 1.440001,1.280003 1.280001,1.279998 1.439998,1.439999 1.440001,1.280003 1.28,1.439998 1.44,1.279999 1.28,1.440002 1.44,1.279999 1.28,1.439999 1.28,1.280002 1.44,1.439999 1.28,1.439999 1.28,1.440002 1.44,1.279999 1.28,1.439998 1.28,1.440003 1.28,1.439999 1.28,1.439998 1.28,1.440003 1.28,1.439998 1.28,1.440001"
         style="fill:none;stroke:#000000;stroke-width:1.92;stroke-linecap:round;stroke-linejoin:round;stroke-miterlimit:10;stroke-dasharray:none;stroke-opacity:1"
         id="path1479" /></g><g
       id="g1481"
       transform="translate(796.47998,560.96002)"><path
         d="m 0,0 1.28,1.44 1.28,1.44 1.28,1.44 1.28,1.44 1.28,1.6 1.12,1.44 1.28,1.44 1.28,1.44 1.12,1.6"
         style="fill:none;stroke:#000000;stroke-width:1.92;stroke-linecap:round;stroke-linejoin:round;stroke-miterlimit:10;stroke-dasharray:none;stroke-opacity:1"
         id="path1483" /></g><g
       id="g1485"
       transform="translate(836,601.12)"><path
         d="m 0,0 1.76,1.28 1.76,1.28 1.6,1.28 1.76,1.28 1.76,1.28 1.76,1.28 1.6,1.28 1.76,1.28 1.6,1.28 1.760001,1.28 1.599998,1.28 1.760001,1.44 1.6,1.279999 1.6,1.440001 1.760001,1.28 1.6,1.439999 L 27.84,21.6 28.639999,22.24 29.440001,23.040001 30.24,23.68 31.040001,24.48 31.84,25.120001 32.639999,25.76 l 0.8,0.799999 0.800003,0.640002 L 35.040001,28 35.84,28.639999 l 0.799999,0.800002 0.8,0.639999 0.640003,0.799999 0.799999,0.640001 0.799999,0.8 0.8,0.639999 0.799999,0.799999 0.800003,0.800003 0.639999,0.64 L 43.52,36 l 0.8,0.799999 0.799999,0.64 0.639999,0.800003 0.800003,0.799999 0.8,0.639999 0.639999,0.8 0.799999,0.799999 0.64,0.800003 0.800003,0.799999 0.799999,0.639999 0.639999,0.8 0.8,0.799999 0.639999,0.799999 0.799999,0.800003 0.640003,0.799999 0.8,0.64 L 56,48.959999 l 0.639999,0.799999 0.8,0.800003 0.640003,0.8 0.639999,0.799999 0.799999,0.799999 0.64,0.799999 0.639999,0.800003 0.799999,0.8 0.640004,0.799999 0.639999,0.799999 0.639999,0.799999 0.640004,0.800003 0.639999,0.8 0.799995,0.799999 0.64,0.799999 0.639999,0.799999 0.64,0.800003 0.640007,0.8 1.279998,1.760002 1.279999,1.599998 1.119995,1.599999 1.280007,1.760002 1.279999,1.599998 1.119995,1.599999 1.280006,1.760002 1.119995,1.599998 1.279999,1.760003 L 80.32,80 l 0.639999,0.800003 0.32,0.479996 0.319999,0.480003 0.160004,0.32 0.32,0.479996 0.639999,0.800003 0.959999,1.760002 0.64,0.799995 0.480003,0.959999 0.639999,0.800003 0.159996,0.480004 0.32,0.319999 0.32,0.479996 0.32,0.32 0.319999,0.480003 0.32,0.32 0.32,0.479996 L 87.68,91.040001 87.839996,91.199997 88,91.360001 88.160004,91.68 v 0.159996 L 88.32,92.160004 88.480003,92.32 v 0.319999 l 0.159996,0.160004 v 0.32 0.159996 l 0.160004,0.319999 v 0.160004 0.32 0.159996 0.32 l -0.160004,0.160003 v 0.32 l -0.159996,0.159996 v 0.32 L 88.32,95.68 V 96 L 88.160004,96.160004 88,96.32 87.839996,96.639999 87.68,96.800003 l -0.319999,0.159996 -0.160004,0.160004 -0.159996,0.159996 -0.160004,0.160003 -0.319999,0.159996 -0.159996,0.160004 h -0.32 l -0.160004,0.159996 -0.32,0.160004 h -0.159996 l -0.319999,0.159996 -0.480004,0.160004 -0.479995,0.159996 -0.480004,0.160003 -0.639999,0.159996 -0.480003,0.160004 -0.479996,0.159996 -0.480004,0.160004 -0.639999,0.159996 H 80.480003 L 80,99.68 h -0.32 l -0.160003,0.159996 h -0.32 -0.32 -0.159996 -0.319999 L 78.239998,100 h -0.32 -0.32 l -0.159996,-0.160004 h -0.319999 -0.32 H 76.639999 76.32 L 76,99.68 h -0.160004 l -0.479995,-0.160003 h -0.64 l -0.480003,-0.159996 -0.479996,-0.160004 -0.480003,-0.159996 -0.479996,-0.32 -0.480003,-0.160003 -0.480004,-0.159996 -0.479995,-0.32 -0.480004,-0.160004 -0.479995,-0.32 -0.480004,-0.159996 -0.479996,-0.319999 -0.480003,-0.160004 -0.32,-0.32 L 68.160004,96.32 67.199997,95.839996 66.400002,95.199997 65.440002,94.720001 64.639999,94.080002 63.68,93.440002 62.880001,92.800003 61.919998,92.32 61.119999,91.68 60.32,91.040001 l -0.959999,-0.639999 -0.8,-0.64 -0.800003,-0.639999 -0.799999,-0.64 L 56,87.68 55.200001,87.040001 54.400002,86.400002 53.599998,85.760002 51.84,84.480003 50.240002,83.040001 48.639999,81.760002 47.040001,80.32 45.439999,78.879997 43.68,77.599998 42.080002,76.160004 40.48,74.720001 38.880001,73.279999 37.279999,72 35.68,70.559998 34.240002,69.120003 32.639999,67.68 l -1.599998,-1.440002 -1.6,-1.439995 L 27.84,63.360001 26.4,61.919998 24.799999,60.32 23.200001,58.880001 21.76,57.439999 20.16,56 18.559999,54.400002 17.120001,52.959999 15.52,51.52 14.08,49.919998 12.64,48.48 11.04,46.880001 9.6,45.439999 8.16,43.84 6.72,42.240002 5.12,40.799999 3.68,39.200001 2.24,37.599998 0.8,36 -0.64,34.400002 -2.08,32.959999 -3.52,31.360001 -4.8,29.76 l -1.44,-1.6 -1.44,-1.600001 -1.44,-1.76 L -10.4,23.200001 -11.84,21.6 -13.12,20 l -1.44,-1.6 -1.28,-1.760001"
         style="fill:none;stroke:#000000;stroke-width:1.92;stroke-linecap:round;stroke-linejoin:round;stroke-miterlimit:10;stroke-dasharray:none;stroke-opacity:1"
         id="path1487" /></g><g
       id="g1489"
       transform="translate(791.84003,590.88)"><path
         d="m 0,0 -1.76,-1.28 -1.6,-1.28 -1.76,-1.28 -1.76,-1.28 -1.76,-1.28 -1.6,-1.28 -1.76,-1.28 -1.6,-1.28 -1.76,-1.28 -1.599999,-1.28 -1.76,-1.44 -1.600001,-1.28 -1.76,-1.279999 -1.6,-1.440001 -1.600001,-1.28 -1.599998,-1.439999 L -27.68,-21.6 l -0.8,-0.8 -0.960001,-0.640001 L -30.24,-23.68 -31.040001,-24.48 -31.84,-25.120001 -32.639999,-25.92 l -0.8,-0.639999 -0.800003,-0.640002 L -34.880001,-28 -35.68,-28.639999 l -0.8,-0.800002 -0.799999,-0.639999 -0.800003,-0.799999 -0.799999,-0.640001 -0.799999,-0.8 -0.8,-0.799999 -0.639999,-0.639999 -0.799999,-0.800003 -0.800003,-0.64 L -43.52,-36 l -0.64,-0.799999 -0.799999,-0.64 -0.799999,-0.800003 -0.800003,-0.799999 -0.64,-0.799999 L -48,-40.48 l -0.639999,-0.799999 -0.8,-0.800003 -0.800003,-0.799999 -0.639999,-0.639999 -0.799999,-0.8 -0.64,-0.799999 -0.799999,-0.799999 -0.639999,-0.800003 -0.800003,-0.799999 -0.64,-0.8 L -56,-48.959999 l -0.639999,-0.799999 -0.64,-0.800003 -0.800003,-0.8 -0.639999,-0.799999 -0.64,-0.799999 -0.799999,-0.799999 -0.639999,-0.800003 -0.64,-0.8 -0.640003,-0.799999 -0.799999,-0.799999 -0.639999,-0.799999 -0.640004,-0.800003 -0.639999,-0.8 -0.639999,-0.799999 -0.64,-0.799999 -0.639999,-0.799999 -0.64,-0.960003 L -68,-63.52 l -1.279999,-1.600003 -1.279999,-1.599998 -1.279998,-1.599999 -1.280007,-1.760002 -1.119995,-1.599998 -1.279999,-1.760002 -1.280006,-1.599999 -1.119995,-1.599998 -1.279999,-1.760003 L -80.32,-80 l -0.639999,-0.800003 -0.160004,-0.479996 -0.319999,-0.480003 -0.32,-0.32 -0.32,-0.479996 -0.479996,-0.800003 -1.120002,-1.760002 -0.480004,-0.799995 -0.639999,-0.959999 -0.479996,-0.800003 -0.319999,-0.480004 -0.32,-0.319999 -0.32,-0.479996 -0.32,-0.32 -0.319999,-0.480003 -0.32,-0.479996 -0.160004,-0.32 -0.319999,-0.480003 -0.159996,-0.159996 -0.160004,-0.32 V -91.68 L -88.160004,-91.839996 -88.32,-92.160004 V -92.32 l -0.160003,-0.319999 v -0.160004 l -0.159996,-0.32 v -0.159996 -0.319999 -0.160004 -0.32 -0.159996 -0.32 -0.319999 -0.160004 l 0.159996,-0.32 v -0.159996 L -88.32,-95.839996 -88.160004,-96 -88,-96.160004 l 0.160004,-0.319999 0.159996,-0.159996 0.160003,-0.160004 0.159996,-0.159996 0.160004,-0.160004 0.159996,-0.159996 0.32,-0.160003 0.160003,-0.159996 0.32,-0.160004 0.159996,-0.159996 h 0.32 l 0.160004,-0.160004 0.319999,-0.159996 h 0.159996 l 0.480004,-0.160004 0.639999,-0.159996 0.480003,-0.160003 0.479996,-0.159996 0.480003,-0.160004 0.479996,-0.159996 0.64,-0.160004 0.480003,-0.159996 0.479996,-0.160003 H -80 l 0.32,-0.159996 h 0.319999 0.160004 0.32 L -78.559998,-100 h 0.159996 0.32 0.32 0.160004 0.319999 0.159996 l 0.32,0.160004 h 0.32 H -76.32 -76 l 0.32,0.159996 h 0.480003 l 0.479996,0.160003 0.480003,0.159996 0.479996,0.160004 0.480003,0.159996 0.479996,0.160004 0.480003,0.319999 0.480004,0.159996 0.479995,0.160004 0.480004,0.32 0.479995,0.159996 0.480004,0.32 0.479996,0.160003 0.480003,0.32 0.479996,0.32 0.480003,0.159996 0.800003,0.640007 0.959999,0.479995 0.799996,0.64 0.959999,0.639999 0.800003,0.64 0.959999,0.480003 0.800003,0.639999 0.799999,0.64 0.959999,0.639999 0.799999,0.639999 0.8,0.64 0.960003,0.639999 0.799999,0.64 0.799999,0.640007 0.799999,0.799995 0.959999,0.639999 0.800003,0.64 1.599999,1.279999 1.599998,1.440002 1.760002,1.279999 1.599999,1.440002 1.600002,1.279999 1.599999,1.440003 1.599998,1.439994 1.600002,1.440003 1.599999,1.279999 1.600002,1.440002 1.599999,1.440002 1.599998,1.439995 1.600002,1.440003 1.600001,1.440002 1.439998,1.439995 1.600001,1.440002 1.6,1.440003 1.600001,1.439998 1.439998,1.599999 1.600001,1.440002 1.44,1.439999 1.600001,1.439999 1.439998,1.600002 1.600001,1.439999 1.44,1.600002 1.6,1.439998 1.44,1.599999 1.44,1.440002 1.6,1.599999 1.44,1.599998 1.44,1.440003 1.44,1.599998 1.44,1.600003 L -0.8,-36 l 1.44,1.439999 1.44,1.600002 1.44,1.599998 1.44,1.600001 1.44,1.6 1.28,1.600001 1.44,1.6 1.44,1.759998 1.28,1.600001 1.44,1.6 1.28,1.6 1.44,1.760001"
         style="fill:none;stroke:#000000;stroke-width:1.92;stroke-linecap:round;stroke-linejoin:round;stroke-miterlimit:10;stroke-dasharray:none;stroke-opacity:1"
         id="path1491" /></g><g
       id="g1493"
       transform="translate(910.56,850.71997)"><path
         d="M 0,0 -0.48,0.16 -0.96,0.32 -1.44,0.48 -1.76,0.64 -2.24,0.8 -2.72,1.12 -3.2,1.28 -3.52,1.44 -4,1.6 -4.32,1.92 -4.8,2.08 -5.12,2.4 -5.6,2.56 l -0.48,0.32 -0.8,0.48 -0.8,0.48 -0.8,0.48 -0.8,0.48 -0.8,0.64 -0.8,0.48 -0.8,0.64 -0.8,0.48 -0.64,0.64 -0.8,0.48 -0.8,0.64 -0.8,0.48 -0.8,0.64 -0.639999,0.64 -0.800001,0.48 -1.600001,1.28 -1.439998,1.12 L -22.24,14.72 -23.84,16 -25.280001,17.120001 -26.719999,18.4 -28.16,19.68 l -1.6,1.279999 -1.440001,1.120001 -1.439998,1.280001 -1.440003,1.279998 L -35.52,25.92 -36.959999,27.200001 -38.400002,28.48 -39.84,29.76 -41.279999,31.040001 -42.720001,32.32 -44.16,33.759998 -45.439999,35.040001 -46.880001,36.32 -48.32,37.599998 -49.759998,38.880001 -51.200001,40.32 -52.48,41.599998 l -1.439998,1.280003 -1.440003,1.439999 -1.279998,1.279998 -1.440003,1.440003 -1.279999,1.279999 -1.439998,1.439998 -1.280003,1.280003 L -63.52,52.48 l -1.280003,1.439998 -1.279999,1.280003 -1.439995,1.439998 -1.280006,1.440003 -1.279999,1.439998 -1.279999,1.279999 -1.440002,1.440003 -1.279999,1.439998 -1.279999,1.440003 -1.279998,1.439995 L -77.919998,68 l -1.279999,1.440002 -1.280006,1.439995 -1.279999,1.440003 -1.279999,1.440002 -1.120003,1.439995 -1.279998,1.600006 -1.279999,1.439995 L -88,79.68 l -1.120003,1.440003 -1.279999,1.599998"
         style="fill:none;stroke:#000000;stroke-width:1.92;stroke-linecap:round;stroke-linejoin:round;stroke-miterlimit:10;stroke-dasharray:none;stroke-opacity:1"
         id="path1495" /></g><g
       id="g1497"><path
         d="m 912.32001,850.40002 h -0.47998 l -0.32001,0.15998 -0.48004,0.15997 H 910.56"
         style="fill:none;stroke:#000000;stroke-width:1.92;stroke-linecap:round;stroke-linejoin:round;stroke-miterlimit:10;stroke-dasharray:none;stroke-opacity:1"
         id="path1499" /></g><g
       id="g1501"
       transform="translate(924.47998,854.71997)"><path
         d="M 0,0 -0.16,-0.16 V -0.32 L -0.32,-0.48 V -0.64 L -0.48,-0.8 -0.64,-0.96 V -1.12 H -0.8 L -0.96,-1.28 -1.12,-1.44 -1.28,-1.6 -1.44,-1.76 H -1.6 L -1.76,-1.92 -1.92,-2.08 -2.08,-2.24 H -2.24 L -2.4,-2.4 H -2.72 L -2.88,-2.56 -3.36,-2.72 -3.68,-2.88 -4.16,-3.04 -4.64,-3.2 -5.12,-3.36 -5.6,-3.52 H -6.08 L -6.4,-3.68 -6.88,-3.84 -7.36,-4 H -7.68 L -8.16,-4.16 H -8.48 L -8.96,-4.32 H -9.28 L -9.6,-4.48 h -0.48 -0.16 -0.16 -0.32 -0.16 -0.32 l -0.48,0.16 h -0.48"
         style="fill:none;stroke:#000000;stroke-width:1.92;stroke-linecap:round;stroke-linejoin:round;stroke-miterlimit:10;stroke-dasharray:none;stroke-opacity:1"
         id="path1503" /></g><g
       id="g1505"
       transform="translate(836,949.91998)"><path
         d="m 0,0 1.76,-1.12 1.6,-1.28 1.76,-1.28 1.6,-1.12 1.76,-1.28 1.6,-1.28 1.76,-1.28 1.6,-1.28 1.76,-1.28 1.599999,-1.28 1.600001,-1.28 1.6,-1.28 1.76,-1.44 1.600001,-1.28 1.599998,-1.280001 1.6,-1.439999 1.600001,-1.28 1.6,-1.440001 L 30.559999,-23.84 31.360001,-24.48 32.16,-25.280001 32.799999,-25.92 33.599998,-26.559999 34.400002,-27.360001 35.200001,-28 36,-28.799999 l 0.799999,-0.640002 0.64,-0.639999 0.800003,-0.799999 0.799999,-0.640001 0.799999,-0.8 0.799999,-0.639999 0.64,-0.799999 0.800003,-0.640004 0.799999,-0.799999 L 43.52,-35.84 l 0.8,-0.799999 0.799999,-0.8 0.639999,-0.640003 0.800003,-0.799999 0.64,-0.639999 0.799999,-0.8 0.639999,-0.799999 0.8,-0.639999 0.640003,-0.800003 0.799999,-0.8 L 51.52,-44.16 l 0.8,-0.639999 0.639999,-0.799999 0.799999,-0.800004 0.640004,-0.799999 0.639999,-0.639999 0.799999,-0.799999 0.64,-0.8 0.639999,-0.800003 0.799999,-0.799999 0.640003,-0.799999 0.64,-0.64 0.639999,-0.799999 0.64,-0.800003 0.799999,-0.799999 0.639999,-0.799999 0.640003,-0.8 0.64,-0.799999 0.639999,-0.800003 0.640003,-0.799999 0.64,-0.799999 0.639999,-0.8 0.64,-0.799999 0.639999,-0.800003 L 68.32,-63.68 l 1.279998,-1.599999 1.279999,-1.599998 1.280007,-1.600006 0.479995,-0.799996 0.64,-0.800003 1.279999,-1.759994 0.480003,-0.800003 0.639999,-0.800003 0.64,-0.799996 0.319999,-0.480003 0.32,-0.32 0.160004,-0.479996 0.319999,-0.319999 0.64,-0.800003 0.159996,-0.480004 0.32,-0.319999 0.319999,-0.479996 0.32,-0.480004 0.639999,-0.799995 L 80.32,-80 l 0.639999,-0.800003 0.32,-0.479996 0.319999,-0.319999 0.160004,-0.480004 0.32,-0.479996 0.32,-0.319999 0.159996,-0.480004 0.480003,-0.800003 0.479996,-0.799995 0.319999,-0.480003 0.160004,-0.32 0.32,-0.479996 0.319999,-0.32 0.32,-0.480003 0.160004,-0.479996 0.319999,-0.319999 0.32,-0.480004 0.799996,-0.800003 0.319999,-0.479995 0.32,-0.480004 0.160004,-0.479996 0.159996,-0.160003 0.160003,-0.159996 0.159996,-0.32 L 88,-91.360001 v -0.159996 L 88.160004,-91.839996 88.32,-92 v -0.160004 l 0.160003,-0.319999 v -0.159996 -0.32 l 0.159996,-0.160004 v -0.159996 -0.319999 -0.160004 -0.159996 -0.32 -0.160004 -0.159996 l -0.159996,-0.160003 v -0.32 -0.159996"
         style="fill:none;stroke:#000000;stroke-width:1.92;stroke-linecap:round;stroke-linejoin:round;stroke-miterlimit:10;stroke-dasharray:none;stroke-opacity:1"
         id="path1507" /></g><g
       id="g1509"
       transform="translate(717.28003,1059.6801)"><path
         d="M 0,0 0.48,-0.16 0.96,-0.32 1.44,-0.48 1.92,-0.64 2.4,-0.8 2.72,-0.96 3.2,-1.28 3.68,-1.44 4,-1.6 4.48,-1.92 4.8,-2.08 5.28,-2.24 5.6,-2.56 l 0.48,-0.16 0.8,-0.64 0.8,-0.48 0.8,-0.48 0.8,-0.48 0.8,-0.64 0.8,-0.48 0.8,-0.48 0.8,-0.64 0.8,-0.48 0.8,-0.64 0.64,-0.64 0.8,-0.48 0.8,-0.64 0.800001,-0.64 0.639999,-0.48 1.600001,-1.28 1.439998,-1.12 1.600001,-1.28 1.44,-1.12 1.440001,-1.280001 L 26.879999,-18.4 28.32,-19.68 29.76,-20.799999 31.200001,-22.08 32.639999,-23.360001 34.080002,-24.639999 35.52,-25.92 36.959999,-27.200001 38.400002,-28.48 39.84,-29.76 41.279999,-31.040001 42.720001,-32.32 44.16,-33.599998 45.599998,-35.040001 47.040001,-36.32 48.32,-37.599998 l 1.439998,-1.280003 1.440003,-1.439999 1.439998,-1.279998 1.279999,-1.280003 1.440003,-1.439999 1.439998,-1.279998 1.280003,-1.440003 L 59.52,-48.32 60.799999,-49.759998 62.240002,-51.040001 63.52,-52.48 l 1.280003,-1.279998 1.439995,-1.440003 1.279999,-1.439998 1.280006,-1.440003 1.439995,-1.279999 1.279999,-1.439998 1.280006,-1.440003 1.279999,-1.439998 1.279999,-1.440003 1.279998,-1.439995 L 77.919998,-68 l 1.279999,-1.440002 1.280006,-1.439995 1.279999,-1.440003 1.279999,-1.440002 1.279999,-1.439995 1.279998,-1.600006 1.120003,-1.439995 L 88,-79.68 l 1.279999,-1.440003 1.120003,-1.599998"
         style="fill:none;stroke:#000000;stroke-width:1.92;stroke-linecap:round;stroke-linejoin:round;stroke-miterlimit:10;stroke-dasharray:none;stroke-opacity:1"
         id="path1511" /></g><g
       id="g1513"><path
         d="M 715.52002,1060 H 716 l 0.47998,-0.16 h 0.32001 l 0.48004,-0.1599"
         style="fill:none;stroke:#000000;stroke-width:1.92;stroke-linecap:round;stroke-linejoin:round;stroke-miterlimit:10;stroke-dasharray:none;stroke-opacity:1"
         id="path1515" /></g><g
       id="g1517"
       transform="translate(703.52002,1055.6801)"><path
         d="M 0,0 V 0.16 L 0.16,0.32 V 0.48 L 0.32,0.64 V 0.8 L 0.48,0.96 0.64,1.12 V 1.28 H 0.8 L 0.96,1.44 1.12,1.6 1.28,1.76 1.44,1.92 H 1.6 L 1.76,2.08 1.92,2.24 H 2.24 L 2.4,2.4 2.56,2.56 H 2.72 L 3.2,2.72 3.68,2.88 4.16,3.04 4.64,3.2 4.96,3.36 5.44,3.52 5.92,3.68 H 6.4 L 6.72,3.84 7.2,4 H 7.68 L 8,4.16 H 8.32 L 8.8,4.32 H 9.12 L 9.6,4.48 h 0.32 0.16 0.32 0.16 0.16 0.48 0.32 L 12,4.32"
         style="fill:none;stroke:#000000;stroke-width:1.92;stroke-linecap:round;stroke-linejoin:round;stroke-miterlimit:10;stroke-dasharray:none;stroke-opacity:1"
         id="path1519" /></g><g
       id="g1521"
       transform="translate(791.84003,960.47998)"><path
         d="m 0,0 -1.6,1.12 -1.76,1.28 -1.6,1.28 -1.76,1.28 -1.76,1.12 -1.6,1.28 -1.6,1.28 -1.76,1.28 -1.6,1.28 -1.759999,1.28 -1.600001,1.28 -1.6,1.44 -1.6,1.28 -1.600001,1.28 -1.599998,1.440001 L -26.4,20.48 -28,21.76 -29.6,23.200001 -30.4,23.84 -31.200001,24.639999 -32,25.280001 -32.799999,25.92 -33.599998,26.719999 -34.400002,27.360001 -35.200001,28 -35.84,28.799999 l -0.799999,0.640002 -0.8,0.799999 -0.800003,0.639999 -0.799999,0.800001 -0.639999,0.64 -0.8,0.639999 -0.799999,0.799999 -0.800003,0.800003 -0.639999,0.64 L -43.52,36 l -0.8,0.639999 -0.639999,0.8 -0.799999,0.640003 -0.640004,0.799999 -0.799999,0.799999 -0.639999,0.64 -0.799999,0.799999 -0.8,0.799999 -0.640003,0.640003 -0.799999,0.8 L -51.52,44.16 l -0.64,0.639999 -0.799999,0.799999 -0.639999,0.800004 -0.800004,0.799999 L -55.040001,48 -55.68,48.639999 l -0.8,0.8 -0.639999,0.800003 -0.639999,0.799999 -0.640004,0.799999 -0.799999,0.799999 -0.639999,0.8 -0.64,0.640003 -0.639999,0.799999 -0.639999,0.799999 -0.800003,0.8 -0.64,0.799999 -0.639999,0.800003 -0.640003,0.799999 -0.64,0.799999 -0.639999,0.8 -0.64,0.799999 -0.639999,0.800003 L -68.32,63.68 -69.599998,65.279999 -70.720001,66.879997 -72,68.480003 l -0.639999,0.799996 -0.64,0.959999 -1.120003,1.599998 -0.639999,0.800003 -0.639999,0.800003 -0.64,0.799996 -0.160003,0.480003 -0.32,0.32 -0.32,0.479996 -0.319999,0.319999 -0.479996,0.800003 -0.32,0.480004 -0.32,0.479995 -0.319999,0.32 -0.160004,0.480004 L -79.68,79.199997 -80.32,80 l -0.639999,0.800003 -0.32,0.479996 -0.160003,0.480003 -0.32,0.32 -0.32,0.479996 -0.159996,0.319999 -0.32,0.480004 -0.480003,0.800003 -0.479996,0.799995 -0.319999,0.480003 -0.160004,0.32 -0.32,0.479996 -0.160003,0.480003 -0.32,0.32 -0.32,0.479996 L -85.440002,88 l -0.32,0.32 -0.64,0.959999 -0.319999,0.319999 -0.32,0.480004 -0.32,0.479996 -0.159996,0.160003 -0.160003,0.159996 -0.159996,0.32 v 0.160004 L -88,91.68 -88.160004,91.839996 V 92 L -88.32,92.32 v 0.160003 l -0.160003,0.159996 v 0.32 0.160004 l -0.159996,0.319999 v 0.159996 0.160004 0.32 0.159996 0.160004 l 0.159996,0.159996 v 0.319999 0.160004 L -88.32,95.199997"
         style="fill:none;stroke:#000000;stroke-width:1.92;stroke-linecap:round;stroke-linejoin:round;stroke-miterlimit:10;stroke-dasharray:none;stroke-opacity:1"
         id="path1523" /></g><g
       id="g1525"
       transform="translate(820.15997,933.44)"><path
         d="m 0,0 1.28,-1.76 1.44,-1.6 1.28,-1.6 1.44,-1.6 1.44,-1.6 1.28,-1.76 1.44,-1.6 1.44,-1.6 1.44,-1.6 1.28,-1.6 1.44,-1.6 1.439999,-1.440001 1.440001,-1.599998 1.44,-1.6 1.600001,-1.600001 1.439998,-1.6 L 24,-27.200001 25.440001,-28.799999 26.879999,-30.24 28.48,-31.84 l 1.44,-1.599999 1.6,-1.440002 L 32.959999,-36.32 34.560001,-37.919998 36,-39.360001 37.599998,-40.799999 39.040001,-42.400002 40.639999,-43.84 42.240002,-45.279999 43.68,-46.720001 45.279999,-48.16 46.880001,-49.599998 48.48,-51.040001 50.080002,-52.48 51.68,-53.919998 53.279999,-55.360001 54.880001,-56.799999 56.48,-58.240002 58.080002,-59.52 59.68,-60.959999 l 1.599999,-1.440003 1.600002,-1.279998 1.600002,-1.440003 1.599999,-1.279999 1.759994,-1.439994 1.600006,-1.280007 0.799996,-0.639999 0.800003,-0.799996 L 72,-71.199997 l 0.800003,-0.639999 0.799995,-0.640007 0.800004,-0.64 0.959999,-0.639999 0.800003,-0.64 0.799995,-0.639999 0.959999,-0.639999 0.800003,-0.64 0.799996,-0.639999 0.960006,-0.480003 0.799996,-0.64 0.959999,-0.639999 0.480003,-0.32 0.32,-0.159996 0.479996,-0.32 L 84,-79.839996 84.480003,-80 l 0.479996,-0.32 0.480003,-0.319999 0.32,-0.160004 0.479996,-0.32 0.480003,-0.159996 0.479996,-0.319999 0.480003,-0.160004 0.480004,-0.159996 0.479995,-0.32 0.480004,-0.160004 0.479995,-0.159996 0.64,-0.160003 0.480003,-0.159996 h 0.479996 L 91.68,-83.040001 H 92 l 0.160004,-0.159996 h 0.319999 0.32 0.159996 0.32 l 0.160003,-0.160004 h 0.32 0.32 l 0.159996,0.160004 h 0.32 0.319999 0.160004 0.32 L 95.68,-83.040001 h 0.159996 l 0.640007,0.160004 h 0.479996 l 0.480003,0.159996 0.479996,0.160003 0.480004,0.159996 0.639999,0.160004 0.479996,0.159996 0.480003,0.160004 0.48,0.159996 h 0.32 l 0.16,0.160004 0.32,0.159996 h 0.16 l 0.32,0.160003 0.16,0.159996 h 0.32 l 0.16,0.160004 0.32,0.159996 0.16,0.160004 0.16,0.159996 0.32,0.160003 0.16,0.159996 0.16,0.160004 0.16,0.32 0.16,0.160003 0.16,0.159996 v 0.32 l 0.16,0.160004 0.16,0.319999 v 0.159996 0.32 l 0.16,0.160004 v 0.32 0.159996 0.319999 0.32 l -0.16,0.160004 v 0.319999 0.159996 l -0.16,0.320008 V -75.68 l -0.16,0.319999 -0.16,0.160004 v 0.32 l -0.16,0.159996 -0.16,0.160003 -0.16,0.32 -0.16,0.32 -0.32,0.479996 -0.32,0.319999 -0.32,0.480004 -0.64,0.800003 -0.32,0.319999 -0.32,0.479996 -0.32,0.480003 -0.16,0.32 -0.32,0.479996 -0.32,0.480003 -0.32,0.32 -0.160003,0.479996 -0.479996,0.800003 -0.639999,0.959999 -0.160004,0.480003 -0.32,0.32 -0.32,0.479996 -0.159996,0.480003 -0.639999,0.799995 -0.639999,0.800003 -1.120003,1.600003 -0.639999,0.959999 -0.64,0.799999 -0.480003,0.799999 -0.64,0.799999 L 92,-57.439999 l -0.480003,0.8 -0.64,0.799999 -0.639999,0.799999 -0.64,0.959999 -0.639999,0.800003 -0.479996,0.799999 -0.640007,0.8 -1.279998,1.599998 L 85.279999,-48.48 84,-46.720001 l -0.639999,0.800003 -0.64,0.799999 -0.639999,0.799999 -0.64,0.8 -0.800003,0.799999 L 80,-41.919998 l -0.639999,0.799999 -0.64,0.799999 -0.639999,0.8 -0.64,0.799999 -0.800003,0.800003 L 76,-37.119999 75.360001,-36.32 l -0.800003,0.8 -0.64,0.799999 -0.639999,0.800003 -0.799996,0.799999 -0.640007,0.799999 -0.639999,0.8 -0.799995,0.800001 -0.64,0.639999 -0.800003,0.799999 L 68.32,-28.48 l -0.800003,0.8 -0.64,0.800001 -0.799995,0.799999 -0.800003,0.639999 -0.64,0.800002 L 63.84,-23.84 63.200001,-23.040001 62.400002,-22.4 61.599998,-21.6 60.959999,-20.799999 60.16,-20.16 l -0.799999,0.799999 -0.8,0.800002 L 57.919998,-17.92 57.119999,-17.120001 56.32,-16.32 l -0.8,0.64 -0.799999,0.8 -0.639999,0.64 -0.800003,0.8 -0.799999,0.64 -0.8,0.8 -0.799999,0.64 -0.799999,0.8 -0.800003,0.64 -0.799999,0.64 -0.8,0.8 -0.799999,0.64 -0.799999,0.8 -0.800003,0.64 -0.799999,0.64 -0.8,0.8 -0.799999,0.64 -1.600002,1.44 L 39.52,-1.6 37.919998,-0.16 36.32,1.12 34.560001,2.4 32.959999,3.84 31.200001,5.12 29.6,6.4 l -1.76,1.28 -1.6,1.28 -1.76,1.28 -1.760001,1.28 -1.599998,1.28 -1.76,1.28 L 17.6,15.36 15.84,16.639999"
         style="fill:none;stroke:#000000;stroke-width:1.92;stroke-linecap:round;stroke-linejoin:round;stroke-miterlimit:10;stroke-dasharray:none;stroke-opacity:1"
         id="path1527" /></g><g
       id="g1529"
       transform="translate(807.84003,976.96002)"><path
         d="m 0,0 -1.44,1.76 -1.28,1.6 -1.44,1.6 -1.28,1.6 -1.44,1.76 -1.44,1.6 -1.44,1.6 -1.28,1.6 -1.44,1.6 -1.44,1.6 -1.44,1.6 -1.439999,1.6 -1.440001,1.439999 -1.44,1.6 -1.440001,1.600001 -1.439998,1.6 L -24.16,27.200001 -25.6,28.799999 -27.040001,30.4 -28.48,31.84 l -1.6,1.599999 -1.44,1.440002 -1.599999,1.599999 -1.440002,1.439998 -1.599999,1.440003 -1.439998,1.599998 -1.600003,1.440003 L -40.799999,43.84 -42.240002,45.279999 -43.84,46.720001 -45.439999,48.32 -47.040001,49.759998 -48.48,51.200001 -50.080002,52.639999 -51.68,53.919998 -53.279999,55.360001 -54.880001,56.799999 -56.48,58.240002 -58.080002,59.68 -59.68,60.959999 l -1.599999,1.440003 -1.760002,1.439998 -1.599998,1.280003 -1.599999,1.439995 -1.599998,1.279998 -1.760002,1.280007 -0.800004,0.799995 -0.799995,0.64 L -72,71.199997 l -0.800003,0.639999 -0.959999,0.640007 -0.799996,0.64 -0.800003,0.639999 -0.959999,0.64 -0.800003,0.639999 -0.799995,0.639999 -0.959999,0.64 -0.800003,0.639999 -0.800003,0.480003 -0.959999,0.64 -0.799996,0.639999 -0.480003,0.32 -0.479996,0.32 -0.480003,0.159996 -0.480004,0.319999 -0.319999,0.320008 -0.479996,0.159996 -0.480003,0.319999 -0.479996,0.160004 -0.480004,0.32 -0.479995,0.159996 -0.480004,0.319999 -0.479995,0.160004 -0.480004,0.32 -0.480003,0.159996 -0.479996,0.160004 -0.480003,0.159996 -0.479996,0.160003 -0.480003,0.159996 -0.479996,0.160004 h -0.639999 L -92,83.199997 h -0.32 -0.319999 -0.160004 -0.32 l -0.159996,0.160004 h -0.319999 -0.32 -0.160004 -0.32 -0.319999 l -0.159996,-0.160004 h -0.32 -0.32 H -95.68 L -96,83.040001 h -0.480003 l -0.479996,-0.160004 -0.639999,-0.159996 -0.480004,-0.160003 -0.479996,-0.159996 -0.480003,-0.160004 -0.479996,-0.159996 -0.640003,-0.160004 -0.48,-0.159996 h -0.16 l -0.32,-0.160004 h -0.16 l -0.32,-0.159996 -0.32,-0.160003 h -0.16 l -0.32,-0.159996 -0.16,-0.160004 -0.16,-0.159996 -0.32,-0.160004 -0.16,-0.159996 L -103.36,80.32 -103.52,80.160004 -103.84,80 -104,79.68 v -0.160003 l -0.16,-0.159996 -0.16,-0.32 -0.16,-0.160004 v -0.319999 l -0.16,-0.159996 v -0.32 -0.160004 -0.32 -0.159996 -0.319999 -0.160004 -0.32 V 76.32 l 0.16,-0.159996 V 75.839996 L -104.32,75.68 v -0.160003 l 0.16,-0.32 0.16,-0.159996 v -0.32 l 0.16,-0.160003 0.16,-0.159996 0.32,-0.480004 0.32,-0.479996 0.32,-0.319999 0.16,-0.480004 0.64,-0.800003 0.32,-0.319999 0.32,-0.479996 0.32,-0.32 0.32,-0.480003 0.32,-0.479996 0.16,-0.32 0.320004,-0.480003 0.319999,-0.479996 0.479996,-0.800003 0.480003,-0.959999 0.32,-0.319999 0.159996,-0.480004 0.32,-0.479996 0.32,-0.319999 0.480003,-0.959999 0.639999,-0.800003 1.279999,-1.600003 0.480003,-0.799999 0.64,-0.959999 0.639999,-0.799999 0.479996,-0.799999 0.639999,-0.960003 0.640007,-0.8 0.479996,-0.799999 0.639999,-0.799999 0.64,-0.799999 0.639999,-0.800003 0.64,-0.959999 0.640007,-0.8 1.279998,-1.599998 L -85.279999,48.48 -84,46.880001 l 0.639999,-0.960003 0.64,-0.799999 0.639999,-0.799999 0.64,-0.8 0.639999,-0.799999 0.639999,-0.800003 0.640007,-0.799999 0.64,-0.799999 0.799995,-0.8 0.64,-0.799999 0.639999,-0.800003 0.639999,-0.799999 0.800003,-0.799999 0.64,-0.8 0.639999,-0.799999 0.800003,-0.800003 0.64,-0.799999 L -72,32.32 -71.199997,31.68 -70.559998,30.879999 -69.760002,30.08 -69.120003,29.280001 -68.32,28.48 l 0.64,-0.8 0.800003,-0.800001 0.639999,-0.639999 0.799996,-0.799999 0.639999,-0.800002 L -64,23.84 l 0.799999,-0.639999 0.64,-0.800001 0.800003,-0.8 0.799999,-0.800001 L -60.32,20.16 l 0.8,-0.799999 0.799999,-0.800002 L -57.919998,17.92 -57.279999,17.120001 -56.48,16.48 l 0.8,-0.8 0.799999,-0.64 0.799999,-0.8 0.800003,-0.8 0.799999,-0.64 0.64,-0.8 0.799999,-0.64 0.799999,-0.64 0.800003,-0.8 0.8,-0.64 0.799999,-0.8 0.799999,-0.64 0.799999,-0.8 0.800003,-0.64 0.8,-0.64 L -43.84,4.96 -42.880001,4.32 -41.279999,3.04 -39.68,1.6 -38.080002,0.32 -36.32,-1.12 l 1.599999,-1.28 1.760002,-1.44 1.599998,-1.28 1.760001,-1.28 1.6,-1.28 1.76,-1.28 1.600001,-1.28 1.76,-1.28 1.759998,-1.28 1.76,-1.28 1.600001,-1.28 1.76,-1.279999"
         style="fill:none;stroke:#000000;stroke-width:1.92;stroke-linecap:round;stroke-linejoin:round;stroke-miterlimit:10;stroke-dasharray:none;stroke-opacity:1"
         id="path1531" /></g><g
       id="g1533"
       transform="translate(385.12,700.47998)"><path
         d="M 0,0 0.48,-0.16 0.96,-0.32 1.44,-0.48 1.76,-0.64 2.24,-0.8 2.72,-1.12 3.2,-1.28 3.52,-1.44 4,-1.6 4.32,-1.92 4.8,-2.08 5.12,-2.4 5.6,-2.56 l 0.48,-0.32 0.8,-0.48 0.8,-0.48 0.8,-0.48 0.8,-0.48 0.8,-0.64 0.8,-0.48 0.8,-0.64 0.8,-0.48 0.64,-0.64 0.8,-0.48 0.8,-0.64 0.8,-0.48 0.8,-0.64 0.639999,-0.64 0.800001,-0.48 1.600001,-1.28 1.439998,-1.12 L 22.24,-14.72 23.84,-16 25.280001,-17.120001 26.719999,-18.4 28.16,-19.68 l 1.6,-1.279999 1.440001,-1.120001 1.439998,-1.280001 1.440003,-1.279998 L 35.52,-25.92 36.959999,-27.200001 38.400002,-28.48 39.84,-29.76 41.279999,-31.040001 42.720001,-32.32 44.16,-33.759998 45.439999,-35.040001 46.880001,-36.32 48.32,-37.599998 49.759998,-38.880001 51.200001,-40.32 52.48,-41.599998 l 1.439998,-1.280003 1.440003,-1.439999 1.279998,-1.279998 1.440003,-1.440003 1.279999,-1.279999 1.439998,-1.439998 1.280003,-1.280003 L 63.52,-52.48 l 1.280003,-1.439998 1.279999,-1.280003 1.439995,-1.439998 1.280006,-1.440003 1.279999,-1.439998 1.279999,-1.279999 1.440002,-1.440003 1.279999,-1.439998 1.279999,-1.440003 1.279998,-1.439995 L 77.919998,-68 l 1.279999,-1.440002 1.280006,-1.439995 1.279999,-1.440003 1.279999,-1.440002 1.120003,-1.439995 1.279998,-1.600006 1.279999,-1.439995 L 88,-79.68 l 1.120003,-1.440003 1.279999,-1.599998"
         style="fill:none;stroke:#000000;stroke-width:1.92;stroke-linecap:round;stroke-linejoin:round;stroke-miterlimit:10;stroke-dasharray:none;stroke-opacity:1"
         id="path1535" /></g><g
       id="g1537"><path
         d="M 383.35999,700.79999 H 383.84 l 0.32,-0.15998 0.48001,-0.16003 H 385.12"
         style="fill:none;stroke:#000000;stroke-width:1.92;stroke-linecap:round;stroke-linejoin:round;stroke-miterlimit:10;stroke-dasharray:none;stroke-opacity:1"
         id="path1539" /></g><g
       id="g1541"
       transform="translate(371.20001,696.47998)"><path
         d="M 0,0 0.16,0.16 V 0.32 L 0.32,0.48 V 0.64 L 0.48,0.8 0.64,0.96 V 1.12 H 0.8 L 0.96,1.28 1.12,1.44 1.28,1.6 1.44,1.76 H 1.6 L 1.76,1.92 1.92,2.08 2.08,2.24 H 2.24 L 2.4,2.4 H 2.72 L 2.88,2.56 3.36,2.72 3.68,2.88 4.16,3.04 4.64,3.2 5.12,3.36 5.6,3.52 H 6.08 L 6.4,3.68 6.88,3.84 7.36,4 H 7.68 L 8.16,4.16 H 8.48 L 8.96,4.32 H 9.28 L 9.6,4.48 h 0.48 0.16 0.16 0.32 0.16 0.32 l 0.48,-0.16 h 0.48"
         style="fill:none;stroke:#000000;stroke-width:1.92;stroke-linecap:round;stroke-linejoin:round;stroke-miterlimit:10;stroke-dasharray:none;stroke-opacity:1"
         id="path1543" /></g><g
       id="g1545"
       transform="translate(459.67999,601.28003)"><path
         d="m 0,0 -1.76,1.12 -1.6,1.28 -1.76,1.28 -1.6,1.12 -1.76,1.28 -1.6,1.28 -1.76,1.28 -1.6,1.28 -1.76,1.28 -1.599999,1.28 -1.600001,1.28 -1.6,1.28 -1.76,1.44 -1.600001,1.28 -1.599998,1.280001 -1.6,1.439999 -1.600001,1.28 -1.6,1.440001 L -30.559999,23.84 -31.360001,24.48 -32.16,25.280001 -32.799999,25.92 -33.599998,26.559999 -34.400002,27.360001 -35.200001,28 -36,28.799999 l -0.799999,0.640002 -0.64,0.639999 -0.800003,0.799999 -0.799999,0.640001 -0.799999,0.8 -0.799999,0.639999 -0.64,0.799999 -0.800003,0.640004 -0.799999,0.799999 L -43.52,35.84 l -0.8,0.799999 -0.799999,0.8 -0.639999,0.640003 -0.800003,0.799999 -0.64,0.639999 -0.799999,0.8 -0.639999,0.799999 -0.8,0.639999 -0.640003,0.800003 -0.799999,0.8 L -51.52,44.16 l -0.8,0.639999 -0.639999,0.799999 -0.799999,0.800004 -0.640004,0.799999 -0.639999,0.639999 -0.799999,0.799999 -0.64,0.8 -0.639999,0.800003 -0.799999,0.799999 -0.640003,0.799999 -0.64,0.64 -0.639999,0.799999 -0.64,0.800003 -0.799999,0.799999 -0.639999,0.799999 -0.640003,0.8 -0.64,0.799999 -0.639999,0.800003 -0.640003,0.799999 -0.64,0.799999 -0.639999,0.8 -0.64,0.799999 -0.639999,0.800003 L -68.32,63.68 l -1.279998,1.599999 -1.279999,1.599998 -1.280007,1.600006 -0.479995,0.799996 -0.64,0.800003 -1.279999,1.759994 -0.480003,0.800003 -0.639999,0.800003 -0.64,0.799996 -0.319999,0.480003 -0.32,0.32 -0.160004,0.479996 -0.319999,0.319999 -0.64,0.800003 -0.159996,0.480004 -0.32,0.319999 -0.319999,0.479996 -0.32,0.480004 -0.639999,0.799995 L -80.32,80 l -0.639999,0.800003 -0.32,0.479996 -0.319999,0.319999 -0.160004,0.480004 -0.32,0.479996 -0.32,0.319999 -0.159996,0.480004 -0.480003,0.800003 -0.479996,0.799995 -0.319999,0.480003 -0.160004,0.32 -0.32,0.479996 -0.319999,0.32 -0.32,0.480003 -0.160004,0.479996 -0.319999,0.319999 -0.32,0.480004 -0.799996,0.800003 -0.319999,0.479995 -0.32,0.480004 -0.160004,0.479996 -0.159996,0.160003 -0.160003,0.159996 -0.159996,0.32 L -88,91.360001 v 0.159996 L -88.160004,91.839996 -88.32,92 v 0.160004 l -0.160003,0.319999 v 0.159996 0.32 l -0.159996,0.160004 v 0.159996 0.319999 0.160004 0.159996 0.32 0.160004 0.159996 l 0.159996,0.160003 v 0.32 0.159996"
         style="fill:none;stroke:#000000;stroke-width:1.92;stroke-linecap:round;stroke-linejoin:round;stroke-miterlimit:10;stroke-dasharray:none;stroke-opacity:1"
         id="path1547" /></g><g
       id="g1549"
       transform="translate(578.40002,491.51999)"><path
         d="M 0,0 -0.48,0.16 -0.96,0.32 -1.44,0.48 -1.92,0.64 -2.4,0.8 -2.72,0.96 -3.2,1.28 -3.68,1.44 -4,1.6 -4.48,1.92 -4.8,2.08 -5.28,2.24 -5.6,2.56 l -0.48,0.16 -0.8,0.64 -0.8,0.48 -0.8,0.48 -0.8,0.48 -0.8,0.64 -0.8,0.48 -0.8,0.48 -0.8,0.64 -0.8,0.48 -0.8,0.64 -0.64,0.64 -0.8,0.48 -0.8,0.64 -0.800001,0.64 -0.639999,0.48 -1.600001,1.28 -1.439998,1.12 -1.600001,1.28 -1.44,1.12 -1.440001,1.280001 L -26.879999,18.4 -28.32,19.68 -29.76,20.799999 -31.200001,22.08 -32.639999,23.360001 -34.080002,24.639999 -35.52,25.92 -36.959999,27.200001 -38.400002,28.48 -39.84,29.76 -41.279999,31.040001 -42.720001,32.32 -44.16,33.599998 -45.599998,35.040001 -47.040001,36.32 -48.32,37.599998 l -1.439998,1.280003 -1.440003,1.439999 -1.439998,1.279998 -1.279999,1.280003 -1.440003,1.439999 -1.439998,1.279998 -1.280003,1.440003 L -59.52,48.32 -60.799999,49.759998 -62.240002,51.040001 -63.52,52.48 l -1.280003,1.279998 -1.439995,1.440003 -1.279999,1.439998 -1.280006,1.440003 -1.439995,1.279999 -1.279999,1.439998 -1.280006,1.440003 -1.279999,1.439998 -1.279999,1.440003 -1.279998,1.439995 L -77.919998,68 l -1.279999,1.440002 -1.280006,1.439995 -1.279999,1.440003 -1.279999,1.440002 -1.279999,1.439995 -1.279998,1.600006 -1.120003,1.439995 L -88,79.68 l -1.279999,1.440003 -1.120003,1.599998"
         style="fill:none;stroke:#000000;stroke-width:1.92;stroke-linecap:round;stroke-linejoin:round;stroke-miterlimit:10;stroke-dasharray:none;stroke-opacity:1"
         id="path1551" /></g><g
       id="g1553"><path
         d="m 580.15997,491.20001 h -0.47998 l -0.47998,0.15998 H 578.88 l -0.47998,0.16"
         style="fill:none;stroke:#000000;stroke-width:1.92;stroke-linecap:round;stroke-linejoin:round;stroke-miterlimit:10;stroke-dasharray:none;stroke-opacity:1"
         id="path1555" /></g><g
       id="g1557"
       transform="translate(592.15997,495.51999)"><path
         d="M 0,0 V -0.16 L -0.16,-0.32 V -0.48 L -0.32,-0.64 V -0.8 L -0.48,-0.96 -0.64,-1.12 V -1.28 H -0.8 L -0.96,-1.44 -1.12,-1.6 -1.28,-1.76 -1.44,-1.92 H -1.6 L -1.76,-2.08 -1.92,-2.24 H -2.24 L -2.4,-2.4 -2.56,-2.56 H -2.72 L -3.2,-2.72 -3.68,-2.88 -4.16,-3.04 -4.64,-3.2 -4.96,-3.36 -5.44,-3.52 -5.92,-3.68 H -6.4 L -6.72,-3.84 -7.2,-4 H -7.68 L -8,-4.16 H -8.32 L -8.8,-4.32 H -9.12 L -9.6,-4.48 h -0.32 -0.16 -0.32 -0.16 -0.16 -0.48 -0.32 L -12,-4.32"
         style="fill:none;stroke:#000000;stroke-width:1.92;stroke-linecap:round;stroke-linejoin:round;stroke-miterlimit:10;stroke-dasharray:none;stroke-opacity:1"
         id="path1559" /></g><g
       id="g1561"
       transform="translate(503.84,590.71997)"><path
         d="m 0,0 1.6,-1.12 1.76,-1.28 1.6,-1.28 1.76,-1.28 1.76,-1.12 1.6,-1.28 1.6,-1.28 1.76,-1.28 1.6,-1.28 1.759999,-1.28 1.600001,-1.28 1.6,-1.44 1.6,-1.28 1.600001,-1.28 1.599998,-1.440001 L 26.4,-20.48 28,-21.76 29.6,-23.200001 30.4,-23.84 31.200001,-24.639999 32,-25.280001 32.799999,-25.92 33.599998,-26.719999 34.400002,-27.360001 35.200001,-28 35.84,-28.799999 l 0.799999,-0.640002 0.8,-0.799999 0.800003,-0.639999 0.799999,-0.800001 0.639999,-0.64 0.8,-0.639999 0.799999,-0.799999 0.800003,-0.800003 0.639999,-0.64 L 43.52,-36 l 0.8,-0.639999 0.639999,-0.8 0.799999,-0.640003 0.640004,-0.799999 0.799999,-0.799999 0.639999,-0.64 0.799999,-0.799999 0.8,-0.799999 0.640003,-0.640003 0.799999,-0.8 L 51.52,-44.16 l 0.64,-0.639999 0.799999,-0.799999 0.639999,-0.800004 0.800004,-0.799999 L 55.040001,-48 55.68,-48.639999 l 0.8,-0.8 0.639999,-0.800003 0.639999,-0.799999 0.640004,-0.799999 0.799999,-0.799999 0.639999,-0.8 0.64,-0.640003 0.639999,-0.799999 0.639999,-0.799999 0.800003,-0.8 0.64,-0.799999 0.639999,-0.800003 0.640003,-0.799999 0.64,-0.799999 0.639999,-0.8 0.64,-0.799999 0.639999,-0.800003 L 68.32,-63.68 69.599998,-65.279999 70.720001,-66.879997 72,-68.480003 l 0.639999,-0.799996 0.64,-0.959999 1.120003,-1.599998 0.639999,-0.800003 0.639999,-0.800003 0.64,-0.799996 0.160003,-0.480003 0.32,-0.32 0.32,-0.479996 0.319999,-0.319999 0.479996,-0.800003 0.32,-0.480004 0.32,-0.479995 0.319999,-0.32 0.160004,-0.480004 L 79.68,-79.199997 80.32,-80 l 0.639999,-0.800003 0.32,-0.479996 0.160003,-0.480003 0.32,-0.32 0.32,-0.479996 0.159996,-0.319999 0.32,-0.480004 0.480003,-0.800003 0.479996,-0.799995 0.319999,-0.480003 0.160004,-0.32 0.32,-0.479996 0.160003,-0.480003 0.32,-0.32 0.32,-0.479996 L 85.440002,-88 l 0.32,-0.32 0.64,-0.959999 0.319999,-0.319999 0.32,-0.480004 0.32,-0.479996 0.159996,-0.160003 0.160003,-0.159996 0.159996,-0.32 v -0.160004 L 88,-91.68 88.160004,-91.839996 V -92 L 88.32,-92.32 v -0.160003 l 0.160003,-0.159996 v -0.32 -0.160004 l 0.159996,-0.319999 v -0.159996 -0.160004 -0.32 -0.159996 -0.160004 l -0.159996,-0.159996 v -0.319999 -0.160004 L 88.32,-95.199997"
         style="fill:none;stroke:#000000;stroke-width:1.92;stroke-linecap:round;stroke-linejoin:round;stroke-miterlimit:10;stroke-dasharray:none;stroke-opacity:1"
         id="path1563" /></g><g
       id="g1565"
       transform="translate(475.51999,617.76001)"><path
         d="m 0,0 -1.28,1.76 -1.44,1.6 -1.28,1.6 -1.44,1.6 -1.44,1.6 -1.28,1.76 -1.44,1.6 -1.44,1.6 -1.44,1.6 -1.28,1.6 -1.44,1.6 -1.439999,1.440001 -1.440001,1.599998 -1.44,1.6 -1.600001,1.600001 -1.439998,1.6 L -24,27.200001 -25.440001,28.799999 -26.879999,30.24 -28.48,31.84 l -1.44,1.599999 -1.6,1.440002 L -32.959999,36.32 -34.560001,37.919998 -36,39.360001 -37.599998,40.799999 -39.040001,42.400002 -40.639999,43.84 -42.240002,45.279999 -43.68,46.720001 -45.279999,48.16 -46.880001,49.599998 -48.48,51.040001 -50.080002,52.48 -51.68,53.919998 -53.279999,55.360001 -54.880001,56.799999 -56.48,58.240002 -58.080002,59.52 -59.68,60.959999 l -1.599999,1.440003 -1.600002,1.279998 -1.600002,1.440003 -1.599999,1.279999 -1.759994,1.439994 -1.600006,1.280007 -0.799996,0.639999 -0.800003,0.799996 L -72,71.199997 l -0.800003,0.639999 -0.799995,0.640007 -0.800004,0.64 -0.959999,0.639999 -0.800003,0.64 -0.799995,0.639999 -0.959999,0.639999 -0.800003,0.64 -0.799996,0.639999 -0.960006,0.480003 -0.799996,0.64 -0.959999,0.639999 -0.480003,0.32 -0.32,0.159996 -0.479996,0.32 L -84,79.839996 -84.480003,80 l -0.479996,0.32 -0.480003,0.319999 -0.32,0.160004 -0.479996,0.32 -0.480003,0.159996 -0.479996,0.319999 -0.480003,0.160004 -0.480004,0.159996 -0.479995,0.32 -0.480004,0.160004 -0.479995,0.159996 -0.64,0.160003 -0.480003,0.159996 h -0.479996 L -91.68,83.040001 H -92 l -0.160004,0.159996 h -0.319999 -0.32 -0.159996 -0.32 l -0.160003,0.160004 h -0.32 -0.32 l -0.159996,-0.160004 h -0.32 -0.319999 -0.160004 -0.32 L -95.68,83.040001 h -0.159996 l -0.640007,-0.160004 h -0.479996 l -0.480003,-0.159996 -0.479996,-0.160003 -0.480004,-0.159996 -0.639999,-0.160004 -0.479996,-0.159996 L -100,81.919998 l -0.48,-0.159996 h -0.32 l -0.16,-0.160004 -0.32,-0.159996 h -0.16 l -0.32,-0.160003 -0.16,-0.159996 h -0.32 l -0.16,-0.160004 -0.32,-0.159996 -0.16,-0.160004 -0.16,-0.159996 L -103.36,80.32 -103.52,80.160004 -103.68,80 l -0.16,-0.32 -0.16,-0.160003 -0.16,-0.159996 v -0.32 l -0.16,-0.160004 -0.16,-0.319999 v -0.159996 -0.32 l -0.16,-0.160004 v -0.32 -0.159996 -0.319999 -0.32 l 0.16,-0.160004 V 76.32 76.160004 l 0.16,-0.320008 V 75.68 l 0.16,-0.319999 0.16,-0.160004 v -0.32 l 0.16,-0.159996 0.16,-0.160003 0.16,-0.32 0.16,-0.32 0.32,-0.479996 0.32,-0.319999 0.32,-0.480004 0.64,-0.800003 0.32,-0.319999 0.32,-0.479996 0.32,-0.480003 0.16,-0.32 0.32,-0.479996 0.32,-0.480003 0.32,-0.32 0.160003,-0.479996 0.479996,-0.800003 0.639999,-0.959999 0.160004,-0.480003 0.32,-0.32 0.32,-0.479996 0.159996,-0.480003 0.639999,-0.799995 0.639999,-0.800003 1.120003,-1.600003 0.639999,-0.959999 0.64,-0.799999 0.480003,-0.799999 0.64,-0.799999 L -92,57.439999 l 0.480003,-0.8 0.64,-0.799999 0.639999,-0.799999 0.64,-0.959999 0.639999,-0.800003 0.479996,-0.799999 0.640007,-0.8 1.279998,-1.599998 L -85.279999,48.48 -84,46.720001 l 0.639999,-0.800003 0.64,-0.799999 0.639999,-0.799999 0.64,-0.8 0.800003,-0.799999 L -80,41.919998 l 0.639999,-0.799999 0.64,-0.799999 0.639999,-0.8 0.64,-0.799999 0.800003,-0.800003 L -76,37.119999 -75.360001,36.32 l 0.800003,-0.8 0.64,-0.799999 0.639999,-0.800003 0.799996,-0.799999 0.640007,-0.799999 0.639999,-0.8 0.799995,-0.800001 0.64,-0.639999 0.800003,-0.799999 L -68.32,28.48 l 0.800003,-0.8 0.64,-0.800001 0.799995,-0.799999 0.800003,-0.639999 0.64,-0.800002 L -63.84,23.84 -63.200001,23.040001 -62.400002,22.4 -61.599998,21.6 -60.959999,20.799999 -60.16,20.16 l 0.799999,-0.799999 0.8,-0.800002 L -57.919998,17.92 -57.119999,17.120001 -56.32,16.32 l 0.8,-0.64 0.799999,-0.8 0.639999,-0.64 0.800003,-0.8 0.799999,-0.64 0.8,-0.8 0.799999,-0.64 0.799999,-0.8 0.800003,-0.64 0.799999,-0.64 0.8,-0.8 0.799999,-0.64 0.799999,-0.8 0.800003,-0.64 0.799999,-0.64 0.8,-0.8 0.799999,-0.64 1.600002,-1.44 L -39.52,1.6 -37.919998,0.16 -36.32,-1.12 l 1.759999,-1.28 1.600002,-1.44 1.759998,-1.28 1.600001,-1.28 1.76,-1.28 1.6,-1.28 1.76,-1.28 1.760001,-1.28 1.599998,-1.28 1.76,-1.28 1.760001,-1.28 1.76,-1.279999"
         style="fill:none;stroke:#000000;stroke-width:1.92;stroke-linecap:round;stroke-linejoin:round;stroke-miterlimit:10;stroke-dasharray:none;stroke-opacity:1"
         id="path1567" /></g><g
       id="g1569"
       transform="translate(487.84,574.23999)"><path
         d="m 0,0 1.44,-1.76 1.28,-1.6 1.44,-1.6 1.28,-1.6 1.44,-1.76 1.44,-1.6 1.44,-1.6 1.28,-1.6 1.44,-1.6 1.44,-1.6 1.44,-1.6 1.439999,-1.6 1.440001,-1.439999 1.44,-1.6 1.440001,-1.600001 1.439998,-1.6 L 24.16,-27.200001 25.6,-28.799999 27.040001,-30.4 28.48,-31.84 l 1.6,-1.599999 1.44,-1.440002 1.599999,-1.599999 1.440002,-1.439998 1.599999,-1.440003 1.439998,-1.599998 1.600003,-1.440003 L 40.799999,-43.84 42.240002,-45.279999 43.84,-46.720001 45.439999,-48.32 47.040001,-49.759998 48.48,-51.200001 50.080002,-52.639999 51.68,-53.919998 53.279999,-55.360001 54.880001,-56.799999 56.48,-58.240002 58.080002,-59.68 59.68,-60.959999 l 1.599999,-1.440003 1.760002,-1.439998 1.599998,-1.280003 1.599999,-1.439995 1.599998,-1.279998 1.760002,-1.280007 0.800004,-0.799995 0.799995,-0.64 L 72,-71.199997 l 0.800003,-0.639999 0.959999,-0.640007 0.799996,-0.64 0.800003,-0.639999 0.959999,-0.64 0.800003,-0.639999 0.799995,-0.639999 0.959999,-0.64 0.800003,-0.639999 0.800003,-0.480003 0.959999,-0.64 0.799996,-0.639999 0.480003,-0.32 0.479996,-0.32 0.480003,-0.159996 0.480004,-0.319999 0.319999,-0.320008 0.479996,-0.159996 0.480003,-0.319999 0.479996,-0.160004 0.480004,-0.32 0.479995,-0.159996 0.480004,-0.319999 0.479995,-0.160004 0.480004,-0.32 0.480003,-0.159996 0.479996,-0.160004 0.480003,-0.159996 0.479996,-0.160003 0.480003,-0.159996 0.479996,-0.160004 h 0.639999 L 92,-83.199997 h 0.32 0.319999 0.160004 0.32 l 0.159996,-0.160004 h 0.319999 0.32 0.160004 0.32 0.319999 l 0.159996,0.160004 h 0.32 0.32 H 95.68 l 0.32,0.159996 h 0.480003 l 0.479996,0.160004 0.639999,0.159996 0.480004,0.160003 0.479996,0.159996 0.480003,0.160004 0.479996,0.159996 0.640003,0.160004 0.48,0.159996 h 0.16 l 0.32,0.160004 h 0.16 l 0.32,0.159996 0.32,0.160003 h 0.16 l 0.32,0.159996 0.16,0.160004 0.16,0.159996 0.32,0.160004 0.16,0.159996 0.16,0.160003 0.16,0.159996 0.32,0.160004 0.16,0.32 v 0.160003 l 0.16,0.159996 0.16,0.32 0.16,0.160004 v 0.319999 l 0.16,0.159996 v 0.32 0.160004 0.32 0.159996 0.319999 0.160004 0.32 0.319999 l -0.16,0.159996 v 0.320008 L 104.32,-75.68 v 0.160003 l -0.16,0.32 -0.16,0.159996 v 0.32 l -0.16,0.160003 -0.16,0.159996 -0.32,0.480004 -0.32,0.479996 -0.32,0.319999 -0.16,0.480004 -0.64,0.800003 -0.32,0.319999 -0.32,0.479996 -0.32,0.32 -0.32,0.480003 -0.32,0.479996 -0.16,0.32 -0.320004,0.480003 -0.319999,0.479996 -0.479996,0.800003 -0.480003,0.959999 -0.32,0.319999 -0.159996,0.480004 -0.32,0.479996 -0.32,0.319999 -0.480003,0.959999 -0.639999,0.800003 -1.279999,1.600003 -0.480003,0.799999 -0.64,0.959999 -0.639999,0.799999 -0.479996,0.799999 -0.639999,0.960003 -0.640007,0.8 -0.479996,0.799999 -0.639999,0.799999 -0.64,0.799999 -0.639999,0.800003 -0.64,0.959999 -0.640007,0.8 -1.279998,1.599998 L 85.279999,-48.48 84,-46.880001 l -0.639999,0.960003 -0.64,0.799999 -0.639999,0.799999 -0.64,0.8 -0.639999,0.799999 -0.639999,0.800003 -0.640007,0.799999 -0.64,0.799999 -0.799995,0.8 -0.64,0.799999 -0.639999,0.800003 -0.639999,0.799999 -0.800003,0.799999 -0.64,0.8 -0.639999,0.799999 -0.800003,0.800003 -0.64,0.799999 L 72,-32.32 71.199997,-31.68 70.559998,-30.879999 69.760002,-30.08 69.120003,-29.280001 68.32,-28.48 l -0.64,0.8 -0.800003,0.800001 -0.639999,0.639999 -0.799996,0.799999 -0.639999,0.800002 L 64,-23.84 l -0.799999,0.639999 -0.64,0.800001 -0.800003,0.8 -0.799999,0.800001 L 60.32,-20.16 l -0.8,0.799999 -0.799999,0.800002 L 57.919998,-17.92 57.279999,-17.120001 56.48,-16.48 l -0.8,0.8 -0.799999,0.64 -0.799999,0.8 -0.800003,0.8 -0.799999,0.64 -0.64,0.8 -0.799999,0.64 -0.799999,0.64 -0.800003,0.8 -0.8,0.64 -0.799999,0.8 -0.799999,0.64 -0.799999,0.8 -0.800003,0.64 -0.8,0.64 L 43.84,-4.96 42.880001,-4.32 41.279999,-3.04 39.68,-1.6 38.080002,-0.32 36.32,1.12 34.720001,2.4 32.959999,3.84 31.360001,5.12 29.6,6.4 28,7.68 l -1.76,1.28 -1.600001,1.28 -1.76,1.28 -1.759998,1.28 -1.76,1.28 L 17.76,15.36 16,16.639999"
         style="fill:none;stroke:#000000;stroke-width:1.92;stroke-linecap:round;stroke-linejoin:round;stroke-miterlimit:10;stroke-dasharray:none;stroke-opacity:1"
         id="path1571" /></g><g
       id="g1573"
       transform="translate(459.67999,949.91998)"><path
         d="m 0,0 -1.76,-1.12 -1.6,-1.28 -1.76,-1.28 -1.6,-1.12 -1.76,-1.28 -1.6,-1.28 -1.76,-1.28 -1.6,-1.28 -1.76,-1.28 -1.599999,-1.28 -1.600001,-1.28 -1.6,-1.28 -1.76,-1.44 -1.600001,-1.28 -1.599998,-1.280001 -1.6,-1.439999 -1.600001,-1.28 -1.6,-1.440001 L -30.559999,-23.84 -31.360001,-24.48 -32.16,-25.280001 -32.799999,-25.92 -33.599998,-26.559999 -34.400002,-27.360001 -35.200001,-28 -36,-28.799999 l -0.799999,-0.640002 -0.64,-0.639999 -0.800003,-0.799999 -0.799999,-0.640001 -0.799999,-0.8 -0.799999,-0.639999 -0.64,-0.799999 -0.800003,-0.640004 -0.799999,-0.799999 L -43.52,-35.84 l -0.8,-0.799999 -0.799999,-0.8 -0.639999,-0.640003 -0.800003,-0.799999 -0.64,-0.639999 -0.799999,-0.8 -0.639999,-0.799999 -0.8,-0.639999 -0.640003,-0.800003 -0.799999,-0.8 L -51.52,-44.16 l -0.8,-0.639999 -0.639999,-0.799999 -0.799999,-0.800004 -0.640004,-0.799999 -0.639999,-0.639999 -0.799999,-0.799999 -0.64,-0.8 -0.639999,-0.800003 -0.799999,-0.799999 -0.640003,-0.799999 -0.64,-0.64 -0.639999,-0.799999 -0.64,-0.800003 -0.799999,-0.799999 -0.639999,-0.799999 -0.640003,-0.8 -0.64,-0.799999 -0.639999,-0.800003 -0.640003,-0.799999 -0.64,-0.799999 -0.639999,-0.8 -0.64,-0.799999 -0.639999,-0.800003 L -68.32,-63.68 l -1.279998,-1.599999 -1.279999,-1.599998 -1.280007,-1.600006 -0.479995,-0.799996 -0.64,-0.800003 -1.279999,-1.759994 -0.480003,-0.800003 -0.639999,-0.800003 -0.64,-0.799996 -0.319999,-0.480003 -0.32,-0.32 -0.160004,-0.479996 -0.319999,-0.319999 -0.64,-0.800003 -0.159996,-0.480004 -0.32,-0.319999 -0.319999,-0.479996 -0.32,-0.480004 -0.639999,-0.799995 L -80.32,-80 l -0.639999,-0.800003 -0.32,-0.479996 -0.319999,-0.319999 -0.160004,-0.480004 -0.32,-0.479996 -0.32,-0.319999 -0.159996,-0.480004 -0.480003,-0.800003 -0.479996,-0.799995 -0.319999,-0.480003 -0.160004,-0.32 -0.32,-0.479996 -0.319999,-0.32 -0.32,-0.480003 -0.160004,-0.479996 -0.319999,-0.319999 -0.32,-0.480004 -0.799996,-0.800003 -0.319999,-0.479995 -0.32,-0.480004 -0.160004,-0.479996 -0.159996,-0.160003 -0.160003,-0.159996 -0.159996,-0.32 L -88,-91.360001 v -0.159996 L -88.160004,-91.839996 -88.32,-92 v -0.160004 l -0.160003,-0.319999 v -0.159996 -0.32 l -0.159996,-0.160004 v -0.159996 -0.319999 -0.160004 -0.159996 -0.32 -0.160004 -0.159996 l 0.159996,-0.160003 v -0.32 -0.159996 L -88.32,-95.360001 v -0.159996 L -88.160004,-95.68 v -0.159996 L -88,-96 l 0.160004,-0.160004 V -96.32 H -87.68 l 0.160003,-0.160003 0.159996,-0.159996 0.160004,-0.160004 0.159996,-0.159996 h 0.160004 l 0.159996,-0.160004 0.160003,-0.159996 0.159996,-0.160003 h 0.160004 l 0.159996,-0.159996 h 0.32 l 0.160004,-0.160004 0.479995,-0.159996 0.32,-0.160004 0.480003,-0.159996 0.480004,-0.160004 0.479995,-0.159996 0.480004,-0.160003 h 0.479995 l 0.32,-0.159996 0.480004,-0.160004 0.479995,-0.159996 h 0.32 L -80.32,-99.360001 H -80 l 0.480003,-0.159996 h 0.32 l 0.32,-0.160003 h 0.479995 0.160004 0.159996 0.32 0.160004 0.319999 l 0.479996,0.160003 h 0.480003 0.480004 l 0.319999,0.159996 0.479996,0.160004 h 0.480003 l 0.479996,0.159996 0.480004,0.160004 0.479995,0.159996 0.32,0.160003 0.480003,0.159996 0.480004,0.32 0.479995,0.160004 0.32,0.159996 0.480003,0.160004 0.32,0.319999 0.479996,0.159996 0.32,0.32 0.480003,0.160004 0.479996,0.319999 0.800003,0.480004 0.800003,0.479995 0.799995,0.480004 0.800003,0.479995 0.799996,0.64 0.800003,0.480003 0.799999,0.64 0.799999,0.479995 0.640003,0.640007 0.8,0.479996 0.799999,0.639999 0.799999,0.480004 0.799999,0.639999 0.640004,0.64 0.799999,0.479995 1.599998,1.280007 1.440003,1.119995 1.439998,1.279999 1.599999,1.280006 1.440002,1.119995 1.439999,1.279999 1.439998,1.280006 1.600003,1.279999 1.439998,1.119995 1.440003,1.280007 1.439998,1.279998 1.439999,1.279999 1.440003,1.279999 1.439998,1.279999 1.439999,1.279999 1.440002,1.279998 1.439999,1.280007 1.44,1.439995 1.279999,1.279998 1.440001,1.280003 1.44,1.280003 1.440001,1.279998 1.439998,1.439999 1.280001,1.280003 1.440001,1.279998 1.439998,1.439999 1.280001,1.280003 1.44,1.439998 1.28,1.279999 1.44,1.440002 1.28,1.279999 1.44,1.439999 1.28,1.440002 1.28,1.279999 1.44,1.439999 1.28,1.440002 1.28,1.439999 1.28,1.279998 1.44,1.440003 1.28,1.439999 1.28,1.439998 1.28,1.440003 1.28,1.439998 1.28,1.440001"
         style="fill:none;stroke:#000000;stroke-width:1.92;stroke-linecap:round;stroke-linejoin:round;stroke-miterlimit:10;stroke-dasharray:none;stroke-opacity:1"
         id="path1575" /></g><g
       id="g1577"
       transform="translate(464.32001,920.15997)"><path
         d="m 0,0 1.28,1.44 1.28,1.44 1.28,1.44 1.12,1.44 1.28,1.6 1.28,1.44 1.28,1.44 1.12,1.44 1.28,1.6"
         style="fill:none;stroke:#000000;stroke-width:1.92;stroke-linecap:round;stroke-linejoin:round;stroke-miterlimit:10;stroke-dasharray:none;stroke-opacity:1"
         id="path1579" /></g><g
       id="g1581"
       transform="translate(503.84,960.47998)"><path
         d="m 0,0 1.6,1.12 1.76,1.28 1.6,1.28 1.76,1.28 1.76,1.12 1.6,1.28 1.6,1.28 1.76,1.28 1.6,1.28 1.759999,1.28 1.600001,1.28 1.6,1.44 1.6,1.28 1.600001,1.28 1.599998,1.440001 L 26.4,20.48 28,21.76 29.6,23.200001 30.4,23.84 31.200001,24.639999 32,25.280001 32.799999,25.92 33.599998,26.719999 34.400002,27.360001 35.200001,28 35.84,28.799999 l 0.799999,0.640002 0.8,0.799999 0.800003,0.639999 0.799999,0.800001 0.639999,0.64 0.8,0.639999 0.799999,0.799999 0.800003,0.800003 0.639999,0.64 L 43.52,36 l 0.8,0.639999 0.639999,0.8 0.799999,0.640003 0.640004,0.799999 0.799999,0.799999 0.639999,0.64 0.799999,0.799999 0.8,0.799999 0.640003,0.640003 0.799999,0.8 L 51.52,44.16 l 0.64,0.639999 0.799999,0.799999 0.639999,0.800004 0.800004,0.799999 L 55.040001,48 55.68,48.639999 l 0.8,0.8 0.639999,0.800003 0.639999,0.799999 0.640004,0.799999 0.799999,0.799999 0.639999,0.8 0.64,0.640003 0.639999,0.799999 0.639999,0.799999 0.800003,0.8 0.64,0.799999 0.639999,0.800003 0.640003,0.799999 0.64,0.799999 0.639999,0.8 0.64,0.799999 0.639999,0.800003 L 68.32,63.68 69.599998,65.279999 70.720001,66.879997 72,68.480003 l 0.639999,0.799996 0.64,0.959999 1.120003,1.599998 0.639999,0.800003 0.639999,0.800003 0.64,0.799996 0.160003,0.480003 0.32,0.32 0.32,0.479996 0.319999,0.319999 0.479996,0.800003 0.32,0.480004 0.32,0.479995 0.319999,0.32 0.160004,0.480004 L 79.68,79.199997 80.32,80 l 0.639999,0.800003 0.32,0.479996 0.160003,0.480003 0.32,0.32 0.32,0.479996 0.159996,0.319999 0.32,0.480004 0.480003,0.800003 0.479996,0.799995 0.319999,0.480003 0.160004,0.32 0.32,0.479996 0.160003,0.480003 0.32,0.32 0.32,0.479996 L 85.440002,88 l 0.32,0.32 0.64,0.959999 0.319999,0.319999 0.32,0.480004 0.32,0.479996 0.159996,0.160003 0.160003,0.159996 0.159996,0.32 v 0.160004 L 88,91.68 88.160004,91.839996 V 92 L 88.32,92.32 v 0.160003 l 0.160003,0.159996 v 0.32 0.160004 l 0.159996,0.319999 v 0.159996 0.160004 0.32 0.159996 0.160004 l -0.159996,0.159996 v 0.319999 0.160004 L 88.32,95.199997 v 0.160004 l -0.159996,0.159996 V 95.68 L 88,95.839996 V 96 L 87.839996,96.160004 87.68,96.32 v 0.160003 h -0.160003 l -0.159996,0.159996 -0.160004,0.160004 -0.159996,0.159996 -0.160004,0.160004 h -0.159996 l -0.160003,0.159996 -0.159996,0.160003 h -0.32 l -0.160004,0.159996 -0.159996,0.160004 h -0.160004 l -0.479995,0.159996 -0.480004,0.160004 -0.479995,0.159996 -0.480004,0.160004 -0.319999,0.159996 -0.480004,0.160003 -0.479995,0.159996 h -0.480004 l -0.32,0.160004 -0.479995,0.159996 H 80.639999 L 80.32,99.360001 H 80 l -0.480003,0.159996 h -0.32 L 78.720001,99.68 h -0.319999 -0.160004 -0.32 -0.159996 -0.160004 -0.479995 -0.32 L 76.32,99.519997 h -0.480004 l -0.479995,-0.159996 h -0.32 l -0.480003,-0.160004 -0.479996,-0.159996 -0.480004,-0.160004 -0.479995,-0.159996 -0.480004,-0.160003 -0.479995,-0.159996 -0.320008,-0.160004 -0.479995,-0.32 -0.480004,-0.159996 -0.319999,-0.160004 -0.479996,-0.319999 -0.32,-0.159996 -0.480003,-0.160004 -0.32,-0.32 L 68.480003,96.480003 67.68,95.839996 66.879997,95.360001 66.080002,94.879997 65.279999,94.400002 64.480003,93.760002 63.68,93.279999 62.880001,92.800003 62.080002,92.160004 61.279999,91.68 60.48,91.040001 l -0.64,-0.639999 -0.799999,-0.480004 -0.799999,-0.639999 -0.800003,-0.64 -0.64,-0.479995 L 55.200001,86.879997 53.759998,85.760002 52.16,84.480003 50.720001,83.360001 49.279999,82.080002 47.68,80.800003 46.240002,79.519997 44.799999,78.400002 43.360001,77.120003 41.919998,75.839996 40.48,74.559998 39.040001,73.279999 37.599998,72 36.16,70.720001 34.720001,69.440002 33.279999,68.160004 31.84,66.879997 30.4,65.599998 28.959999,64.160004 27.52,62.880001 26.24,61.599998 24.799999,60.32 23.360001,58.880001 21.92,57.599998 20.639999,56.32 19.200001,54.880001 17.76,53.599998 16.48,52.16 15.04,50.880001 13.76,49.439999 12.32,48.16 11.04,46.720001 9.76,45.439999 8.32,44 7.04,42.560001 5.76,41.119999 4.32,39.84 3.04,38.400002 1.76,36.959999 0.48,35.52 -0.8,34.080002 -2.08,32.639999 -3.36,31.200001 -4.64,29.76"
         style="fill:none;stroke:#000000;stroke-width:1.92;stroke-linecap:round;stroke-linejoin:round;stroke-miterlimit:10;stroke-dasharray:none;stroke-opacity:1"
         id="path1583" /></g><g
       id="g1585"
       transform="translate(499.20001,990.23999)"><path
         d="m 0,0 -1.28,-1.44 -1.28,-1.44 -1.28,-1.44 -1.28,-1.44 -1.28,-1.6 -1.12,-1.44 -1.28,-1.44 -1.28,-1.44 -1.12,-1.6"
         style="fill:none;stroke:#000000;stroke-width:1.92;stroke-linecap:round;stroke-linejoin:round;stroke-miterlimit:10;stroke-dasharray:none;stroke-opacity:1"
         id="path1587" /></g><g
       id="g1589"
       transform="translate(459.67999,950.08002)"><path
         d="m 0,0 -1.76,-1.28 -1.76,-1.28 -1.6,-1.28 -1.76,-1.28 -1.76,-1.28 -1.76,-1.28 -1.6,-1.28 -1.76,-1.28 -1.6,-1.28 -1.760001,-1.28 -1.599998,-1.28 -1.760001,-1.44 -1.6,-1.279999 -1.6,-1.440001 -1.760001,-1.28 -1.6,-1.439999 L -27.84,-21.6 -28.639999,-22.24 -29.440001,-23.040001 -30.24,-23.68 -31.040001,-24.48 -31.84,-25.120001 -32.639999,-25.76 l -0.8,-0.799999 -0.800003,-0.640002 L -35.040001,-28 -35.84,-28.639999 l -0.799999,-0.800002 -0.8,-0.639999 -0.640003,-0.799999 -0.799999,-0.640001 -0.799999,-0.8 -0.8,-0.639999 -0.799999,-0.799999 -0.800003,-0.800003 -0.639999,-0.64 L -43.52,-36 l -0.8,-0.799999 -0.799999,-0.64 -0.639999,-0.800003 -0.800003,-0.799999 -0.8,-0.639999 -0.639999,-0.8 -0.799999,-0.799999 -0.64,-0.800003 -0.800003,-0.799999 -0.799999,-0.639999 -0.639999,-0.8 -0.8,-0.799999 -0.639999,-0.799999 -0.799999,-0.800003 -0.640003,-0.799999 -0.8,-0.64 L -56,-48.959999 l -0.639999,-0.799999 -0.8,-0.800003 -0.640003,-0.8 -0.639999,-0.799999 -0.799999,-0.799999 -0.64,-0.799999 -0.639999,-0.800003 -0.799999,-0.8 -0.640004,-0.799999 -0.639999,-0.799999 -0.639999,-0.799999 -0.640004,-0.800003 -0.639999,-0.8 -0.799995,-0.799999 -0.64,-0.799999 -0.639999,-0.799999 -0.64,-0.800003 -0.640007,-0.8 -1.279998,-1.760002 -1.279999,-1.599998 -1.119995,-1.599999 -1.280007,-1.760002 -1.279999,-1.599998 -1.119995,-1.599999 -1.280006,-1.760002 -1.119995,-1.599998 -1.279999,-1.760003 L -80.32,-80 l -0.639999,-0.800003 -0.32,-0.479996 -0.319999,-0.480003 -0.160004,-0.32 -0.32,-0.479996 -0.639999,-0.800003 -0.959999,-1.760002 -0.64,-0.799995 -0.480003,-0.959999 -0.639999,-0.800003 -0.159996,-0.480004 -0.32,-0.319999 -0.32,-0.479996 -0.32,-0.32 -0.319999,-0.480003 -0.32,-0.32 -0.32,-0.479996 L -87.68,-91.040001 -87.839996,-91.199997 -88,-91.360001 -88.160004,-91.68 v -0.159996 L -88.32,-92.160004 -88.480003,-92.32 v -0.319999 l -0.159996,-0.160004 v -0.32 -0.159996 l -0.160004,-0.319999 v -0.160004 -0.32 -0.159996 -0.32 l 0.160004,-0.160003 v -0.32 l 0.159996,-0.159996 v -0.32 L -88.32,-95.68 V -96 l 0.159996,-0.160004 L -88,-96.32 l 0.160004,-0.319999 0.159996,-0.160004 0.319999,-0.159996 0.160004,-0.160004 0.159996,-0.159996 0.160004,-0.160003 0.319999,-0.159996 0.159996,-0.160004 h 0.32 l 0.160004,-0.159996 0.32,-0.160004 h 0.159996 l 0.319999,-0.159996 0.480004,-0.160004 0.479995,-0.159996 0.480004,-0.160003 0.639999,-0.159996 0.480003,-0.160004 0.479996,-0.159996 0.480004,-0.160004 0.639999,-0.159996 h 0.479996 L -80,-99.68 h 0.32 l 0.160003,-0.159996 h 0.32 0.32 0.159996 0.319999 L -78.239998,-100 h 0.32 0.32 l 0.159996,0.160004 h 0.319999 0.32 0.160004 H -76.32 L -76,-99.68 h 0.160004 l 0.479995,0.160003 h 0.64 l 0.480003,0.159996 0.479996,0.160004 0.480003,0.159996 0.479996,0.32 0.480003,0.160003 0.480004,0.159996 0.479995,0.32 0.480004,0.160004 0.479995,0.32 0.480004,0.159996 0.479996,0.319999 0.480003,0.160004 0.32,0.32 0.479995,0.319999 0.960007,0.480004 0.799995,0.639999 0.96,0.479996 0.800003,0.639999 0.959999,0.64 0.799999,0.639999 0.960003,0.480003 0.799999,0.64 0.799999,0.639999 0.959999,0.639999 0.8,0.64 0.800003,0.639999 0.799999,0.64 L -56,-87.68 l 0.799999,0.639999 0.799999,0.639999 0.800004,0.64 1.759998,1.279999 1.599998,1.440002 1.600003,1.279999 1.599998,1.440002 1.600002,1.440003 1.759999,1.279999 1.599998,1.439994 1.600002,1.440003 1.599999,1.440002 1.600002,1.279999 1.599999,1.440002 1.439998,1.439995 1.600003,1.440003 1.599998,1.440002 1.6,1.439995 1.600001,1.440002 1.44,1.440003 1.600001,1.599998 1.599998,1.439999 1.440001,1.440002 1.6,1.439999 1.600001,1.599998 1.439998,1.440003 1.600001,1.439999 1.44,1.600002 1.44,1.439998 1.6,1.599999 1.44,1.440002 1.44,1.599999 1.44,1.599998 1.6,1.440003 1.44,1.599998 1.44,1.600003 L -0.8,-36 l 1.44,1.599998 1.44,1.440003 1.44,1.599998 1.28,1.600001 1.44,1.6 1.44,1.600001 1.44,1.76 1.28,1.599998 1.44,1.600001 1.28,1.6 1.44,1.6 1.28,1.760001"
         style="fill:none;stroke:#000000;stroke-width:1.92;stroke-linecap:round;stroke-linejoin:round;stroke-miterlimit:10;stroke-dasharray:none;stroke-opacity:1"
         id="path1591" /></g><g
       id="g1593"
       transform="translate(503.84,960.32001)"><path
         d="m 0,0 1.76,1.28 1.6,1.28 1.76,1.28 1.76,1.28 1.76,1.28 1.6,1.28 1.76,1.28 1.6,1.28 1.76,1.28 1.599999,1.28 1.76,1.44 1.600001,1.28 1.76,1.279999 1.6,1.440001 1.600001,1.28 1.599998,1.439999 L 27.68,21.6 l 0.8,0.8 0.960001,0.640001 L 30.24,23.68 31.040001,24.48 31.84,25.120001 32.639999,25.92 l 0.8,0.639999 0.800003,0.640002 L 34.880001,28 35.68,28.639999 l 0.8,0.800002 0.799999,0.639999 0.800003,0.799999 0.799999,0.640001 0.799999,0.8 0.8,0.799999 0.639999,0.639999 0.799999,0.800003 0.800003,0.64 L 43.52,36 l 0.64,0.799999 0.799999,0.64 0.799999,0.800003 0.800003,0.799999 0.64,0.799999 L 48,40.48 l 0.639999,0.799999 0.8,0.800003 0.800003,0.799999 0.639999,0.639999 0.799999,0.8 0.64,0.799999 0.799999,0.799999 0.639999,0.800003 0.800003,0.799999 0.64,0.8 L 56,48.959999 l 0.639999,0.799999 0.64,0.800003 0.800003,0.8 0.639999,0.799999 0.64,0.799999 0.799999,0.799999 0.639999,0.800003 0.64,0.8 0.640003,0.799999 0.799999,0.799999 0.639999,0.799999 0.640004,0.800003 0.639999,0.8 0.639999,0.799999 0.64,0.799999 0.639999,0.799999 0.64,0.960003 L 68,63.52 l 1.279999,1.600003 1.279999,1.599998 1.279998,1.599999 1.280007,1.760002 1.119995,1.599998 1.279999,1.760002 1.280006,1.599999 1.119995,1.599998 1.279999,1.760003 L 80.32,80 l 0.639999,0.800003 0.160004,0.479996 0.319999,0.480003 0.32,0.32 0.32,0.479996 0.479996,0.800003 1.120002,1.760002 0.480004,0.799995 0.639999,0.959999 0.479996,0.800003 0.319999,0.480004 0.32,0.319999 0.32,0.479996 0.32,0.32 0.319999,0.480003 0.32,0.479996 0.160004,0.32 0.319999,0.480003 0.159996,0.159996 0.160004,0.32 V 91.68 L 88.160004,91.839996 88.32,92.160004 V 92.32 l 0.160003,0.319999 v 0.160004 l 0.159996,0.32 v 0.159996 0.319999 0.160004 0.32 0.159996 0.32 0.319999 0.160004 l -0.159996,0.32 v 0.159996 L 88.32,95.839996 88.160004,96 88,96.160004 87.839996,96.480003 87.68,96.639999 l -0.160003,0.160004 -0.159996,0.159996 -0.160004,0.160004 -0.159996,0.159996 -0.32,0.160003 -0.160003,0.159996 -0.32,0.160004 -0.159996,0.159996 h -0.32 l -0.160004,0.160004 -0.319999,0.159996 H 85.120003 L 84.639999,98.400002 84,98.559998 l -0.480003,0.160003 -0.479996,0.159996 -0.480003,0.160004 -0.479996,0.159996 -0.64,0.160004 -0.480003,0.159996 L 80.480003,99.68 H 80 l -0.32,0.159996 h -0.319999 -0.160004 -0.32 L 78.559998,100 h -0.159996 -0.32 -0.32 -0.160004 -0.319999 -0.159996 l -0.32,-0.160004 h -0.32 H 76.32 76 L 75.68,99.68 H 75.199997 L 74.720001,99.519997 74.239998,99.360001 73.760002,99.199997 73.279999,99.040001 72.800003,98.879997 72.32,98.559998 l -0.480004,-0.159996 -0.479995,-0.160004 -0.480004,-0.32 -0.479995,-0.159996 -0.480004,-0.32 -0.479996,-0.160003 -0.480003,-0.32 -0.479996,-0.32 L 68,96.480003 67.199997,95.839996 66.239998,95.360001 65.440002,94.720001 64.480003,94.080002 63.68,93.440002 62.720001,92.959999 61.919998,92.32 61.119999,91.68 60.16,91.040001 l -0.799999,-0.639999 -0.8,-0.64 -0.960003,-0.639999 -0.799999,-0.64 L 56,87.839996 55.200001,87.040001 54.240002,86.400002 53.439999,85.760002 51.84,84.480003 50.240002,83.040001 48.48,81.760002 46.880001,80.32 45.279999,79.040001 43.68,77.599998 42.080002,76.160004 40.48,74.720001 38.880001,73.440002 37.279999,72 35.68,70.559998 34.080002,69.120003 32.48,67.68 30.879999,66.239998 29.440001,64.800003 27.84,63.360001 26.24,61.919998 24.639999,60.48 23.200001,58.880001 21.6,57.439999 20.16,56 18.559999,54.560001 17.120001,52.959999 15.52,51.52 14.08,49.919998 12.48,48.48 11.04,46.880001 9.6,45.439999 8,43.84 6.56,42.240002 5.12,40.799999 3.68,39.200001 2.24,37.599998 0.8,36 -0.64,34.560001 -2.08,32.959999 -3.52,31.360001 -4.96,29.76 l -1.44,-1.6 -1.28,-1.600001 -1.44,-1.6 -1.44,-1.759998 L -11.84,21.6 -13.28,20 -14.56,18.4 -16,16.639999"
         style="fill:none;stroke:#000000;stroke-width:1.92;stroke-linecap:round;stroke-linejoin:round;stroke-miterlimit:10;stroke-dasharray:none;stroke-opacity:1"
         id="path1595" /></g></g></svg>
