<?xml version="1.0" encoding="UTF-8" standalone="no"?>
<svg
   xmlns:dc="http://purl.org/dc/elements/1.1/"
   xmlns:cc="http://creativecommons.org/ns#"
   xmlns:rdf="http://www.w3.org/1999/02/22-rdf-syntax-ns#"
   xmlns:svg="http://www.w3.org/2000/svg"
   xmlns="http://www.w3.org/2000/svg"
   xmlns:sodipodi="http://sodipodi.sourceforge.net/DTD/sodipodi-0.dtd"
   xmlns:inkscape="http://www.inkscape.org/namespaces/inkscape"
   version="1.1"
   id="svg833"
   xml:space="preserve"
   width="1122.5601"
   height="1587.36"
   viewBox="0 0 1122.5601 1587.36"
   sodipodi:docname="front-view.svg"
   inkscape:version="1.0.1 (3bc2e813f5, 2020-09-07)"><metadata
     id="metadata839"><rdf:RDF><cc:Work
         rdf:about=""><dc:format>image/svg+xml</dc:format><dc:type
           rdf:resource="http://purl.org/dc/dcmitype/StillImage" /><dc:title></dc:title></cc:Work></rdf:RDF></metadata><defs
     id="defs837" /><sodipodi:namedview
     pagecolor="#ffffff"
     bordercolor="#666666"
     borderopacity="1"
     objecttolerance="10"
     gridtolerance="10"
     guidetolerance="10"
     inkscape:pageopacity="0"
     inkscape:pageshadow="2"
     inkscape:window-width="1920"
     inkscape:window-height="1057"
     id="namedview835"
     showgrid="false"
     inkscape:zoom="0.54618991"
     inkscape:cx="561.28003"
     inkscape:cy="870.79461"
     inkscape:window-x="-8"
     inkscape:window-y="-8"
     inkscape:window-maximized="1"
     inkscape:current-layer="g841" /><g
     id="g841"
     inkscape:groupmode="layer"
     inkscape:label="front-view"
     transform="translate(0,1.3017334e-5)"><g
       id="g843"
       transform="translate(547.52002,783.20001)"><path
         d="M 0,0 0.16,1.92 0.64,3.84 1.6,5.6 2.72,7.04 4.16,8.48 5.92,9.44 7.68,10.08 9.6,10.56 h 1.92 L 13.44,10.08 15.2,9.44 16.959999,8.48 18.4,7.04 19.52,5.6 20.48,3.84 20.959999,1.92 21.120001,0 20.959999,-1.92 20.48,-3.84 19.52,-5.6 18.4,-7.04 16.959999,-8.48 15.2,-9.44 13.44,-10.08 11.52,-10.56 H 9.6 L 7.68,-10.08 5.92,-9.44 4.16,-8.48 2.72,-7.04 1.6,-5.6 0.64,-3.84 0.16,-1.92 Z"
         style="fill:none;stroke:#000000;stroke-width:1.92;stroke-linecap:round;stroke-linejoin:bevel;stroke-miterlimit:10;stroke-dasharray:none;stroke-opacity:1"
         id="path845" /></g><g
       id="g847"
       transform="translate(570.88,783.20001)"><path
         d="m 0,0 -0.16,-2.08 -0.48,-2.08 -0.96,-1.92 -1.12,-1.76 -1.44,-1.6 -1.6,-1.28 -1.92,-0.96 -1.92,-0.8 -2.08,-0.32 h -2.24 l -2.08,0.32 -1.92,0.8 -1.92,0.96 -1.600001,1.28 -1.439998,1.6 L -24,-6.08 -24.959999,-4.16 -25.440001,-2.08 -25.6,0 -25.440001,2.08 -24.959999,4.16 -24,6.08 l 1.120001,1.76 1.439998,1.6 1.600001,1.28 1.92,0.96 1.92,0.8 2.08,0.32 h 2.24 l 2.08,-0.32 1.92,-0.8 1.92,-0.96 1.6,-1.28 1.44,-1.6 1.12,-1.76 0.96,-1.92 0.48,-2.08 z"
         style="fill:none;stroke:#000000;stroke-width:1.92;stroke-linecap:round;stroke-linejoin:bevel;stroke-miterlimit:10;stroke-dasharray:none;stroke-opacity:1"
         id="path849" /></g><g
       id="g851"><path
         d="m 550.56,710.23999 h -15.20002 m 45.44001,0 h -15.20001"
         style="fill:none;stroke:#000000;stroke-width:1.92;stroke-linecap:round;stroke-linejoin:round;stroke-miterlimit:10;stroke-dasharray:none;stroke-opacity:1"
         id="path853" /></g><g
       id="g855"><path
         d="M 565.59998,856 H 550.56 v 84.15997 h 15.03998 z"
         style="fill:none;stroke:#000000;stroke-width:1.92;stroke-linecap:round;stroke-linejoin:round;stroke-miterlimit:10;stroke-dasharray:none;stroke-opacity:1"
         id="path857" /></g><g
       id="g859"
       transform="translate(520.15997,940)"><path
         d="m 0,0 v 0.32 0.8 1.44 1.76 2.4 2.72 3.04 3.2 3.520001 3.519998 V 26.24 29.76 32.959999 36 v 2.720001 2.399998 1.760002 1.439999 0.799999 0.32"
         style="fill:none;stroke:#000000;stroke-width:1.92;stroke-linecap:round;stroke-linejoin:round;stroke-miterlimit:10;stroke-dasharray:none;stroke-opacity:1"
         id="path861" /></g><g
       id="g863"
       transform="translate(578.23999,985.44)"><path
         d="m 0,0 v -0.32 -0.8 -1.44 -1.76 -2.4 -2.72 -3.04 -3.2 -3.520001 -3.519998 V -26.24 -29.76 -32.959999 -36 v -2.720001 -2.399998 -1.760002 -1.439999 -0.799999 -0.32"
         style="fill:none;stroke:#000000;stroke-width:1.92;stroke-linecap:round;stroke-linejoin:round;stroke-miterlimit:10;stroke-dasharray:none;stroke-opacity:1"
         id="path865" /></g><g
       id="g867"><path
         d="m 565.59998,856 h 15.20001 m -45.44001,0 H 550.56"
         style="fill:none;stroke:#000000;stroke-width:1.92;stroke-linecap:round;stroke-linejoin:round;stroke-miterlimit:10;stroke-dasharray:none;stroke-opacity:1"
         id="path869" /></g><g
       id="g871"
       transform="translate(535.35998,710.40002)"><path
         d="m 0,0 -1.92,0.16 -1.92,0.32 -1.92,0.64 -1.76,0.96 -1.6,0.96 -1.44,1.44 -1.44,1.44 -0.96,1.6 -0.96,1.76 -0.64,1.92 -0.32,1.92 -0.16,1.92"
         style="fill:none;stroke:#000000;stroke-width:1.92;stroke-linecap:round;stroke-linejoin:bevel;stroke-miterlimit:10;stroke-dasharray:none;stroke-opacity:1"
         id="path873" /></g><g
       id="g875"
       transform="translate(520.15997,725.44)"><path
         d="m 0,0 v 0.32 0.96 1.44 2.08 2.72 3.04 3.36 3.68 4 4 64.160002"
         style="fill:none;stroke:#000000;stroke-width:1.92;stroke-linecap:round;stroke-linejoin:round;stroke-miterlimit:10;stroke-dasharray:none;stroke-opacity:1"
         id="path877" /></g><g
       id="g879"
       transform="translate(520.32001,840.79999)"><path
         d="m 0,0 0.16,1.92 0.32,1.92 0.64,1.92 0.96,1.76 0.96,1.6 1.44,1.44 1.44,1.44 1.6,0.96 1.76,0.96 1.92,0.64 1.92,0.32 1.92,0.16"
         style="fill:none;stroke:#000000;stroke-width:1.92;stroke-linecap:round;stroke-linejoin:bevel;stroke-miterlimit:10;stroke-dasharray:none;stroke-opacity:1"
         id="path881" /></g><g
       id="g883"
       transform="translate(520.15997,815.20001)"><path
         d="m 0,0 v 4 4 3.68 3.36 3.04 2.719999 2.08 V 24.32 25.280001 25.6"
         style="fill:none;stroke:#000000;stroke-width:1.92;stroke-linecap:round;stroke-linejoin:round;stroke-miterlimit:10;stroke-dasharray:none;stroke-opacity:1"
         id="path885" /></g><g
       id="g887"
       transform="translate(595.84003,751.03998)"><path
         d="m 0,0 v -4 -4 -3.68 -3.36 -3.04 -2.719999 -2.08 V -24.32 -25.280001 -25.6"
         style="fill:none;stroke:#000000;stroke-width:1.92;stroke-linecap:round;stroke-linejoin:round;stroke-miterlimit:10;stroke-dasharray:none;stroke-opacity:1"
         id="path889" /></g><g
       id="g891"
       transform="translate(595.84003,725.44)"><path
         d="m 0,0 -0.16,-1.92 -0.32,-1.92 -0.64,-1.92 -0.96,-1.76 -0.96,-1.6 -1.44,-1.44 -1.44,-1.44 -1.6,-0.96 -1.76,-0.96 -1.92,-0.64 -1.92,-0.32 -1.92,-0.16"
         style="fill:none;stroke:#000000;stroke-width:1.92;stroke-linecap:round;stroke-linejoin:bevel;stroke-miterlimit:10;stroke-dasharray:none;stroke-opacity:1"
         id="path893" /></g><g
       id="g895"
       transform="translate(580.79999,855.84003)"><path
         d="m 0,0 1.92,-0.16 1.92,-0.32 1.92,-0.64 1.76,-0.96 1.6,-0.96 1.44,-1.44 1.44,-1.44 0.96,-1.6 0.96,-1.76 0.64,-1.92 0.32,-1.92 0.16,-1.92"
         style="fill:none;stroke:#000000;stroke-width:1.92;stroke-linecap:round;stroke-linejoin:bevel;stroke-miterlimit:10;stroke-dasharray:none;stroke-opacity:1"
         id="path897" /></g><g
       id="g899"
       transform="translate(595.84003,840.79999)"><path
         d="m 0,0 v -0.32 -0.96 -1.44 -2.08 -2.72 -3.04 -3.36 -3.68 -4 -4 -64.160002"
         style="fill:none;stroke:#000000;stroke-width:1.92;stroke-linecap:round;stroke-linejoin:round;stroke-miterlimit:10;stroke-dasharray:none;stroke-opacity:1"
         id="path901" /></g><g
       id="g903"><path
         d="m 550.56,626.08002 v 84.15997 h 15.03998 v -84.15997 z"
         style="fill:none;stroke:#000000;stroke-width:1.92;stroke-linecap:round;stroke-linejoin:round;stroke-miterlimit:10;stroke-dasharray:none;stroke-opacity:1"
         id="path905" /></g><g
       id="g907"
       transform="translate(520.15997,626.23999)"><path
         d="m 0,0 v -0.32 -0.8 -1.44 -1.76 -2.4 -2.72 -3.04 -3.2 -3.520001 -3.519998 V -26.24 -29.76 -32.959999 -36 v -2.720001 -2.399998 -1.760002 -1.439999 -0.799999 -0.32"
         style="fill:none;stroke:#000000;stroke-width:1.92;stroke-linecap:round;stroke-linejoin:round;stroke-miterlimit:10;stroke-dasharray:none;stroke-opacity:1"
         id="path909" /></g><g
       id="g911"
       transform="translate(578.23999,580.79999)"><path
         d="m 0,0 v 0.32 0.8 1.44 1.76 2.4 2.72 3.04 3.2 3.520001 3.519998 V 26.24 29.76 32.959999 36 v 2.720001 2.399998 1.760002 1.439999 0.799999 0.32"
         style="fill:none;stroke:#000000;stroke-width:1.92;stroke-linecap:round;stroke-linejoin:round;stroke-miterlimit:10;stroke-dasharray:none;stroke-opacity:1"
         id="path913" /></g><g
       id="g915"
       transform="translate(578.23999,985.44)"><path
         d="M 0,0 H -58.080002 M 0,-45.439999 h -12.64 m -15.04,0 h -30.400002 m 0,-359.200011 H 0 m -58.080002,45.44 H -27.68 m 15.04,0 H 0"
         style="fill:none;stroke:#000000;stroke-width:1.92;stroke-linecap:round;stroke-linejoin:round;stroke-miterlimit:10;stroke-dasharray:none;stroke-opacity:1"
         id="path917" /></g><g
       id="g919"
       transform="translate(605.28003,621.28003)"><path
         d="m 0,0 v -0.32 -0.8 -1.28 -1.76 -2.24 -2.56 -2.72 -3.04 -3.04 -3.039999 -3.040001 -2.879999 -2.400002 -2.24 -1.759998 -1.280003 -0.799999 V -35.52"
         style="fill:none;stroke:#000000;stroke-width:1.92;stroke-linecap:round;stroke-linejoin:round;stroke-miterlimit:10;stroke-dasharray:none;stroke-opacity:1"
         id="path921" /></g><g
       id="g923"><path
         d="m 605.28003,600.47998 h 3.67999 m -3.67999,6.08002 h 3.67999"
         style="fill:none;stroke:#000000;stroke-width:1.92;stroke-linecap:round;stroke-linejoin:round;stroke-miterlimit:10;stroke-dasharray:none;stroke-opacity:1"
         id="path925" /></g><g
       id="g927"><path
         d="m 604.15997,622.40002 0.48004,-0.16003 0.32001,-0.15997 0.15998,-0.32001 0.16003,-0.47998"
         style="fill:none;stroke:#000000;stroke-width:1.92;stroke-linecap:round;stroke-linejoin:bevel;stroke-miterlimit:10;stroke-dasharray:none;stroke-opacity:1"
         id="path929" /></g><g
       id="g931"><path
         d="m 605.28003,585.76001 -0.16003,-0.47998 -0.15998,-0.32001 -0.32001,-0.16003 -0.48004,-0.15998"
         style="fill:none;stroke:#000000;stroke-width:1.92;stroke-linecap:round;stroke-linejoin:bevel;stroke-miterlimit:10;stroke-dasharray:none;stroke-opacity:1"
         id="path933" /></g><g
       id="g935"><path
         d="m 578.23999,584.64001 h 25.91998 m -25.91998,37.76001 h 25.91998"
         style="fill:none;stroke:#000000;stroke-width:1.92;stroke-linecap:round;stroke-linejoin:round;stroke-miterlimit:10;stroke-dasharray:none;stroke-opacity:1"
         id="path937" /></g><g
       id="g939"><path
         d="m 622.56,603.67999 h 0.15997 l 0.16003,0.16004"
         style="fill:none;stroke:#000000;stroke-width:1.92;stroke-linecap:round;stroke-linejoin:round;stroke-miterlimit:10;stroke-dasharray:none;stroke-opacity:1"
         id="path941" /></g><g
       id="g943"
       transform="translate(622.56,603.67999)"><path
         d="m 0,0 0.32,1.28 0.16,1.28 0.32,1.28 0.16,1.28 0.16,1.28 0.16,1.28 0.16,1.28 0.16,1.28 0.16,1.28 0.16,1.28 0.16,1.44 v 1.28 l 0.16,1.279999 V 18.24 L 2.4,19.52 V 20.959999 22.4 23.68 25.120001 26.559999 28 28.639999 29.440001 L 2.24,30.08 v 0.799999 0.640001 0.8 l -0.16,0.639999 v 0.799999 0.800003 l -0.16,0.64 V 36 36.639999 l -0.16,0.8 v 0.800003 L 1.6,39.040001 V 39.68 l -0.16,0.8 -0.16,0.799999 v 0.800003 L 1.12,42.720001 0.96,43.52 v 0.8 l -0.16,0.799999 -0.16,0.799999 -0.16,0.800003 -0.16,0.64 V 48.16 L 0.16,48.959999 0,49.759998 l -0.16,0.800003 -0.16,0.8 -0.16,0.799999 -0.16,0.799999 -0.16,0.799999 -0.16,0.800003 -0.16,0.8 -0.32,0.799999 -0.16,0.799999 -0.16,0.799999 -0.16,0.960003 -0.16,0.799999 -0.32,0.8 -0.16,0.799999 -0.16,0.799999 -0.32,0.800003 -0.16,0.799999 -0.32,0.960003 -0.16,0.799996 -0.16,0.800003 -0.32,0.799995 -0.48,1.760002 -0.48,1.599999 L -5.6,72 l -0.64,1.599998 -0.16,0.96 -0.32,0.800003 -0.48,1.760002 -0.32,0.799995 -0.32,0.800003 L -8.16,79.68 -8.32,80 l -0.16,0.480003 -0.48,1.759995 -0.16,0.32 -0.16,0.480003 -0.32,0.799995 -0.32,0.960007 -0.32,0.799995 -0.16,0.480004 -0.16,0.479996 -0.16,0.319999 -0.16,0.480004 -0.16,0.479995 -0.16,0.480004 -0.32,0.800003 -0.32,0.799995 -0.16,0.480004 -0.16,0.479995 -0.16,0.32 -0.16,0.480003 -0.16,0.480004 -0.16,0.479995 -0.16,0.32 -0.32,0.480003 -0.32,0.96 -0.16,0.479995 -0.16,0.32 L -14.08,95.68 V 96 l -0.16,0.160004 -0.16,0.319999 v 0.159996 l -0.16,0.160004 v 0.32 l -0.16,0.159996 v 0.319999 l -0.16,0.160004 -0.16,0.32"
         style="fill:none;stroke:#000000;stroke-width:1.92;stroke-linecap:round;stroke-linejoin:round;stroke-miterlimit:10;stroke-dasharray:none;stroke-opacity:1"
         id="path945" /></g><g
       id="g947"
       transform="translate(607.03998,702.71997)"><path
         d="M 0,0 V 0.16 L -0.16,0.32 V 0.48 0.64 L -0.32,0.8 V 0.96 1.12 L -0.48,1.28 V 1.44 1.6 L -0.64,1.76 V 1.92 2.08 2.24 H -0.8"
         style="fill:none;stroke:#000000;stroke-width:1.92;stroke-linecap:round;stroke-linejoin:round;stroke-miterlimit:10;stroke-dasharray:none;stroke-opacity:1"
         id="path949" /></g><g
       id="g951"
       transform="translate(607.52002,707.20001)"><path
         d="M 0,0 -0.16,0.16 V 0.32 L -0.32,0.48 V 0.64 L -0.48,0.8 -0.64,0.96 -0.8,1.12 -0.96,1.28 H -1.12 -1.28 V 1.12 H -1.44 V 0.96 0.8 0.64 0.48 0.32 0.16 0 -0.16 -0.32 -0.48 -0.64 -0.8 l 0.16,-0.16 v -0.16 -0.16 -0.16 h 0.16 V -1.6 -1.76 -1.92 l 0.16,-0.16 V -2.24 -2.4 l 0.16,-0.16 v -0.16 l 0.16,-0.32 V -3.2 -3.36 l 0.16,-0.16 v -0.16 l 0.16,-0.16 V -4 l 0.16,-0.16 V -4.32 -4.48 L 0,-4.64 V -4.96 L 0.16,-5.12 V -5.28 L 0.32,-5.44 V -5.6 L 0.48,-5.76 V -6.08 L 0.64,-6.24 V -6.4 -6.56 L 0.8,-6.72 V -6.88 L 0.96,-7.2 1.12,-7.52 1.28,-7.84 1.44,-8.16 v -0.48 l 0.16,-0.32 0.32,-0.8 0.32,-0.64 0.16,-0.32 0.16,-0.48 0.16,-0.32 v -0.32"
         style="fill:none;stroke:#000000;stroke-width:1.92;stroke-linecap:round;stroke-linejoin:round;stroke-miterlimit:10;stroke-dasharray:none;stroke-opacity:1"
         id="path953" /></g><g
       id="g955"
       transform="translate(610.08002,618.23999)"><path
         d="M 0,0 0.16,-0.16 V -0.32 H 0.32 V -0.48 H 0.48 V -0.64 H 0.64 V -0.8 H 0.8 L 0.96,-0.96 V -1.12 H 1.12 L 1.28,-1.28 1.44,-1.44 1.6,-1.6 1.76,-1.76 1.92,-1.92 2.08,-2.08 2.24,-2.24 2.4,-2.4 2.56,-2.56 2.88,-2.88 3.04,-3.04 3.2,-3.2 3.52,-3.52 3.68,-3.68 3.84,-4 4.16,-4.16 4.32,-4.48 4.64,-4.64 4.8,-4.96 5.12,-5.28 5.44,-5.44 5.6,-5.76 5.92,-6.08 6.08,-6.4 6.4,-6.72 6.72,-7.04 6.88,-7.36 7.2,-7.68 7.52,-8 7.68,-8.32 8,-8.64 8.32,-8.96 8.48,-9.28 8.8,-9.6 l 0.32,-0.32 0.32,-0.32 0.16,-0.32 0.32,-0.32 0.32,-0.32 0.16,-0.48 0.32,-0.32 0.32,-0.32 0.16,-0.32 0.32,-0.32 0.32,-0.48 0.16,-0.32 0.32,-0.32 0.16,-0.48"
         style="fill:none;stroke:#000000;stroke-width:1.92;stroke-linecap:round;stroke-linejoin:round;stroke-miterlimit:10;stroke-dasharray:none;stroke-opacity:1"
         id="path957" /></g><g
       id="g959"><path
         d="M 622.71997,604.32001 H 622.88"
         style="fill:none;stroke:#000000;stroke-width:1.92;stroke-linecap:round;stroke-linejoin:round;stroke-miterlimit:10;stroke-dasharray:none;stroke-opacity:1"
         id="path961" /></g><g
       id="g963"
       transform="translate(605.76001,499.84)"><path
         d="M 0,0 V -0.16 -0.32 -0.48 -0.64 -0.8 l 0.16,-0.16 v -0.16 l 0.16,-0.16 h 0.16 0.16 v 0.16 H 0.8 v 0.16 h 0.16 l 0.16,0.16 v 0.16 l 0.16,0.16 v 0.16 L 1.44,0 1.6,0.16 V 0.32 L 1.76,0.48 V 0.8 L 1.92,0.96 V 1.28 L 2.08,1.44 V 1.76 L 2.24,1.92 V 2.24 L 2.4,2.72 2.56,3.36 2.72,3.84 2.88,4.48 3.04,5.12 V 5.6 L 3.2,6.24 V 6.88 L 3.36,7.52 3.52,8 v 0.64 l 0.16,0.64 v 0.64 l 0.16,0.64 V 11.2 L 4,12.48 v 1.28 l 0.16,1.28 0.16,1.44 v 1.28 l 0.16,1.280001 V 20.48 l 0.16,1.28 V 23.040001 24.48 L 4.8,25.92 V 27.200001 28.639999 29.92 l 0.16,1.440001 v 1.439998 1.440003 1.279998 1.439999 1.440003 L 5.12,39.84 V 41.279999 42.720001 44.16 45.599998 47.040001 48.48 49.919998 51.52 52.959999 54.400002 55.84 l 0.16,1.599999 V 58.880001 60.48 61.919998 63.52 v 1.439999 1.599999 1.600006 1.439994 1.599999 1.600006 1.599999 l -0.16,1.439994 v 1.600006 1.599999 1.599998 1.599999 1.599998 l -0.16,1.600006 v 1.599999 1.599998"
         style="fill:none;stroke:#000000;stroke-width:1.92;stroke-linecap:round;stroke-linejoin:round;stroke-miterlimit:10;stroke-dasharray:none;stroke-opacity:1"
         id="path965" /></g><g
       id="g967"
       transform="translate(610.88,588.47998)"><path
         d="m 0,0 v -1.44 l 0.16,-1.6 v -1.6 -1.6 -1.6 -1.44 -1.6 l 0.16,-1.6 v -1.44 -1.6 -1.439999 -1.6 V -20 -21.6 -23.040001 -24.48 -26.08 -27.52 -28.959999 -30.4 -31.84 L 0.16,-33.279999 V -34.720001 -36.32 -37.599998 -39.040001 -40.48 -41.919998 -43.360001 -44.799999 -46.240002 -47.52 -48.959999 L 0,-50.400002 V -51.68 -53.119999 -54.560001 -55.84 -57.279999 l -0.16,-1.280002 V -59.84 -61.279999 -62.560001 L -0.32,-64 v -1.279999 -1.279999 l -0.16,-1.279998 v -1.440003 -1.279999 l -0.16,-1.279998 v -1.280007 L -0.8,-74.400002 -0.96,-75.68 v -1.279999 l -0.16,-1.120003 -0.16,-0.639999 v -0.64 L -1.44,-80 v -0.639999 l -0.16,-0.480004 v -0.639999 l -0.16,-0.64 v -0.639999 l -0.16,-0.479996 -0.16,-0.640007 v -0.479995 l -0.16,-0.64 -0.16,-0.480003 -0.16,-0.479996 -0.16,-0.639999 v -0.160004 l -0.16,-0.32 v -0.159996 l -0.16,-0.319999 V -88 l -0.16,-0.160004"
         style="fill:none;stroke:#000000;stroke-width:1.92;stroke-linecap:round;stroke-linejoin:round;stroke-miterlimit:10;stroke-dasharray:none;stroke-opacity:1"
         id="path969" /></g><g
       id="g971"
       transform="translate(616.96002,530.71997)"><path
         d="m 0,0 0.32,1.12 0.32,1.12 0.48,1.28 0.32,1.12 0.32,1.12 0.32,1.28 0.32,1.12 0.32,1.12 0.32,1.28 0.32,1.12 0.16,1.12 0.32,1.12 0.32,1.12 0.32,1.12 0.16,1.120001 L 4.96,18.4 5.12,19.68 5.44,20.799999 5.6,21.76 5.76,22.879999 6.08,24 6.24,25.120001 6.4,26.24 6.56,27.360001 6.72,28.48 6.88,29.440001 7.04,30.559999 7.2,31.68 l 0.16,0.959999 0.16,1.119999 v 1.120003 L 7.68,35.84 v 1.119999 L 7.84,37.919998 8,39.040001 V 40 40.959999 l 0.16,1.120003 V 43.040001 44 v 1.119999 0.960003 l 0.16,0.959999 V 48 48.959999 49.919998 L 8.16,50.880001 V 51.84 52.799999 53.759998 L 8,54.720001 V 55.68 56.639999 l -0.16,0.959999 v 0.960003 L 7.68,59.52 v 0.8 l -0.16,0.959999 v 0.960003 L 7.36,63.200001 7.2,64 7.04,64.959999 v 0.800003 l -0.16,0.959999"
         style="fill:none;stroke:#000000;stroke-width:1.92;stroke-linecap:round;stroke-linejoin:round;stroke-miterlimit:10;stroke-dasharray:none;stroke-opacity:1"
         id="path973" /></g><g
       id="g975"
       transform="translate(623.84003,609.44)"><path
         d="m 0,0 v -2.72 -2.88 -3.04 -2.72 -2.56 -2.4 -1.76 -1.44 -0.8 -0.319999"
         style="fill:none;stroke:#000000;stroke-width:1.92;stroke-linecap:round;stroke-linejoin:round;stroke-miterlimit:10;stroke-dasharray:none;stroke-opacity:1"
         id="path977" /></g><g
       id="g979"><path
         d="m 608.96002,613.91998 v 1.92005 1.27997 0.79998 0.32001"
         style="fill:none;stroke:#000000;stroke-width:1.92;stroke-linecap:round;stroke-linejoin:round;stroke-miterlimit:10;stroke-dasharray:none;stroke-opacity:1"
         id="path981" /></g><g
       id="g983"
       transform="translate(608.96002,588.79999)"><path
         d="m 0,0 v 0.32 0.8 1.28 1.92 2.24 2.56 2.72 2.88 2.88 2.72 2.559999 2.240002"
         style="fill:none;stroke:#000000;stroke-width:1.92;stroke-linecap:round;stroke-linejoin:round;stroke-miterlimit:10;stroke-dasharray:none;stroke-opacity:1"
         id="path985" /></g><g
       id="g987"
       transform="translate(622.88,603.84003)"><path
         d="M 0,0 0.16,1.12 0.48,2.4 0.64,3.52 0.8,4.64 0.96,5.92 1.12,7.04 1.28,8.32 1.44,9.6 1.6,10.72 1.76,12 1.92,13.28 v 1.28 l 0.16,1.28 v 1.119999 L 2.24,18.24 v 1.44 1.279999 L 2.4,22.24 V 23.52 24.799999 26.24 L 2.24,27.52 V 28.799999 30.24 l -0.16,1.28 v 1.439999 L 1.92,34.400002 1.76,35.84 v 1.279999 L 1.6,38.560001 1.44,40 1.12,41.439999 0.96,42.880001 0.8,44.32 0.48,45.919998 0.32,47.360001 0,48.799999 -0.32,50.240002 -0.48,51.84 -0.8,53.279999 -0.96,54.080002 -1.12,54.880001 -1.28,55.52 l -0.32,0.8 -0.16,0.799999 -0.16,0.799999 -0.16,0.800003 -0.16,0.64 -0.16,0.799999 -0.32,0.799999 -0.32,1.600002 -0.48,1.600003 -0.32,1.439994 -0.48,1.599999 -0.48,1.600006 -0.48,1.599999 L -5.76,72 -6.24,73.599998 -6.72,75.199997 -7.36,76.800003 -7.84,78.400002 -8.48,80 l -0.48,1.760002 -0.64,1.599999 -0.48,1.599998 -0.64,1.599999 -0.64,1.600006 -0.64,1.759994 -0.64,1.599999"
         style="fill:none;stroke:#000000;stroke-width:1.92;stroke-linecap:round;stroke-linejoin:round;stroke-miterlimit:10;stroke-dasharray:none;stroke-opacity:1"
         id="path989" /></g><g
       id="g991"><path
         d="m 607.03998,702.88 0.16003,-0.32 0.15997,-0.32001 0.16004,-0.32001 v -0.15997"
         style="fill:none;stroke:#000000;stroke-width:1.92;stroke-linecap:round;stroke-linejoin:round;stroke-miterlimit:10;stroke-dasharray:none;stroke-opacity:1"
         id="path993" /></g><g
       id="g995"
       transform="translate(607.67999,706.88)"><path
         d="M 0,0 -0.16,0.16 -0.32,0.48 V 0.64 L -0.48,0.8 -0.64,0.96 V 1.12 L -0.8,1.28 -0.96,1.44 V 1.6 H -1.12 -1.28 V 1.76 H -1.44 V 1.6 H -1.6 -1.76 V 1.44 1.28 L -1.92,1.12 V 0.96 0.8 0.64 0.48 0.32 0.16 0 -0.16 h 0.16 V -0.32 -0.48 -0.64 -0.8 l 0.16,-0.16 v -0.16 -0.16 l 0.16,-0.16 V -1.6 -1.92"
         style="fill:none;stroke:#000000;stroke-width:1.92;stroke-linecap:round;stroke-linejoin:round;stroke-miterlimit:10;stroke-dasharray:none;stroke-opacity:1"
         id="path997" /></g><g
       id="g999"
       transform="translate(605.91998,706.23999)"><path
         d="M 0,0 V -0.16 L 0.16,-0.32 V -0.48 -0.64 -0.8 -0.96 L 0.32,-1.12 V -1.28 -1.44 -1.6 L 0.48,-1.76 V -2.08 -2.24 L 0.64,-2.56 0.8,-2.88 V -3.2 L 0.96,-3.84 1.12,-4.16 V -4.48 L 1.28,-4.8 1.44,-5.12 V -5.44 L 1.6,-5.6 V -5.92 L 1.76,-6.24 V -6.4 -6.72 L 1.92,-6.88 V -7.04 -7.2 L 2.08,-7.36 V -7.52 -7.68 -7.84 -8 H 2.24 V -8.16 -8.32 -8.48 -8.64 -8.8 L 2.4,-8.96 V -9.12 -9.28 -9.44 -9.6 -9.92 l 0.16,-0.16 v -0.32 -0.16 -0.32 -0.16 -0.32 l 0.16,-0.32 v -0.48 -0.64 -0.48 l 0.16,-0.64 v -0.64 -0.64 -0.64 l 0.16,-0.64 V -17.120001 -17.76 -18.4 -19.040001 -19.68 -20.32 L 3.2,-21.120001 V -22.4 -23.84 -25.120001 -26.559999 -28 -29.440001 -30.879999 -32.16 l 0.16,-1.439998 V -35.040001 -36.48 -38.080002 -39.52 l 0.16,-1.439999 V -42.400002 -43.84 -45.439999 l 0.16,-1.440002 V -48.32 -49.919998 l 0.16,-1.440003 v -1.599998 L 4,-54.400002 V -56 -57.439999 l 0.16,-1.600002 V -60.639999 -62.240002 -63.68 l 0.16,-1.599999 v -1.599998 -1.600006 -1.599999 -1.599998 -1.599999 l 0.16,-1.599998 v -1.600006 -1.599999 L 4.32,-79.68 v -1.760002 -1.599999 -1.599998 -1.599999 L 4.16,-88"
         style="fill:none;stroke:#000000;stroke-width:1.92;stroke-linecap:round;stroke-linejoin:round;stroke-miterlimit:10;stroke-dasharray:none;stroke-opacity:1"
         id="path1001" /></g><g
       id="g1003"
       transform="translate(617.12,675.67999)"><path
         d="M 0,0 V 0.16 0.32 H -0.16 V 0.48 0.64 0.8 L -0.32,0.96 V 1.12 1.44 L -0.48,1.6 V 1.92 L -0.64,2.08 V 2.4 2.56 L -0.8,2.88 V 3.2 L -0.96,3.36 V 3.68 L -1.12,4.16 -1.28,4.8 -1.44,5.28 -1.6,5.76 -1.76,6.4 V 6.88 L -1.92,7.36 -2.08,7.84 -2.24,8.48 -2.4,8.96 -2.56,9.44 -2.72,9.92 v 0.64 l -0.32,0.96 -0.32,1.12 -0.32,0.96 -0.16,0.96 -0.32,1.12 -0.32,0.959999 L -4.64,17.6 -4.96,18.719999 -5.28,19.68 -5.6,20.639999 -5.92,21.76 -6.24,22.719999 -6.56,23.68 -6.88,24.639999 -7.2,25.6 -7.52,26.719999 -8,27.68 -8.32,28.639999 -8.8,29.6 -9.12,30.559999 -9.44,31.040001 -9.6,31.52"
         style="fill:none;stroke:#000000;stroke-width:1.92;stroke-linecap:round;stroke-linejoin:round;stroke-miterlimit:10;stroke-dasharray:none;stroke-opacity:1"
         id="path1005" /></g><g
       id="g1007"
       transform="translate(605.91998,500.79999)"><path
         d="M 0,0 V -0.32 -0.48 H -0.16 V -0.64 -0.8 -0.96 -1.12"
         style="fill:none;stroke:#000000;stroke-width:1.92;stroke-linecap:round;stroke-linejoin:round;stroke-miterlimit:10;stroke-dasharray:none;stroke-opacity:1"
         id="path1009" /></g><g
       id="g1011"
       transform="translate(605.91998,498.88)"><path
         d="m 0,0 v -0.16 -0.16 h 0.16 v -0.16 h 0.16 0.16 l 0.16,0.16 H 0.8 v 0.16 H 0.96 V 0 L 1.12,0.16 V 0.32 L 1.28,0.48 1.44,0.64 1.6,0.96 v 0.16 l 0.16,0.32"
         style="fill:none;stroke:#000000;stroke-width:1.92;stroke-linecap:round;stroke-linejoin:round;stroke-miterlimit:10;stroke-dasharray:none;stroke-opacity:1"
         id="path1013" /></g><g
       id="g1015"
       transform="translate(616.96002,530.71997)"><path
         d="m 0,0 0.32,1.12 0.32,1.12 0.48,1.28 0.32,1.12 0.32,1.12 0.32,1.28 0.32,1.12 0.32,1.12 0.32,1.12 0.32,1.28 0.16,1.12 0.32,1.12 0.32,1.12 0.16,1.12 0.32,1.120001 L 4.96,18.4 5.12,19.52 5.28,20.639999 5.6,21.76 5.76,22.879999 5.92,24 6.24,25.120001 6.4,26.24 6.56,27.360001 6.72,28.48 6.88,29.6 7.04,30.559999 7.2,31.68 l 0.16,1.119999 0.16,0.959999 v 1.120003 L 7.68,36 7.84,36.959999 v 1.120003 L 8,39.040001 V 40.16 41.119999 l 0.16,0.960003 V 43.200001 44.16 45.119999 l 0.16,0.960003 V 47.200001 48.16 49.119999 50.080002 L 8.16,51.040001 V 52 v 0.959999 0.959999 0.960003 L 8,55.84 v 0.959999 l -0.16,0.959999 v 0.960003 L 7.68,59.52 v 0.96 l -0.16,0.959999 v 0.960003 L 7.36,63.200001 7.2,64.160004 7.04,65.120003 v 0.799995 l -0.16,0.959999"
         style="fill:none;stroke:#000000;stroke-width:1.92;stroke-linecap:round;stroke-linejoin:round;stroke-miterlimit:10;stroke-dasharray:none;stroke-opacity:1"
         id="path1017" /></g><g
       id="g1019"
       transform="translate(610.08002,588.47998)"><path
         d="m 0,0 0.16,-1.6 v -1.6 -1.76 -1.6 l 0.16,-1.6 v -1.76 -1.6 -1.6 -1.6 -1.6 -1.6 l -0.16,-1.6 v -1.600001 -1.599998 -1.600001 -1.6 L 0,-27.360001 v -1.599998 -1.6 L -0.16,-32.16 v -1.439998 -1.600003 -1.439998 l -0.16,-1.600003 V -39.68 l -0.16,-1.599999 V -42.720001 -44.16 -45.759998 l -0.16,-1.440003 v -1.439998 -1.440003 L -0.8,-51.52 V -52.959999 -54.400002 -55.84 l -0.16,-1.439999 V -58.720001 -60.16 -61.599998 -62.880001 -64.32 v -1.440002 -0.64 l -0.16,-0.639999 v -0.799995 -0.640007 -0.64 -0.639999 -0.64 -0.639999 L -1.28,-71.68 v -0.64 -0.639999 -0.639999 -0.64 l -0.16,-0.480003 v -0.64 -0.479995 -0.320008 l -0.16,-0.319999 v -0.159996 -0.32 -0.32 -0.160003 l -0.16,-0.32 v -0.159996 -0.160004 -0.32 -0.159996 -0.160003 l -0.16,-0.159996 v -0.160004 -0.159996 -0.160004 -0.159996 V -79.68 l -0.16,-0.159996 V -80 -80.160004 -80.32 l -0.16,-0.160003 v -0.159996 -0.160004 l -0.16,-0.159996 v -0.32 -0.160003 l -0.16,-0.159996 v -0.32 l -0.16,-0.32 v -0.32 l -0.16,-0.160003 v -0.32 l -0.16,-0.32 V -83.68 L -3.2,-84 -3.36,-84.32 v -0.319999 l -0.16,-0.32 v -0.480003 l -0.16,-0.159996 v -0.160004 -0.159996 l -0.16,-0.160004 v -0.32 -0.159996 L -4,-86.720001 v -0.159996 -0.160004 -0.159996 -0.160004 l -0.16,-0.159996 V -87.68 -87.839996 -88 -88.160004 L -4.32,-88.32 v -0.319999"
         style="fill:none;stroke:#000000;stroke-width:1.92;stroke-linecap:round;stroke-linejoin:round;stroke-miterlimit:10;stroke-dasharray:none;stroke-opacity:1"
         id="path1021" /></g><g
       id="g1023"
       transform="translate(607.67999,500.16)"><path
         d="M 0,0 0.16,0.48 0.32,0.96 0.8,1.92 1.12,2.88 1.6,3.84 1.92,4.8 2.24,5.76 2.56,6.72 2.88,7.68 3.2,8.64 3.52,9.76 3.84,10.72 4.16,11.68 4.8,13.6 4.96,14.72 5.28,15.68 5.6,16.639999 5.92,17.76 6.08,18.719999 6.4,19.68 l 0.16,0.64 0.16,0.479999 0.16,0.480002 V 21.76 l 0.16,0.64 0.16,0.479999 0.16,0.480002 0.16,0.479999 0.16,0.48 0.16,0.639999 v 0.480002 L 8,25.92 l 0.16,0.639999 0.16,0.480002 v 0.16 L 8.48,27.52 v 0.32 L 8.64,28 v 0.32 l 0.16,0.319999 v 0.16 0.320002 l 0.16,0.16 V 29.6 l 0.16,0.16 v 0.32 0.16 l 0.16,0.16 v 0.159999 0.16 0.16 h 0.16 v 0.160002"
         style="fill:none;stroke:#000000;stroke-width:1.92;stroke-linecap:round;stroke-linejoin:round;stroke-miterlimit:10;stroke-dasharray:none;stroke-opacity:1"
         id="path1025" /></g><g
       id="g1027"><path
         d="m 623.67999,588.79999 v -0.15998 h -0.15997"
         style="fill:none;stroke:#000000;stroke-width:1.92;stroke-linecap:round;stroke-linejoin:bevel;stroke-miterlimit:10;stroke-dasharray:none;stroke-opacity:1"
         id="path1029" /></g><g
       id="g1031"><path
         d="M 610.08002,618.56 H 609.12 m 14.40002,-30.08002 H 609.12"
         style="fill:none;stroke:#000000;stroke-width:1.92;stroke-linecap:round;stroke-linejoin:round;stroke-miterlimit:10;stroke-dasharray:none;stroke-opacity:1"
         id="path1033" /></g><g
       id="g1035"><path
         d="m 609.12,588.64001 h -0.15998 v 0.15998"
         style="fill:none;stroke:#000000;stroke-width:1.92;stroke-linecap:round;stroke-linejoin:bevel;stroke-miterlimit:10;stroke-dasharray:none;stroke-opacity:1"
         id="path1037" /></g><g
       id="g1039"><path
         d="m 608.96002,618.23999 v 0.16003 H 609.12"
         style="fill:none;stroke:#000000;stroke-width:1.92;stroke-linecap:round;stroke-linejoin:bevel;stroke-miterlimit:10;stroke-dasharray:none;stroke-opacity:1"
         id="path1041" /></g><g
       id="g1043"><path
         d="m 622.56,962.56 h 0.15997 l 0.16003,-0.15998"
         style="fill:none;stroke:#000000;stroke-width:1.92;stroke-linecap:round;stroke-linejoin:round;stroke-miterlimit:10;stroke-dasharray:none;stroke-opacity:1"
         id="path1045" /></g><g
       id="g1047"
       transform="translate(607.52002,859.03998)"><path
         d="M 0,0 -0.16,-0.16 V -0.32 L -0.32,-0.48 V -0.64 L -0.48,-0.8 -0.64,-0.96 -0.8,-1.12 -0.96,-1.28 h -0.16 -0.16 v 0.16 h -0.16 v 0.16 0.16 0.16 0.16 0.16 0.16 V 0 0.16 0.32 0.48 0.64 0.8 l 0.16,0.16 v 0.16 0.16 0.16 h 0.16 V 1.6 1.76 1.92 l 0.16,0.16 V 2.24 2.4 l 0.16,0.16 v 0.16 0.16 l 0.16,0.16 V 3.2 3.36 l 0.16,0.16 v 0.16 l 0.16,0.16 V 4 l 0.16,0.16 V 4.32 4.48 L 0,4.64 V 4.96 L 0.16,5.12 V 5.28 L 0.32,5.44 V 5.6 L 0.48,5.76 V 6.08 L 0.64,6.24 V 6.4 6.56 L 0.8,6.72 V 6.88 L 0.96,7.2 1.12,7.52 1.28,7.84 1.44,8.16 v 0.48 l 0.16,0.32 0.32,0.8 0.32,0.64 0.16,0.32 0.16,0.48 0.16,0.32 v 0.32"
         style="fill:none;stroke:#000000;stroke-width:1.92;stroke-linecap:round;stroke-linejoin:round;stroke-miterlimit:10;stroke-dasharray:none;stroke-opacity:1"
         id="path1049" /></g><g
       id="g1051"
       transform="translate(606.56,862.23999)"><path
         d="M 0,0 V -0.16 -0.32 L -0.16,-0.48 V -0.64 -0.8 -0.96 h -0.16"
         style="fill:none;stroke:#000000;stroke-width:1.92;stroke-linecap:round;stroke-linejoin:round;stroke-miterlimit:10;stroke-dasharray:none;stroke-opacity:1"
         id="path1053" /></g><g
       id="g1055"
       transform="translate(622.56,962.56)"><path
         d="m 0,0 0.32,-1.28 0.16,-1.28 0.32,-1.28 0.16,-1.28 0.16,-1.28 0.16,-1.28 0.16,-1.28 0.16,-1.28 0.16,-1.28 0.16,-1.28 0.16,-1.44 v -1.28 l 0.16,-1.279999 V -18.24 L 2.4,-19.52 V -20.959999 -22.4 -23.68 -25.120001 -26.559999 -28 -28.639999 -29.440001 L 2.24,-30.08 v -0.799999 -0.640001 -0.8 l -0.16,-0.639999 v -0.799999 -0.800003 l -0.16,-0.64 V -36 -36.639999 l -0.16,-0.8 v -0.800003 L 1.6,-39.040001 V -39.68 l -0.16,-0.8 -0.16,-0.799999 v -0.800003 L 1.12,-42.720001 0.96,-43.52 v -0.8 l -0.16,-0.799999 -0.16,-0.799999 -0.16,-0.800003 -0.16,-0.64 V -48.16 L 0.16,-48.959999 0,-49.759998 l -0.16,-0.800003 -0.16,-0.8 -0.16,-0.799999 -0.16,-0.799999 -0.16,-0.799999 -0.16,-0.800003 -0.16,-0.8 -0.32,-0.799999 -0.16,-0.799999 -0.16,-0.799999 -0.16,-0.960003 -0.16,-0.799999 -0.32,-0.8 -0.16,-0.799999 -0.16,-0.799999 -0.32,-0.800003 -0.16,-0.799999 -0.32,-0.960003 -0.16,-0.799996 -0.16,-0.800003 -0.32,-0.799995 -0.48,-1.760002 -0.48,-1.599999 L -5.6,-72 l -0.64,-1.599998 -0.16,-0.96 -0.32,-0.800003 -0.48,-1.760002 -0.32,-0.799995 -0.32,-0.800003 L -8.16,-79.68 -8.32,-80 l -0.16,-0.480003 -0.48,-1.759995 -0.16,-0.32 -0.16,-0.480003 -0.32,-0.799995 -0.32,-0.960007 -0.32,-0.799995 -0.16,-0.480004 -0.16,-0.479996 -0.16,-0.319999 -0.16,-0.480004 -0.16,-0.479995 -0.16,-0.480004 -0.32,-0.800003 -0.32,-0.799995 -0.16,-0.480004 -0.16,-0.479995 -0.16,-0.32 -0.16,-0.480003 -0.16,-0.480004 -0.16,-0.479995 -0.16,-0.32 -0.32,-0.480003 -0.32,-0.96 -0.16,-0.479995 -0.16,-0.32 L -14.08,-95.68 V -96 l -0.16,-0.160004 -0.16,-0.319999 v -0.159996 l -0.16,-0.160004 v -0.32 l -0.16,-0.159996 v -0.319999 l -0.16,-0.160004 -0.16,-0.32"
         style="fill:none;stroke:#000000;stroke-width:1.92;stroke-linecap:round;stroke-linejoin:round;stroke-miterlimit:10;stroke-dasharray:none;stroke-opacity:1"
         id="path1057" /></g><g
       id="g1059"
       transform="translate(607.03998,863.52002)"><path
         d="M 0,0 V -0.16 L -0.16,-0.32 V -0.48 -0.64 L -0.32,-0.8 v -0.16 -0.16 l -0.16,-0.16"
         style="fill:none;stroke:#000000;stroke-width:1.92;stroke-linecap:round;stroke-linejoin:round;stroke-miterlimit:10;stroke-dasharray:none;stroke-opacity:1"
         id="path1061" /></g><g
       id="g1063"
       transform="translate(610.08002,948)"><path
         d="M 0,0 0.16,0.16 V 0.32 H 0.32 V 0.48 H 0.48 V 0.64 H 0.64 V 0.8 H 0.8 L 0.96,0.96 V 1.12 H 1.12 L 1.28,1.28 1.44,1.44 1.6,1.6 1.76,1.76 1.92,1.92 2.08,2.08 2.24,2.24 2.4,2.4 2.56,2.56 2.88,2.88 3.04,3.04 3.2,3.2 3.52,3.52 3.68,3.68 3.84,4 4.16,4.16 4.32,4.48 4.64,4.64 4.8,4.96 5.12,5.28 5.44,5.6 5.6,5.76 5.92,6.08 6.08,6.4 6.4,6.72 6.72,7.04 6.88,7.36 7.2,7.68 7.52,8 7.68,8.32 8,8.64 8.32,8.96 8.48,9.28 8.8,9.6 l 0.32,0.32 0.32,0.32 0.16,0.32 0.32,0.32 0.32,0.32 0.16,0.48 0.32,0.32 0.32,0.32 0.16,0.32 0.32,0.32 0.32,0.48 0.16,0.32 0.32,0.32 0.16,0.48"
         style="fill:none;stroke:#000000;stroke-width:1.92;stroke-linecap:round;stroke-linejoin:round;stroke-miterlimit:10;stroke-dasharray:none;stroke-opacity:1"
         id="path1065" /></g><g
       id="g1067"><path
         d="M 622.71997,961.91998 H 622.88"
         style="fill:none;stroke:#000000;stroke-width:1.92;stroke-linecap:round;stroke-linejoin:round;stroke-miterlimit:10;stroke-dasharray:none;stroke-opacity:1"
         id="path1069" /></g><g
       id="g1071"
       transform="translate(610.88,977.76001)"><path
         d="m 0,0 v 1.6 l 0.16,1.44 v 1.6 1.6 1.6 1.44 1.6 l 0.16,1.6 v 1.44 1.6 1.439999 1.6 V 20 21.6 23.040001 24.48 26.08 27.52 28.959999 30.4 31.84 L 0.16,33.279999 V 34.720001 36.32 37.759998 39.040001 40.48 41.919998 43.360001 44.799999 46.240002 47.52 48.959999 L 0,50.400002 V 51.68 53.119999 54.560001 55.84 57.279999 l -0.16,1.280002 V 59.84 61.279999 62.560001 L -0.32,64 v 1.279999 1.279999 l -0.16,1.279998 v 1.440003 1.279999 l -0.16,1.279998 v 1.280007 L -0.8,74.400002 -0.96,75.68 v 1.279999 l -0.16,1.120003 -0.16,0.639999 v 0.64 L -1.44,80 v 0.639999 l -0.16,0.480004 v 0.639999 l -0.16,0.64 v 0.639999 l -0.16,0.479996 -0.16,0.640007 v 0.479995 l -0.16,0.64 -0.16,0.480003 -0.16,0.479996 -0.16,0.639999 v 0.160004 l -0.16,0.32 v 0.159996 l -0.16,0.319999 V 88 l -0.16,0.160004"
         style="fill:none;stroke:#000000;stroke-width:1.92;stroke-linecap:round;stroke-linejoin:round;stroke-miterlimit:10;stroke-dasharray:none;stroke-opacity:1"
         id="path1073" /></g><g
       id="g1075"
       transform="translate(616.96002,1035.52)"><path
         d="m 0,0 0.32,-1.12 0.32,-1.12 0.48,-1.28 0.32,-1.12 0.32,-1.12 0.32,-1.28 0.32,-1.12 0.32,-1.12 0.32,-1.28 0.32,-1.12 0.16,-1.12 0.32,-1.12 0.32,-1.12 0.32,-1.12 0.16,-1.120001 L 4.96,-18.4 5.12,-19.68 5.44,-20.799999 5.6,-21.76 5.76,-22.879999 6.08,-24 6.24,-25.120001 6.4,-26.24 6.56,-27.360001 6.72,-28.48 6.88,-29.440001 7.04,-30.559999 7.2,-31.68 l 0.16,-0.959999 0.16,-1.119999 v -1.120003 L 7.68,-35.84 v -1.119999 L 7.84,-37.919998 8,-39.040001 V -40 -40.959999 l 0.16,-1.120003 V -43.040001 -44 v -1.119999 -0.960003 l 0.16,-0.959999 V -48 -48.959999 -49.919998 L 8.16,-50.880001 V -51.84 -52.799999 -53.759998 L 8,-54.720001 V -55.68 -56.639999 l -0.16,-0.959999 v -0.960003 L 7.68,-59.52 v -0.8 l -0.16,-0.959999 v -0.960003 L 7.36,-63.200001 7.2,-64 7.04,-64.959999 v -0.800003 l -0.16,-0.959999"
         style="fill:none;stroke:#000000;stroke-width:1.92;stroke-linecap:round;stroke-linejoin:round;stroke-miterlimit:10;stroke-dasharray:none;stroke-opacity:1"
         id="path1077" /></g><g
       id="g1079"
       transform="translate(606.88,1067.2)"><path
         d="M 0,0 V -0.16 L 0.16,-0.32 V -0.48 L 0.32,-0.8 0.48,-0.96 V -1.12 L 0.64,-1.28 V -1.6 L 0.8,-1.76 V -2.08 L 0.96,-2.24 V -2.56 L 1.12,-2.72 V -3.04 L 1.28,-3.52 1.44,-4.16 1.6,-4.64 1.76,-5.28 1.92,-5.92 V -6.4 L 2.08,-7.04 V -7.68 L 2.24,-8.32 2.4,-8.8 v -0.64 l 0.16,-0.64 v -0.64 l 0.16,-0.64 V -12 l 0.16,-1.28 v -1.28 l 0.16,-1.28 0.16,-1.440001 v -1.279998 L 3.36,-19.84 v -1.440001 l 0.16,-1.279998 V -23.84 -25.280001 l 0.16,-1.439998 V -28 -29.440001 -30.719999 L 3.84,-32.16 v -1.439998 -1.440003 -1.279999 -1.439998 -1.440003 L 4,-40.639999 V -42.080002 -43.52 -44.959999 -46.400002 -47.84 -49.279999 -50.720001 -52.32 v -1.439998 -1.440003 -1.439998 l 0.16,-1.600003 V -59.68 -61.279999 -62.720001 -64.32 -65.760002 -67.360001 -68.959999 -70.400002 -72 -73.599998 -75.199997 L 4,-76.639999 v -1.599999 -1.599998 -1.600006 -1.599999 -1.599998 l -0.16,-1.599999 v -1.599998 -1.600006"
         style="fill:none;stroke:#000000;stroke-width:1.92;stroke-linecap:round;stroke-linejoin:round;stroke-miterlimit:10;stroke-dasharray:none;stroke-opacity:1"
         id="path1081" /></g><g
       id="g1083"><path
         d="M 606.40002,1067.52 H 606.56 v -0.16 h 0.15997 l 0.16003,-0.16"
         style="fill:none;stroke:#000000;stroke-width:1.92;stroke-linecap:round;stroke-linejoin:round;stroke-miterlimit:10;stroke-dasharray:none;stroke-opacity:1"
         id="path1085" /></g><g
       id="g1087"
       transform="translate(605.76001,1066.4)"><path
         d="M 0,0 V 0.16 0.32 0.48 0.64 0.8 L 0.16,0.96 V 1.12 L 0.32,1.28 H 0.48 0.64 V 1.12"
         style="fill:none;stroke:#000000;stroke-width:1.92;stroke-linecap:round;stroke-linejoin:round;stroke-miterlimit:10;stroke-dasharray:none;stroke-opacity:1"
         id="path1089" /></g><g
       id="g1091"
       transform="translate(623.84003,956.79999)"><path
         d="m 0,0 v 2.72 2.88 3.04 2.72 2.56 2.4 1.76 1.44 0.8 0.319999"
         style="fill:none;stroke:#000000;stroke-width:1.92;stroke-linecap:round;stroke-linejoin:round;stroke-miterlimit:10;stroke-dasharray:none;stroke-opacity:1"
         id="path1093" /></g><g
       id="g1095"><path
         d="M 608.96002,952.32001 V 950.56 949.12 948.32001 948"
         style="fill:none;stroke:#000000;stroke-width:1.92;stroke-linecap:round;stroke-linejoin:round;stroke-miterlimit:10;stroke-dasharray:none;stroke-opacity:1"
         id="path1097" /></g><g
       id="g1099"
       transform="translate(608.96002,977.44)"><path
         d="m 0,0 v -0.32 -0.8 -1.28 -1.92 -2.24 -2.56 -2.72 -2.88 -2.88 -2.72 -2.559999 -2.240002"
         style="fill:none;stroke:#000000;stroke-width:1.92;stroke-linecap:round;stroke-linejoin:round;stroke-miterlimit:10;stroke-dasharray:none;stroke-opacity:1"
         id="path1101" /></g><g
       id="g1103"
       transform="translate(610.23999,870.88)"><path
         d="m 0,0 0.32,0.8 0.32,0.8 0.64,1.76 0.32,0.8 0.32,0.8 0.32,0.8 0.32,0.8 0.16,0.48 0.16,0.32 0.16,0.8 0.64,1.76 0.48,1.6 0.64,1.6 0.48,1.6 0.64,1.6 0.48,1.6 0.16,0.799999 0.32,0.800001 0.16,0.8 0.32,0.800001 0.48,1.599998 0.48,1.600001 0.32,1.44 0.48,1.600001 0.48,1.599998 0.32,1.6 L 10.4,32 l 0.32,1.599998 0.32,1.600003 0.32,1.439998 0.32,1.600003 L 12,39.68 l 0.32,1.599999 0.32,1.440002 0.32,1.439999 0.16,1.439998 0.32,1.600003 0.16,1.439998 0.16,1.440003 0.16,1.439998 0.32,1.439999 v 0.639999 l 0.16,0.800004 V 55.040001 55.84 l 0.16,0.64 v 0.639999 0.799999 l 0.16,0.640003 V 60 l 0.16,1.279999 V 62.720001 64 l 0.16,1.279999 V 66.720001 68 69.279999 l -0.16,1.279999 v 1.279998 1.440003 l -0.16,1.279999 V 75.68 l -0.16,1.279999 v 1.279999 l -0.16,1.279999 -0.16,1.280006 -0.16,1.119995 -0.16,1.279999 -0.16,1.280006 -0.16,1.119995 -0.16,1.279999 L 13.28,88 l -0.16,1.120003 -0.32,1.279999 -0.16,1.119995"
         style="fill:none;stroke:#000000;stroke-width:1.92;stroke-linecap:round;stroke-linejoin:round;stroke-miterlimit:10;stroke-dasharray:none;stroke-opacity:1"
         id="path1105" /></g><g
       id="g1107"
       transform="translate(606.23999,861.28003)"><path
         d="M 0,0 V -0.32 -0.48 L -0.16,-0.64 V -0.8 -0.96 L -0.32,-1.12 V -1.28 -1.44 -1.6 L -0.48,-1.76 V -1.92 -2.08 -2.24 -2.4 -2.72 -2.88 -3.04 L -0.32,-3.2 V -3.36 -3.52 H -0.16 0 v -0.16 h 0.16 v 0.16 h 0.16 0.16 v 0.16 l 0.16,0.16 0.16,0.16 v 0.16 l 0.16,0.16 0.16,0.16 v 0.16 l 0.16,0.32 0.16,0.16"
         style="fill:none;stroke:#000000;stroke-width:1.92;stroke-linecap:round;stroke-linejoin:round;stroke-miterlimit:10;stroke-dasharray:none;stroke-opacity:1"
         id="path1109" /></g><g
       id="g1111"><path
         d="m 607.52002,864.64001 v -0.32 L 607.35998,864 l -0.15997,-0.32001 -0.16003,-0.32001"
         style="fill:none;stroke:#000000;stroke-width:1.92;stroke-linecap:round;stroke-linejoin:round;stroke-miterlimit:10;stroke-dasharray:none;stroke-opacity:1"
         id="path1113" /></g><g
       id="g1115"
       transform="translate(610.08002,948)"><path
         d="m 0,0 0.16,-1.76 v -1.6 -1.6 -1.6 l 0.16,-1.76 v -1.6 -1.6 -1.6 -1.6 -1.6 -1.6 l -0.16,-1.6 V -21.120001 -22.719999 -24.32 -25.76 L 0,-27.360001 v -1.599998 -1.6 V -32 l -0.16,-1.599998 v -1.440003 -1.599998 l -0.16,-1.440003 V -39.68 -41.119999 l -0.16,-1.440002 V -44.16 -45.599998 l -0.16,-1.440003 V -48.48 -50.080002 L -0.8,-51.52 v -1.439999 -1.440003 -1.439998 -1.279999 l -0.16,-1.440002 V -60 v -1.439999 -1.440002 -1.280003 -1.439994 -1.279999 L -1.12,-67.68 v -0.64 -0.639999 -0.639999 -0.64 -0.639999 -0.64 l -0.16,-0.640007 v -0.639999 -0.639999 -0.64 l -0.16,-0.479996 V -75.199997 -75.839996 -76.32 l -0.16,-0.319999 v -0.160004 -0.32 -0.319999 -0.159996 -0.32 l -0.16,-0.160004 v -0.32 -0.159996 -0.160003 -0.159996 -0.160004 l -0.16,-0.159996 V -79.360001 -79.519997 -79.68 -79.839996 -80 h -0.16 v -0.160004 -0.159996 -0.160003 -0.159996 l -0.16,-0.160004 v -0.159996 -0.160004 l -0.16,-0.319999 v -0.159996 -0.160004 l -0.16,-0.32 v -0.32 l -0.16,-0.159996 v -0.319999 l -0.16,-0.32 -0.16,-0.32 v -0.319999 l -0.16,-0.320008 v -0.319999 l -0.16,-0.32 v -0.32 l -0.16,-0.319999 -0.16,-0.32 v -0.159996 -0.32 l -0.16,-0.160004 v -0.159996 -0.160003 -0.159996 L -4,-87.040001 v -0.159996 -0.160004 -0.159996 L -4,-87.68 -4.16,-87.839996 V -88"
         style="fill:none;stroke:#000000;stroke-width:1.92;stroke-linecap:round;stroke-linejoin:round;stroke-miterlimit:10;stroke-dasharray:none;stroke-opacity:1"
         id="path1117" /></g><g
       id="g1119"
       transform="translate(607.52002,859.03998)"><path
         d="M 0,0 0.48,0.96 0.8,1.92 1.12,2.72 1.6,3.68 1.92,4.64 2.24,5.6 2.56,6.56 2.88,7.52 3.2,8.48 l 0.32,0.96 0.32,0.96 0.32,0.96 0.48,1.92 0.32,0.96 0.32,0.96 0.16,0.96 0.32,0.960001 L 6.08,18.08 6.24,19.040001 6.56,20 6.88,20.959999 v 0.480002 L 7.04,21.92 7.2,22.4 7.36,23.040001 7.52,23.52 V 24 L 7.68,24.48 7.84,24.959999 8,25.440001 8.16,25.92 8.32,26.559999 v 0.480002 L 8.48,27.52 8.64,28 v 0.32 l 0.16,0.16 v 0.319999 l 0.16,0.16 v 0.320002 l 0.16,0.16 V 29.76 29.92 l 0.16,0.32 v 0.16 0.159999 h 0.16 v 0.16 0.16"
         style="fill:none;stroke:#000000;stroke-width:1.92;stroke-linecap:round;stroke-linejoin:round;stroke-miterlimit:10;stroke-dasharray:none;stroke-opacity:1"
         id="path1121" /></g><g
       id="g1123"
       transform="translate(623.84003,968.64001)"><path
         d="M 0,0 0.16,1.12 0.32,2.24 0.48,3.36 0.64,4.48 V 5.6 L 0.8,6.88 0.96,8 v 1.12 l 0.16,1.12 v 1.28 l 0.16,1.12 v 1.28 1.12 l 0.16,1.28 V 17.440001 18.719999 20 21.120001 L 1.28,22.4 v 1.28 1.279999 L 1.12,26.24 v 1.28 L 0.96,28.799999 0.8,30.08 v 1.280001 L 0.64,32.639999 0.48,33.919998 0.32,35.360001 0.16,36.639999 0,37.919998 -0.32,39.360001 -0.48,40.639999 -0.8,42.080002 -0.96,43.52 -1.28,44.799999 -1.44,46.240002 -1.76,47.68 -2.08,48.959999 -2.4,50.400002 -2.72,51.84 -3.04,53.279999 -3.36,54.720001 -3.84,56.16 -4.16,57.599998 -4.64,59.040001 -4.96,60.48 l -0.48,1.439998 -0.32,1.440003 -0.48,1.599998 -0.48,1.440003 -0.48,1.439994 -0.48,1.440003 -0.48,1.599998 -0.48,1.440003 -0.48,1.440002 -0.48,1.599999 -0.64,1.440002 -0.48,1.599999 -0.48,1.439994 -0.64,1.600006 -0.48,1.439995 -0.64,1.600006 -0.64,1.439995"
         style="fill:none;stroke:#000000;stroke-width:1.92;stroke-linecap:round;stroke-linejoin:round;stroke-miterlimit:10;stroke-dasharray:none;stroke-opacity:1"
         id="path1125" /></g><g
       id="g1127"
       transform="translate(607.67999,1065.92)"><path
         d="M 0,0 -0.16,0.32 V 0.48 L -0.32,0.8 -0.48,0.96 -0.64,1.12 V 1.28 L -0.8,1.44 -0.96,1.6 V 1.76 H -1.12 L -1.28,1.92 H -1.44 -1.6 V 1.76 H -1.76 V 1.6 1.44"
         style="fill:none;stroke:#000000;stroke-width:1.92;stroke-linecap:round;stroke-linejoin:round;stroke-miterlimit:10;stroke-dasharray:none;stroke-opacity:1"
         id="path1129" /></g><g
       id="g1131"
       transform="translate(605.76001,1066.5601)"><path
         d="M 0,0 V -0.16 -0.32 -0.48 -0.64 H 0.16 V -0.8 -1.12"
         style="fill:none;stroke:#000000;stroke-width:1.92;stroke-linecap:round;stroke-linejoin:round;stroke-miterlimit:10;stroke-dasharray:none;stroke-opacity:1"
         id="path1133" /></g><g
       id="g1135"
       transform="translate(605.76001,1066.4)"><path
         d="M 0,0 V -0.32 L 0.16,-0.48 V -0.64 -0.8 -0.96 -1.12 L 0.32,-1.28 V -1.44 -1.6 -1.76 -1.92 L 0.48,-2.08 V -2.24 -2.56 L 0.64,-2.72 V -2.88 -3.04 L 0.8,-3.2 V -3.52 L 0.96,-4 V -4.32 L 1.12,-4.96 1.28,-5.28 1.44,-5.6 V -5.76 L 1.6,-6.08 V -6.4 L 1.76,-6.72 V -7.04 L 1.92,-7.2 V -7.52 L 2.08,-7.68 V -7.84 -8 -8.16 L 2.24,-8.32 V -8.48 -8.64 -8.8 L 2.4,-8.96 V -9.12 -9.28 -9.44 -9.6 -9.76 l 0.16,-0.16 v -0.16 -0.16 -0.32 -0.16 -0.16 l 0.16,-0.32 v -0.16 -0.32 -0.32 -0.16 -0.32 l 0.16,-0.32 v -0.48 -0.64 l 0.16,-0.48 v -0.64 -0.64 -0.64 -0.639999 L 3.2,-17.6 V -18.24 -18.879999 -19.52 -20.16 -20.799999 -21.6 l 0.16,-1.279999 V -24.32 -25.6 -27.040001 -28.48 v -1.44 -1.440001 -1.439998 l 0.16,-1.440003 V -35.68 -37.119999 -38.560001 -40 l 0.16,-1.439999 V -42.880001 -44.48 -45.919998 l 0.16,-1.440003 v -1.599998 -1.440003 L 4,-52 v -1.439999 -1.600002 l 0.16,-1.599998 V -58.080002 -59.68 l 0.16,-1.599999 V -62.720001 -64.32 l 0.16,-1.599998 v -1.599999 -1.600006 -1.599998 -1.599999 -1.599998 l 0.16,-1.599999 v -1.600006 -1.599998 l -0.16,-1.760002 v -1.599999 -1.599998 -1.760002 -1.599999 l -0.16,-1.599998"
         style="fill:none;stroke:#000000;stroke-width:1.92;stroke-linecap:round;stroke-linejoin:round;stroke-miterlimit:10;stroke-dasharray:none;stroke-opacity:1"
         id="path1137" /></g><g
       id="g1139"
       transform="translate(617.12,1035.04)"><path
         d="M 0,0 V 0.16 H -0.16 V 0.32 0.48 0.64 L -0.32,0.8 V 0.96 1.28 L -0.48,1.44 V 1.76 L -0.64,1.92 V 2.24 2.4 L -0.8,2.72 V 3.04 L -0.96,3.2 V 3.52 L -1.12,4 -1.28,4.48 -1.44,5.12 -1.6,5.6 V 6.08 L -1.76,6.72 -1.92,7.2 -2.08,7.68 -2.24,8.16 -2.4,8.8 -2.56,9.28 v 0.48 l -0.16,0.48 -0.32,1.12 -0.32,0.96 -0.16,0.96 -0.32,1.12 -0.32,0.96 -0.16,0.96 -0.32,1.120001 L -4.96,18.4 -5.28,19.360001 -5.6,20.32 -5.92,21.280001 -6.08,22.4 -6.4,23.360001 -6.88,24.32 -7.2,25.280001 -7.52,26.24 -7.84,27.200001 -8.32,28.16 -8.64,29.120001 -9.12,30.08 l -0.16,0.479999 -0.16,0.480002"
         style="fill:none;stroke:#000000;stroke-width:1.92;stroke-linecap:round;stroke-linejoin:round;stroke-miterlimit:10;stroke-dasharray:none;stroke-opacity:1"
         id="path1141" /></g><g
       id="g1143"><path
         d="m 623.52002,977.59998 h 0.15997 V 977.44"
         style="fill:none;stroke:#000000;stroke-width:1.92;stroke-linecap:round;stroke-linejoin:bevel;stroke-miterlimit:10;stroke-dasharray:none;stroke-opacity:1"
         id="path1145" /></g><g
       id="g1147"><path
         d="m 609.12,947.67999 h 0.96002 M 609.12,977.76001 h 14.40002"
         style="fill:none;stroke:#000000;stroke-width:1.92;stroke-linecap:round;stroke-linejoin:round;stroke-miterlimit:10;stroke-dasharray:none;stroke-opacity:1"
         id="path1149" /></g><g
       id="g1151"><path
         d="m 609.12,947.84003 h -0.15998 V 948"
         style="fill:none;stroke:#000000;stroke-width:1.92;stroke-linecap:round;stroke-linejoin:bevel;stroke-miterlimit:10;stroke-dasharray:none;stroke-opacity:1"
         id="path1153" /></g><g
       id="g1155"><path
         d="m 608.96002,977.44 v 0.15998 H 609.12"
         style="fill:none;stroke:#000000;stroke-width:1.92;stroke-linecap:round;stroke-linejoin:bevel;stroke-miterlimit:10;stroke-dasharray:none;stroke-opacity:1"
         id="path1157" /></g><g
       id="g1159"
       transform="translate(605.28003,944.96002)"><path
         d="m 0,0 v 0.32 0.8 1.28 1.76 2.24 2.56 2.72 3.04 3.04 3.039999 3.040001 2.879999 2.400002 2.24 1.759998 1.280003 0.799999 V 35.52"
         style="fill:none;stroke:#000000;stroke-width:1.92;stroke-linecap:round;stroke-linejoin:round;stroke-miterlimit:10;stroke-dasharray:none;stroke-opacity:1"
         id="path1161" /></g><g
       id="g1163"><path
         d="m 608.96002,965.76001 h -3.67999 m 3.67999,-6.08002 h -3.67999"
         style="fill:none;stroke:#000000;stroke-width:1.92;stroke-linecap:round;stroke-linejoin:round;stroke-miterlimit:10;stroke-dasharray:none;stroke-opacity:1"
         id="path1165" /></g><g
       id="g1167"><path
         d="m 604.15997,981.59998 0.48004,-0.15998 0.32001,-0.15997 0.15998,-0.32001 0.16003,-0.48004"
         style="fill:none;stroke:#000000;stroke-width:1.92;stroke-linecap:round;stroke-linejoin:bevel;stroke-miterlimit:10;stroke-dasharray:none;stroke-opacity:1"
         id="path1169" /></g><g
       id="g1171"><path
         d="M 605.28003,944.96002 605.12,944.47998 604.96002,944.15997 604.64001,944 l -0.48004,-0.15997"
         style="fill:none;stroke:#000000;stroke-width:1.92;stroke-linecap:round;stroke-linejoin:bevel;stroke-miterlimit:10;stroke-dasharray:none;stroke-opacity:1"
         id="path1173" /></g><g
       id="g1175"><path
         d="m 604.15997,981.59998 h -25.91998 m 25.91998,-37.75995 h -25.91998"
         style="fill:none;stroke:#000000;stroke-width:1.92;stroke-linecap:round;stroke-linejoin:round;stroke-miterlimit:10;stroke-dasharray:none;stroke-opacity:1"
         id="path1177" /></g><g
       id="g1179"
       transform="translate(607.67999,859.35998)"><path
         d="M 0,0 0.32,0.96 0.8,1.76 1.12,2.72 1.44,3.68 1.92,4.64 2.24,5.44 2.56,6.4 2.88,7.36 3.2,8.32 3.36,9.28 3.68,10.24 4,11.2 4.64,13.12 4.8,13.92 5.12,14.88 5.44,15.84 5.6,16.799999 5.92,17.92 6.08,18.879999 6.4,19.84 6.72,20.799999 v 0.480002 L 6.88,21.76 7.04,22.24 7.2,22.719999 7.36,23.200001 7.52,23.68 v 0.48 L 7.68,24.639999 7.84,25.280001 8,25.76 8.16,26.24 v 0.479999 L 8.32,27.200001 8.48,27.68 V 28 l 0.16,0.16 v 0.32 l 0.16,0.159999 v 0.32 l 0.16,0.160002 v 0.32 V 29.6 l 0.16,0.32 v 0.16 0.16 h 0.16 v 0.16 0.159999"
         style="fill:none;stroke:#000000;stroke-width:1.92;stroke-linecap:round;stroke-linejoin:round;stroke-miterlimit:10;stroke-dasharray:none;stroke-opacity:1"
         id="path1181" /></g></g></svg>
