<?xml version="1.0" encoding="UTF-8" standalone="no"?>
<svg
   xmlns:dc="http://purl.org/dc/elements/1.1/"
   xmlns:cc="http://creativecommons.org/ns#"
   xmlns:rdf="http://www.w3.org/1999/02/22-rdf-syntax-ns#"
   xmlns:svg="http://www.w3.org/2000/svg"
   xmlns="http://www.w3.org/2000/svg"
   xmlns:sodipodi="http://sodipodi.sourceforge.net/DTD/sodipodi-0.dtd"
   xmlns:inkscape="http://www.inkscape.org/namespaces/inkscape"
   version="1.1"
   id="svg3373"
   xml:space="preserve"
   width="1122.5601"
   height="1587.36"
   viewBox="0 0 1122.5601 1587.36"
   sodipodi:docname="drone-base-detail.svg"
   inkscape:version="1.0.1 (3bc2e813f5, 2020-09-07)"><metadata
     id="metadata3379"><rdf:RDF><cc:Work
         rdf:about=""><dc:format>image/svg+xml</dc:format><dc:type
           rdf:resource="http://purl.org/dc/dcmitype/StillImage" /><dc:title></dc:title></cc:Work></rdf:RDF></metadata><defs
     id="defs3377"><clipPath
       clipPathUnits="userSpaceOnUse"
       id="clipPath4201"><path
         d="m 592.96002,1074.88 v 322.5599 H 855.67999 V 1074.88 Z"
         clip-rule="evenodd"
         id="path4199" /></clipPath><clipPath
       clipPathUnits="userSpaceOnUse"
       id="clipPath4225"><path
         d="M -178.08,-289.12 V 33.439999 H 84.639999 V -289.12 Z"
         clip-rule="evenodd"
         id="path4223" /></clipPath><clipPath
       clipPathUnits="userSpaceOnUse"
       id="clipPath4239"><path
         d="m 592.96002,1074.88 v 322.5599 H 855.67999 V 1074.88 Z"
         clip-rule="evenodd"
         id="path4237" /></clipPath></defs><sodipodi:namedview
     pagecolor="#ffffff"
     bordercolor="#666666"
     borderopacity="1"
     objecttolerance="10"
     gridtolerance="10"
     guidetolerance="10"
     inkscape:pageopacity="0"
     inkscape:pageshadow="2"
     inkscape:window-width="1920"
     inkscape:window-height="1057"
     id="namedview3375"
     showgrid="false"
     inkscape:zoom="0.39646019"
     inkscape:cx="425.86856"
     inkscape:cy="970.44161"
     inkscape:window-x="-8"
     inkscape:window-y="-8"
     inkscape:window-maximized="1"
     inkscape:current-layer="g3381" /><g
     id="g3381"
     inkscape:groupmode="layer"
     inkscape:label="detail-rotor"
     transform="translate(0,1.3017334e-5)"><g
       id="g4191"
       transform="translate(563.93609,881.25805)"><path
         d="M 0,0 H -0.32 -0.48 -0.8 L -0.96,0.16 H -1.12 -1.44 -1.6 L -1.76,0.32 H -1.92 -2.24 -2.4 -2.56 -2.72 L -2.88,0.48 H -3.04 -3.2 -3.36 -3.52 -3.68 -3.84 V 0.64 H -4 -4.16"
         style="fill:none;stroke:#000000;stroke-width:1.92;stroke-linecap:round;stroke-linejoin:round;stroke-miterlimit:10;stroke-dasharray:none;stroke-opacity:1"
         id="path4193" /></g><g
       id="g4195"
       transform="translate(-156.38392,-501.94195)"><g
         id="g4197"
         clip-path="url(#clipPath4201)"><g
           id="g4203"><path
             d="m 792.15997,1123.6801 -3.19995,-2.7201 -3.20001,-2.56 -3.20001,-2.4 -3.35999,-2.4"
             style="fill:none;stroke:#000000;stroke-width:1.92;stroke-linecap:round;stroke-linejoin:bevel;stroke-miterlimit:10;stroke-dasharray:none;stroke-opacity:1"
             id="path4205" /></g><g
           id="g4207"><path
             d="m 801.59998,1132.8 -2.24,-2.4 -2.39996,-2.24 -2.40002,-2.24 -2.40003,-2.2399"
             style="fill:none;stroke:#000000;stroke-width:1.92;stroke-linecap:round;stroke-linejoin:bevel;stroke-miterlimit:10;stroke-dasharray:none;stroke-opacity:1"
             id="path4209" /></g><g
           id="g4211"><path
             d="m 809.12,1141.12 -3.68,-4.16 -3.84002,-4.16"
             style="fill:none;stroke:#000000;stroke-width:1.92;stroke-linecap:round;stroke-linejoin:bevel;stroke-miterlimit:10;stroke-dasharray:none;stroke-opacity:1"
             id="path4213" /></g></g></g><g
       id="g4215"
       transform="translate(652.89611,639.17805)"><path
         d="M 0,0 0.16,0.16 0.32,0.32 0.48,0.48 0.64,0.8 0.8,0.96 0.96,1.12 1.12,1.44 1.28,1.6 1.6,1.92 1.76,2.08 1.92,2.4 2.08,2.56 2.24,2.88 2.56,3.2 2.72,3.36 2.88,3.68 3.2,4 3.36,4.16 3.52,4.48 3.84,4.8 4,5.12 4.32,5.44 4.48,5.6 4.64,5.92 4.96,6.24 5.12,6.56 5.44,6.88 5.6,7.2 5.76,7.52 6.08,7.84 6.24,8.16 6.56,8.48 6.72,8.8 7.04,9.12 7.2,9.44 l 0.16,0.32 0.32,0.32 0.16,0.32 0.32,0.32 0.16,0.48 0.32,0.32 0.16,0.32 0.32,0.32 0.16,0.32 0.32,0.48 0.16,0.32 0.32,0.32 0.16,0.32 0.32,0.48 0.16,0.32 0.16,0.32 0.32,0.32 0.16,0.32 0.16,0.48 0.32,0.32 0.16,0.319999 0.16,0.320002 0.32,0.32 0.16,0.319999 0.16,0.32 0.16,0.32 0.16,0.319999 0.32,0.320002 0.16,0.32"
         style="fill:none;stroke:#000000;stroke-width:1.92;stroke-linecap:round;stroke-linejoin:round;stroke-miterlimit:10;stroke-dasharray:none;stroke-opacity:1"
         id="path4217" /></g><g
       id="g4219"
       transform="translate(614.65606,862.05805)"><g
         id="g4221"
         clip-path="url(#clipPath4225)"><path
           d="m 0,0 6.08,-3.84 6.08,-4.32 5.6,-4.48 5.600001,-4.640001 5.279998,-5.119999 4.959999,-5.28 4.800004,-5.439999 4.479999,-5.760002 4.16,-5.919998 4,-6.240002 3.52,-6.239998 3.359997,-6.560001 2.880001,-6.560002 2.720001,-6.879997 2.240002,-6.880005 1.919998,-7.039993 1.599999,-7.040001 1.279999,-7.200002 0.959999,-7.2 0.640007,-7.2 0.159996,-7.36 -0.159996,-7.19999 -0.480004,-7.36 -0.800003,-7.20002 L 69.599998,-156.16 68,-163.2 66.239998,-170.24 64,-177.11999 61.279999,-184 58.400002,-190.72 55.200001,-197.11999 51.68,-203.52"
           style="fill:none;stroke:#000000;stroke-width:1.92;stroke-linecap:round;stroke-linejoin:bevel;stroke-miterlimit:10;stroke-dasharray:none;stroke-opacity:1"
           id="path4227" /></g></g><g
       id="g4229"
       transform="translate(614.65606,862.21805)"><path
         d="M 0,0 -0.16,0.16 H -0.32 L -0.64,0.32 -0.8,0.48 -1.12,0.64 -1.28,0.8 -1.6,0.96 H -1.76 L -2.08,1.12 -2.24,1.28 -2.56,1.44 -2.88,1.6 -3.2,1.76 -3.36,1.92 -3.68,2.08 -4,2.24 -4.32,2.4 -4.64,2.72 -4.96,2.88 -5.28,3.04 -5.6,3.2 -5.92,3.36 -6.24,3.52 -6.56,3.68 -6.88,3.84 -7.2,4 -7.52,4.16 -7.84,4.32 -8.16,4.64 -8.48,4.8 -8.8,4.96 -9.12,5.12 -9.6,5.28 l -0.32,0.16 -0.32,0.16 -0.32,0.16 -0.32,0.16 -0.32,0.16 -0.32,0.16 -0.32,0.16 -0.32,0.16 -0.48,0.16 -0.32,0.16 -0.32,0.16 -0.32,0.16 -0.32,0.16 -0.32,0.16 -0.32,0.16 -0.32,0.16 -0.32,0.16 -0.32,0.16 h -0.32 l -0.32,0.16 -0.32,0.16 -0.159999,0.16 -0.32,0.16 -0.320002,0.16 H -17.6 l -0.16,0.16 -0.32,0.16 h -0.32 l -0.159999,0.16 -0.32,0.16 h -0.160002"
         style="fill:none;stroke:#000000;stroke-width:1.92;stroke-linecap:round;stroke-linejoin:round;stroke-miterlimit:10;stroke-dasharray:none;stroke-opacity:1"
         id="path4231" /></g><g
       id="g4233"
       transform="translate(-156.38392,-501.94195)"><g
         id="g4235"
         clip-path="url(#clipPath4239)"><path
           d="m 728.32001,1381.28 6.08001,-1.44 5.91999,-1.92 5.91998,-1.92 5.76001,-2.4"
           style="fill:none;stroke:#000000;stroke-width:1.92;stroke-linecap:round;stroke-linejoin:bevel;stroke-miterlimit:10;stroke-dasharray:none;stroke-opacity:1"
           id="path4241" /></g></g><g
       id="g4243"
       transform="translate(571.93609,879.49795)"><path
         d="M 0,0 -0.96,0.32 -1.92,0.48 -2.88,0.64 -4,0.96 -4.96,1.12 -5.92,1.28 -7.04,1.44 -8,1.76"
         style="fill:none;stroke:#000000;stroke-width:1.92;stroke-linecap:round;stroke-linejoin:round;stroke-miterlimit:10;stroke-dasharray:none;stroke-opacity:1"
         id="path4245" /></g><g
       id="g4247"
       transform="translate(-156.38392,-501.94195)"><path
         d="m 719.35998,1381.4399 0.48005,0.8001 0.47998,0.8"
         style="fill:none;stroke:#000000;stroke-width:0.96;stroke-linecap:round;stroke-linejoin:bevel;stroke-miterlimit:10;stroke-dasharray:none;stroke-opacity:1"
         id="path4249" /></g><g
       id="g4251"
       transform="translate(-156.38392,-501.94195)"><path
         d="m 712.47998,1378.24 0.64002,0.96 0.79998,0.64 1.12,0.64 1.28003,0.48 1.44,0.32 h 1.59997"
         style="fill:none;stroke:#000000;stroke-width:0.96;stroke-linecap:round;stroke-linejoin:bevel;stroke-miterlimit:10;stroke-dasharray:none;stroke-opacity:1"
         id="path4253" /></g><g
       id="g4255"
       transform="translate(558.33605,853.41805)"><path
         d="M 0,0 -0.16,1.12 0,2.4 0.48,3.68 1.12,4.96 2.24,6.4 3.36,7.52 4.8,8.8 l 1.6,0.96 1.6,0.8 1.76,0.64 1.76,0.48 1.6,0.16 h 1.44 L 16,11.68 17.120001,11.2 18.08,10.4"
         style="fill:none;stroke:#000000;stroke-width:1.92;stroke-linecap:round;stroke-linejoin:bevel;stroke-miterlimit:10;stroke-dasharray:none;stroke-opacity:1"
         id="path4257" /></g><g
       id="g4259"
       transform="translate(557.6961,854.21805)"><path
         d="m 0,0 -0.48,1.12 v 1.12 l 0.16,1.28 0.64,1.44 0.8,1.28 1.28,1.44 1.28,1.28 1.6,1.12 1.6,0.96 1.76,0.8 1.92,0.48 1.6,0.32 1.6,0.16 1.6,-0.32 1.12,-0.32 1.12,-0.8 0.64,-0.8 0.479999,-1.12 V 8.32 l -0.16,-1.28 L 17.92,5.6 17.120001,4.32 15.84,2.88 14.56,1.6 12.96,0.48 11.36,-0.48 9.6,-1.28 7.68,-1.76 6.08,-2.08 4.48,-2.24 2.88,-1.92 1.76,-1.6 0.64,-0.8 Z"
         style="fill:none;stroke:#000000;stroke-width:1.92;stroke-linecap:round;stroke-linejoin:bevel;stroke-miterlimit:10;stroke-dasharray:none;stroke-opacity:1"
         id="path4261" /></g><g
       id="g4263"
       transform="translate(577.85607,865.89805)"><path
         d="M 0,0 0.48,-1.12 0.64,-2.4 0.48,-3.84 0,-5.28 -0.8,-6.72 -1.92,-8.32 -3.2,-9.6 l -1.6,-1.44 -1.6,-1.12 -1.92,-1.12 -1.92,-0.8 -1.92,-0.8 -1.92,-0.32 -1.76,-0.16 h -1.76 l -1.440001,0.32 -1.279999,0.48 -1.120001,0.8 -0.639999,0.96 -0.479999,1.12 -0.16,1.28 0.16,1.44 0.479999,1.44 0.799999,1.44 1.120001,1.6 1.280001,1.28 1.599998,1.44 1.600001,1.12 1.92,1.12 1.92,0.8 1.92,0.8 1.92,0.32 1.76,0.16 h 1.76 l 1.44,-0.32 1.28,-0.48 1.12,-0.8 z"
         style="fill:none;stroke:#000000;stroke-width:1.92;stroke-linecap:round;stroke-linejoin:bevel;stroke-miterlimit:10;stroke-dasharray:none;stroke-opacity:1"
         id="path4265" /></g><g
       id="g4267"
       transform="translate(579.45611,863.17805)"><path
         d="M 0,0 0.48,-1.12 0.64,-2.24 0.48,-3.68 0.16,-4.96 -0.64,-6.4 -1.6,-7.84 l -1.12,-1.28 -1.44,-1.44 -1.44,-1.12 -1.76,-1.12 -1.76,-0.96 -1.92,-0.64 -1.76,-0.64 -1.76,-0.32 h -1.76 -1.6 l -1.280001,0.32 -1.279999,0.64 -0.960001,0.64 -0.639999,0.96"
         style="fill:none;stroke:#000000;stroke-width:1.92;stroke-linecap:round;stroke-linejoin:bevel;stroke-miterlimit:10;stroke-dasharray:none;stroke-opacity:1"
         id="path4269" /></g><g
       id="g4271"
       transform="translate(-156.38392,-501.94195)"><path
         d="M 752,1373.76 730.23999,1336 h -31.20001 m -0.63996,9.12 20.95996,36.3199 h 8.96003"
         style="fill:none;stroke:#000000;stroke-width:0.96;stroke-linecap:round;stroke-linejoin:round;stroke-miterlimit:10;stroke-dasharray:none;stroke-opacity:1"
         id="path4273" /></g><g
       id="g4275"
       transform="translate(-156.38392,-501.94195)"><path
         d="m 779.20001,1113.4399 2.08002,33.2801 h 12.31995 l -1.44001,-23.2"
         style="fill:none;stroke:#000000;stroke-width:1.92;stroke-linecap:round;stroke-linejoin:round;stroke-miterlimit:10;stroke-dasharray:none;stroke-opacity:1"
         id="path4277" /></g><g
       id="g4279"
       transform="translate(-156.38392,-501.94195)"><path
         d="m 801.76001,1132.64 -8.16003,14.08"
         style="fill:none;stroke:#000000;stroke-width:1.92;stroke-linecap:round;stroke-linejoin:round;stroke-miterlimit:10;stroke-dasharray:none;stroke-opacity:1"
         id="path4281" /></g><g
       id="g4283"
       transform="translate(-156.38392,-501.94195)"><path
         d="m 693.12,1278.4 0.96002,-1.76 M 716.79999,1237.4399 780,1127.36 M 694.71997,1278.4 H 693.12"
         style="fill:none;stroke:#000000;stroke-width:0.96;stroke-linecap:round;stroke-linejoin:round;stroke-miterlimit:10;stroke-dasharray:none;stroke-opacity:1"
         id="path4285" /></g><g
       id="g4287"
       transform="translate(-156.38392,-501.94195)"><path
         d="m 739.03998,1241.76 -21.12,36.64"
         style="fill:none;stroke:#000000;stroke-width:1.92;stroke-linecap:round;stroke-linejoin:round;stroke-miterlimit:10;stroke-dasharray:none;stroke-opacity:1"
         id="path4289" /></g><g
       id="g4291"
       transform="translate(-156.38392,-501.94195)"><path
         d="m 717.91998,1278.4 h 12.32001 l 79.04004,-137.28"
         style="fill:none;stroke:#000000;stroke-width:0.96;stroke-linecap:round;stroke-linejoin:round;stroke-miterlimit:10;stroke-dasharray:none;stroke-opacity:1"
         id="path4293" /></g><g
       id="g4295"
       transform="translate(-156.38392,-501.94195)"><path
         d="m 693.12,1278.5601 h -1.59998 l -1.44,0.3199 -1.28003,0.48 -1.12,0.64 -0.79999,0.64 -0.64001,0.96"
         style="fill:none;stroke:#000000;stroke-width:0.96;stroke-linecap:round;stroke-linejoin:bevel;stroke-miterlimit:10;stroke-dasharray:none;stroke-opacity:1"
         id="path4297" /></g><g
       id="g4299"
       transform="translate(-156.38392,-501.94195)"><path
         d="m 686.23999,1332.8 0.32001,0.6399 0.64001,0.6401 0.64002,0.4801 0.79998,0.4799 0.95997,0.32 0.96002,0.3201"
         style="fill:none;stroke:#000000;stroke-width:0.96;stroke-linecap:round;stroke-linejoin:bevel;stroke-miterlimit:10;stroke-dasharray:none;stroke-opacity:1"
         id="path4301" /></g><g
       id="g4303"
       transform="translate(536.89611,776.45805)"><path
         d="M 0,0 -1.44,2.72 -2.72,5.6 -3.84,8.8 -4.8,12 -5.6,15.36 -6.24,18.879999 -6.56,22.4 -6.88,26.08 v 3.68 l 0.16,3.519999 0.32,3.68 0.48,3.520001 0.64,3.52 0.96,3.200001 0.96,3.200001 1.28,3.039997"
         style="fill:none;stroke:#000000;stroke-width:0.96;stroke-linecap:round;stroke-linejoin:bevel;stroke-miterlimit:10;stroke-dasharray:none;stroke-opacity:1"
         id="path4305" /></g><g
       id="g4307"
       transform="translate(573.85607,833.89805)"><path
         d="m 0,0 h 1.6 l 1.76,-0.32 1.76,-0.48 1.76,-0.64 1.76,-0.8 1.76,-0.8 1.6,-1.12 1.6,-1.12 1.44,-1.28 1.28,-1.28 1.120001,-1.44 L 18.4,-10.56"
         style="fill:none;stroke:#000000;stroke-width:0.96;stroke-linecap:round;stroke-linejoin:bevel;stroke-miterlimit:10;stroke-dasharray:none;stroke-opacity:1"
         id="path4309" /></g><g
       id="g4311"
       transform="translate(592.41607,787.33805)"><path
         d="m 0,0 -1.12,2.08 -0.96,2.24 -0.8,2.56 -0.64,2.56 -0.48,2.88 -0.16,2.72 -0.16,2.88 0.16,2.879999 L -4,23.52 -3.52,26.4 -2.88,28.959999 -2.08,31.52 -1.12,33.759998 0,35.84"
         style="fill:none;stroke:#000000;stroke-width:0.96;stroke-linecap:round;stroke-linejoin:bevel;stroke-miterlimit:10;stroke-dasharray:none;stroke-opacity:1"
         id="path4313" /></g><g
       id="g4315"
       transform="translate(592.25609,787.17805)"><path
         d="M 0,0 -0.96,-1.28 -2.08,-2.72 -3.36,-4 -4.8,-5.28 -6.4,-6.4 -8,-7.52 l -1.76,-0.8 -1.76,-0.8 -1.76,-0.64 -1.76,-0.48 -1.759999,-0.32 H -18.4"
         style="fill:none;stroke:#000000;stroke-width:0.96;stroke-linecap:round;stroke-linejoin:bevel;stroke-miterlimit:10;stroke-dasharray:none;stroke-opacity:1"
         id="path4317" /></g><g
       id="g4319"
       transform="translate(573.85607,776.45805)"><path
         d="m 0,0 -1.44,2.72 -1.28,2.72 -0.96,3.04 -0.96,3.2 -0.8,3.2 -0.64,3.36 -0.48,3.52 -0.16,3.520001 -0.16,3.519998 0.16,3.520001 0.16,3.52 0.48,3.520001 0.64,3.36 0.8,3.199997 0.96,3.200001 0.96,3.040001 1.28,2.720001 1.44,2.719997"
         style="fill:none;stroke:#000000;stroke-width:0.96;stroke-linecap:round;stroke-linejoin:bevel;stroke-miterlimit:10;stroke-dasharray:none;stroke-opacity:1"
         id="path4321" /></g><g
       id="g4323"
       transform="translate(-156.38392,-501.94195)"><path
         d="M 748.79999,1289.12 822.88,1160.48 m -51.84002,203.68 -22.23999,-38.88"
         style="fill:none;stroke:#000000;stroke-width:0.96;stroke-linecap:round;stroke-linejoin:round;stroke-miterlimit:10;stroke-dasharray:none;stroke-opacity:1"
         id="path4325" /></g><g
       id="g4327"
       transform="translate(547.1361,779.81805)"><path
         d="M 0,0 -3.84,-2.08 M -8.64,-4.8 -41.919998,-22.879999 M 12.32,0 H 0 M -32.959999,-24.639999 -8.64,-11.36 M -4,-8.96 12.32,0 M 35.52,-40 7.68,-45.439999 M 12.32,0 14.4,-3.36"
         style="fill:none;stroke:#000000;stroke-width:1.92;stroke-linecap:round;stroke-linejoin:round;stroke-miterlimit:10;stroke-dasharray:none;stroke-opacity:1"
         id="path4329" /></g><g
       id="g4331"
       transform="translate(461.6961,711.65805)"><path
         d="m 0,0 -1.6,0.16 -1.44,0.48 -1.6,0.8 -1.44,1.12 -1.28,1.44 -1.28,1.6 -1.12,1.92 -0.96,2.24 -0.8,2.24 -0.64,2.56 -0.48,2.560001 -0.16,2.719999 -0.16,2.719999 0.16,2.720002 0.16,2.719999 0.48,2.559999 0.64,2.56 0.8,2.240002 0.96,2.239997 1.12,1.920002 1.28,1.599999 1.28,1.440002 1.44,1.119999 1.6,0.8 1.44,0.479999 1.6,0.16"
         style="fill:none;stroke:#000000;stroke-width:1.92;stroke-linecap:round;stroke-linejoin:bevel;stroke-miterlimit:10;stroke-dasharray:none;stroke-opacity:1"
         id="path4333" /></g><g
       id="g4335"
       transform="translate(509.21606,715.33805)"><path
         d="m 0,0 -1.44,0.16 -1.44,0.48 -1.28,0.8 -1.28,1.12 -1.12,1.28 -1.12,1.76 -0.96,1.76 -0.8,2.08 -0.64,2.24 -0.48,2.24 -0.16,2.56 -0.16,2.399999 0.16,2.400002 0.16,2.559999 0.48,2.24 0.64,2.24 0.8,2.08 0.96,1.76 1.12,1.759998 1.12,1.280003 1.28,1.119999 1.28,0.799999 1.44,0.479999 1.44,0.16"
         style="fill:none;stroke:#000000;stroke-width:1.92;stroke-linecap:round;stroke-linejoin:bevel;stroke-miterlimit:10;stroke-dasharray:none;stroke-opacity:1"
         id="path4337" /></g><g
       id="g4339"
       transform="translate(516.41607,715.49795)"><path
         d="m 0,0 -1.44,-1.44 -1.6,-1.12 -1.6,-0.8 -1.6,-0.48 h -1.6 l -1.6,0.32 -1.6,0.64 -1.6,1.12 -1.44,1.28 -1.28,1.76 L -16.639999,3.2 -17.6,5.28 -18.559999,7.68 -19.200001,10.4 -19.68,13.12 -20,15.84 -20.16,18.719999 -20,21.6 l 0.32,2.72 0.479999,2.720001 0.640002,2.719999 0.959999,2.4 0.960001,2.080002 L -15.36,36.16 l 1.28,1.759998 1.44,1.280003 1.6,1.119999 1.6,0.639999 1.6,0.32 h 1.6 l 1.6,-0.48 L -3.04,40 -1.44,38.880001 0,37.599998"
         style="fill:none;stroke:#000000;stroke-width:1.92;stroke-linecap:round;stroke-linejoin:bevel;stroke-miterlimit:10;stroke-dasharray:none;stroke-opacity:1"
         id="path4341" /></g><g
       id="g4343"
       transform="translate(555.93609,876.45805)"><path
         d="M 0,0 0.32,0.32 0.48,0.64 0.64,0.96 0.96,1.28 1.12,1.76 1.28,2.08 1.6,2.4 1.76,2.72 2.08,3.04 2.24,3.36 2.56,3.68 2.88,4.16 3.04,4.48 3.36,4.8 3.68,5.12 3.84,5.44"
         style="fill:none;stroke:#000000;stroke-width:1.92;stroke-linecap:round;stroke-linejoin:round;stroke-miterlimit:10;stroke-dasharray:none;stroke-opacity:1"
         id="path4345" /></g><g
       id="g4347"
       transform="translate(579.45611,863.17805)"><path
         d="m 0,0 -1.44,2.72 m -20.8,-15.52 -1.6,2.72 m -25.759998,-73.439997 4,-7.040001 M -23.68,-128.64 43.68,-245.75999"
         style="fill:none;stroke:#000000;stroke-width:1.92;stroke-linecap:round;stroke-linejoin:round;stroke-miterlimit:10;stroke-dasharray:none;stroke-opacity:1"
         id="path4349" /></g><g
       id="g4351"
       transform="translate(529.85607,779.65805)"><path
         d="M 0,0 -0.32,0.32 -0.48,0.64 -0.64,0.96 -0.8,1.44 -1.12,1.76 -1.28,2.08 -1.44,2.56 -1.6,2.88 -1.76,3.2 -1.92,3.68 -2.08,4 -2.24,4.48 -2.4,4.8 -2.56,5.12 -2.72,5.6 -2.88,5.92 -3.04,6.4 -3.2,6.72 -3.36,7.04 -3.52,7.52 -3.68,7.84 v 0.48 l -0.32,0.8 -0.16,0.8 -0.32,0.8 -0.16,0.8 -0.16,0.8 -0.32,0.8 -0.16,0.8 -0.16,0.8 -0.16,0.8 -0.16,0.8 v 0.960001 L -5.92,18.08 -6.08,18.879999 V 19.68 l -0.16,0.8 V 21.440001 22.24 L -6.4,23.040001 V 23.84 24.799999 25.6 26.4 27.200001 28.16 l 0.16,0.799999 V 29.76 30.559999 L -6.08,31.52 v 0.8 l 0.16,0.799999 0.16,0.799999 v 0.960003 L -5.6,35.68 l 0.16,0.8 0.16,0.799999 0.16,0.800003 0.32,0.799999 0.16,0.799999 0.16,0.8 0.32,0.799999 0.16,0.800003 0.32,0.799999 v 0.48 l 0.16,0.319999 0.16,0.48 0.16,0.32 0.16,0.319999 0.16,0.48 0.16,0.319999 0.16,0.480004 0.16,0.32 0.16,0.319999 0.16,0.48 0.16,0.319999 0.16,0.48 0.16,0.32 0.16,0.319999 0.16,0.48 0.16,0.32 0.32,0.319999 0.16,0.320004 0.16,0.479999 0.16,0.32 0.32,0.32"
         style="fill:none;stroke:#000000;stroke-width:1.92;stroke-linecap:round;stroke-linejoin:round;stroke-miterlimit:10;stroke-dasharray:none;stroke-opacity:1"
         id="path4353" /></g><g
       id="g4355"
       transform="translate(555.93609,876.45805)"><path
         d="m 0,0 -14.56,-25.6 m -7.52,-12.960001 -4,-7.039997 M -94.239998,-164.96001 h 47.519997 M -94.239998,-119.52 h 47.519997"
         style="fill:none;stroke:#000000;stroke-width:1.92;stroke-linecap:round;stroke-linejoin:round;stroke-miterlimit:10;stroke-dasharray:none;stroke-opacity:1"
         id="path4357" /></g><g
       id="g4359"
       transform="translate(529.37609,715.33805)"><path
         d="M 0,0 -1.44,0.48 -2.88,1.28 -4.32,2.24 -5.6,3.68 -6.72,5.44 -7.68,7.36 -8.48,9.6 -9.12,12 -9.6,14.4 -9.92,16.959999 V 19.68 l 0.16,2.56 0.32,2.559999 0.64,2.400002 0.8,2.24 0.96,2.079999 0.96,1.919999 1.28,1.440002 1.28,1.279999 1.44,0.799999 1.6,0.639999 1.44,0.16"
         style="fill:none;stroke:#000000;stroke-width:0.96;stroke-linecap:round;stroke-linejoin:bevel;stroke-miterlimit:10;stroke-dasharray:none;stroke-opacity:1"
         id="path4361" /></g><g
       id="g4363"
       transform="translate(529.53606,716.77805)"><path
         d="M 0,0 -1.28,0.48 -2.56,1.44 -3.84,2.56 -4.8,4 -5.76,5.76 -6.72,7.68 -7.36,9.76 -7.84,12 l -0.32,2.4 -0.16,2.399999 v 2.400002 L -8,21.6 l 0.32,2.24 0.64,2.24 0.8,2.08 0.8,1.76 1.12,1.6 1.12,1.279999 1.12,1.119999 1.44,0.800003 1.28,0.32 1.44,0.16 1.28,-0.16 L 4.64,34.400002 5.92,33.599998 7.2,32.48"
         style="fill:none;stroke:#000000;stroke-width:0.96;stroke-linecap:round;stroke-linejoin:bevel;stroke-miterlimit:10;stroke-dasharray:none;stroke-opacity:1"
         id="path4365" /></g><g
       id="g4367"
       transform="translate(530.33605,753.09805)"><path
         d="M 0,0 H 0.16 0.48 0.64 0.96 1.12 L 1.44,-0.16 H 1.6 1.92 L 2.08,-0.32 H 2.4 L 2.56,-0.48 H 2.88 L 3.04,-0.64 3.36,-0.8 H 3.52 L 3.68,-0.96 4,-1.12 4.16,-1.28 4.48,-1.44 4.64,-1.6 4.8,-1.76 4.96,-1.92 5.28,-2.08 5.44,-2.24 5.6,-2.4 5.92,-2.56 6.08,-2.88 6.24,-3.04 6.4,-3.2 6.56,-3.36 6.72,-3.68 7.04,-3.84"
         style="fill:none;stroke:#000000;stroke-width:1.92;stroke-linecap:round;stroke-linejoin:round;stroke-miterlimit:10;stroke-dasharray:none;stroke-opacity:1"
         id="path4369" /></g><g
       id="g4371"
       transform="translate(-156.38392,-501.94195)"><path
         d="m 665.59998,1217.28 h 20.16003 m -20.16003,37.76 h 21.11999"
         style="fill:none;stroke:#000000;stroke-width:1.92;stroke-linecap:round;stroke-linejoin:round;stroke-miterlimit:10;stroke-dasharray:none;stroke-opacity:1"
         id="path4373" /></g><g
       id="g4375"
       transform="translate(533.85607,585.09805)"><path
         d="M 0,0 H 0.32 0.64 L 0.96,-0.16 H 1.28 1.76 2.08 2.4 2.72"
         style="fill:none;stroke:#000000;stroke-width:1.92;stroke-linecap:round;stroke-linejoin:round;stroke-miterlimit:10;stroke-dasharray:none;stroke-opacity:1"
         id="path4377" /></g><g
       id="g4379"
       transform="translate(528.89611,696.93805)"><path
         d="m 0,0 -0.16,-1.92 v -1.76 l -0.16,-1.76 v -1.92 -1.76 l -0.16,-1.92 v -1.76 -1.92 -1.76 -1.92 l -0.16,-1.76 v -1.76 -1.92 -1.76 -1.92 -1.760001 -1.92 -1.759998 -1.920002 -1.759998 -1.920002 V -40.32 -42.080002 -44 -45.759998 -47.68 -49.439999 l 0.16,-1.920002 v -1.759998 -1.760002 -1.919998 -1.760002 V -60.48 l 0.16,-1.760002 v -1.920002 -1.759994 -1.919998 -1.760002 l 0.16,-1.760003 v -1.919998 -1.760002 -1.919998 -1.760002 L 0,-80.480003 v -1.919999 -1.760002 -0.959999 -0.799995 -0.959999 -0.959999 -0.960007 -0.799995 -0.96 -0.800003 V -92.32 l 0.16,-0.959999 v -0.800003 -0.959999 -0.799995 -0.960007 -0.959999 -0.799996 -0.480003 -0.479996 -0.319999 -0.480004 -0.48 l 0.16,-0.32 v -0.48 -0.48 -0.32 -0.48 -0.32 -0.48 l 0.16,-0.48 v -0.32 -0.48 l 0.16,-0.32 v -0.48 l 0.16,-0.32 v -0.48 -0.16 l 0.16,-0.16 v -0.16 -0.16 l 0.16,-0.16 v -0.16 -0.16 l 0.16,-0.16 v -0.16 -0.16 l 0.16,-0.16 v -0.16 l 0.16,-0.16 0.16,-0.32 0.16,-0.16 0.32,-0.32 0.16,-0.16 0.16,-0.32 0.32,-0.16 0.16,-0.16 0.32,-0.32 0.16,-0.32 0.32,-0.16 0.32,-0.32 0.16,-0.16 0.16,-0.16 h 0.16 l 0.16,-0.16 h 0.16"
         style="fill:none;stroke:#000000;stroke-width:1.92;stroke-linecap:round;stroke-linejoin:round;stroke-miterlimit:10;stroke-dasharray:none;stroke-opacity:1"
         id="path4381" /></g><g
       id="g4383"
       transform="translate(530.0161,723.17805)"><path
         d="m 0,0 -0.16,-1.6 v -1.76 l -0.16,-1.6 v -1.6 l -0.16,-1.6 v -1.76 l -0.16,-1.6 v -1.6 l -0.16,-1.6 v -1.76 -1.6 l -0.16,-1.6 v -1.600001 l -0.16,-1.76 V -24.639999 -26.24"
         style="fill:none;stroke:#000000;stroke-width:1.92;stroke-linecap:round;stroke-linejoin:round;stroke-miterlimit:10;stroke-dasharray:none;stroke-opacity:1"
         id="path4385" /></g><g
       id="g4387"
       transform="translate(541.37609,719.17805)"><path
         d="M 0,0 -0.48,0.16 H -0.8 -1.12 -1.6 -1.92 -2.4 L -2.72,0.32 H -3.04 L -3.52,0.48 H -3.84 L -4.16,0.64 H -4.64 L -4.96,0.8 -5.44,0.96 H -5.76 L -6.08,1.12 -6.56,1.28 -6.88,1.44 -7.2,1.6 -7.52,1.76 -8,1.92 -8.32,2.08 -8.64,2.24 -8.96,2.4 -9.28,2.56 -9.6,2.72 -9.92,2.88 -10.24,3.2 -10.56,3.36 -10.88,3.52 -11.2,3.68 -11.36,4"
         style="fill:none;stroke:#000000;stroke-width:1.92;stroke-linecap:round;stroke-linejoin:round;stroke-miterlimit:10;stroke-dasharray:none;stroke-opacity:1"
         id="path4389" /></g><g
       id="g4391"
       transform="translate(555.77605,694.69805)"><path
         d="m 0,0 -0.16,1.76 -0.16,1.76 -0.32,1.76 -0.16,1.76 -0.16,1.76 -0.32,1.76 -0.16,1.76 -0.32,1.76 -0.32,1.6 -0.16,1.760001 -0.32,1.76 -0.32,1.759998 -0.32,1.76 -0.32,1.760001 -0.32,1.6 -0.32,1.76"
         style="fill:none;stroke:#000000;stroke-width:1.92;stroke-linecap:round;stroke-linejoin:round;stroke-miterlimit:10;stroke-dasharray:none;stroke-opacity:1"
         id="path4393" /></g><g
       id="g4395"
       transform="translate(536.5761,584.93805)"><path
         d="M 0,0 0.16,0.16 H 0.32 L 0.48,0.32 0.64,0.48 H 0.8 L 0.96,0.64 V 0.8 L 1.12,0.96 1.28,1.12 H 1.44 L 1.6,1.28 V 1.44 L 1.76,1.6 1.92,1.76 V 2.08 L 2.08,2.24 2.24,2.4 V 2.56 L 2.4,2.72 2.56,2.88 V 3.2 L 2.72,3.36 V 3.52 L 2.88,3.84 3.04,4.16 3.2,4.64 3.36,5.12 3.52,5.6 3.84,6.4 4,6.88 4.16,7.36 4.32,7.84 4.48,8.16 4.64,8.64 4.8,9.12 l 0.16,0.32 0.16,0.48 0.32,0.8 0.64,1.44 0.16,0.48 0.16,0.32 0.16,0.48 0.16,0.32 0.16,0.48 0.16,0.48 0.16,0.32 0.16,0.48 0.32,0.8 0.16,0.960001 L 8.16,18.08 8.48,18.879999 8.64,19.360001 8.8,19.84 8.96,20.639999 9.28,21.440001 9.6,22.24 9.76,22.719999 9.92,23.040001 10.08,24 10.4,24.799999 10.72,25.6 10.88,26.559999 11.2,27.360001 11.52,28.16 11.68,29.120001 12,29.92 12.16,30.719999 12.64,32.48 13.12,34.240002 13.6,35.84 l 0.48,1.759998 0.48,1.760003 0.32,1.759998 0.48,1.760002 L 15.68,44.48 16.16,46.240002 16.48,48 l 0.319999,1.759998 0.320002,1.760002 0.32,1.759999 0.319999,1.760002 0.32,1.759998 0.16,1.760002 0.319999,1.759999 0.16,1.760002 0.320002,1.759998 0.16,1.759998 0.16,1.760003 0.159999,1.760002 0.16,1.759994 0.16,1.760002 0.16,1.760003 v 1.760002 l 0.16,1.759994 V 79.68 l 0.16,1.760002 v 1.759995 1.760002 1.760002 1.919998 1.760003 1.760002 1.759994 L 20.16,95.68 v 1.760002 L 20,99.199997 19.84,100.96 v 1.76 l -0.16,1.76 -0.16,1.76 -0.159999,1.76 -0.16,1.76"
         style="fill:none;stroke:#000000;stroke-width:1.92;stroke-linecap:round;stroke-linejoin:round;stroke-miterlimit:10;stroke-dasharray:none;stroke-opacity:1"
         id="path4397" /></g><g
       id="g4399"
       transform="translate(-156.38392,-501.94195)"><path
         d="m 690.23999,1087.04 h 0.16003"
         style="fill:none;stroke:#000000;stroke-width:1.92;stroke-linecap:round;stroke-linejoin:round;stroke-miterlimit:10;stroke-dasharray:none;stroke-opacity:1"
         id="path4401" /></g><g
       id="g4403"
       transform="translate(-156.38392,-501.94195)"><path
         d="m 686.23999,1225.12 -0.15997,-0.16"
         style="fill:none;stroke:#000000;stroke-width:1.92;stroke-linecap:round;stroke-linejoin:round;stroke-miterlimit:10;stroke-dasharray:none;stroke-opacity:1"
         id="path4405" /></g><g
       id="g4407"
       transform="translate(-156.38392,-501.94195)"><path
         d="m 686.08002,1224.64 h 0.15997 v -0.16 -0.1601"
         style="fill:none;stroke:#000000;stroke-width:1.92;stroke-linecap:round;stroke-linejoin:round;stroke-miterlimit:10;stroke-dasharray:none;stroke-opacity:1"
         id="path4409" /></g><g
       id="g4411"
       transform="translate(528.73608,697.09805)"><path
         d="m 0,0 v 1.6 1.6 l 0.16,1.6 v 1.76 l 0.16,1.6 v 1.6 1.6 l 0.16,1.6 v 1.76 l 0.16,1.6 v 1.6 l 0.16,1.6 v 1.600001 l 0.16,1.759998 V 24.48 l 0.16,1.6"
         style="fill:none;stroke:#000000;stroke-width:1.92;stroke-linecap:round;stroke-linejoin:round;stroke-miterlimit:10;stroke-dasharray:none;stroke-opacity:1"
         id="path4413" /></g><g
       id="g4415"
       transform="translate(529.21606,591.97805)"><path
         d="M 0,0 V 0.32 0.8 L -0.16,1.12 V 1.6 1.92 2.24 2.72 3.04 3.36 l -0.16,0.48 v 0.32 0.32 0.48 0.32 0.8 0.8 0.8 0.8 0.8 0.8 0.8 l -0.16,0.96 v 0.8 0.8 0.8 0.8 0.8 0.799999 0.800002 V 18.24 19.040001 19.84 20.799999 22.4 L -0.64,24 v 1.6 1.760001 1.599998 1.6 V 32.32 L -0.8,33.919998 V 35.52 37.279999 38.880001 40.48 42.240002 L -0.96,43.84 v 1.599999 1.760002 1.599998 1.600003 V 52.16 l -0.16,1.599998 v 1.600003 1.759998 1.600002 V 60.32 62.080002 63.68 65.279999 67.040001 68.639999 70.239998 72 v 1.599998 1.599999 1.760002 1.599999 1.760002 1.599998 1.599999 1.760002 l 0.16,1.599998 v 1.600006 1.759995 1.599998 1.600006 l 0.16,1.759995 v 1.600006 1.599999 L -0.64,100.16 v 1.6 1.6 l 0.16,1.76"
         style="fill:none;stroke:#000000;stroke-width:1.92;stroke-linecap:round;stroke-linejoin:round;stroke-miterlimit:10;stroke-dasharray:none;stroke-opacity:1"
         id="path4417" /></g><g
       id="g4419"
       transform="translate(-156.38392,-501.94195)"><path
         d="m 685.91998,1092.3199 -0.15997,0.4801 v 0.32 0.48 l -0.16003,0.32"
         style="fill:none;stroke:#000000;stroke-width:1.92;stroke-linecap:round;stroke-linejoin:round;stroke-miterlimit:10;stroke-dasharray:none;stroke-opacity:1"
         id="path4421" /></g><g
       id="g4423"
       transform="translate(533.85607,585.09805)"><path
         d="M 0,0 H -0.32 L -0.48,0.16 -0.64,0.32 -0.8,0.48 -0.96,0.64 -1.28,0.8 -1.44,0.96 -1.6,1.12 -1.76,1.28 -1.92,1.44 -2.08,1.6 -2.24,1.76 -2.4,1.92 -2.56,2.08 -2.72,2.24 -2.88,2.4 -3.04,2.56 V 2.72 L -3.2,2.88 -3.36,3.04 V 3.2 L -3.52,3.36 -3.68,3.52 V 3.68 L -3.84,3.84 V 4 L -4,4.16 V 4.48 L -4.16,4.64 V 4.8 l -0.16,0.32 v 0.16"
         style="fill:none;stroke:#000000;stroke-width:1.92;stroke-linecap:round;stroke-linejoin:round;stroke-miterlimit:10;stroke-dasharray:none;stroke-opacity:1"
         id="path4425" /></g><g
       id="g4427"
       transform="translate(-156.38392,-501.94195)"><path
         d="m 693.12,1086.88 h 0.16003"
         style="fill:none;stroke:#000000;stroke-width:1.92;stroke-linecap:round;stroke-linejoin:round;stroke-miterlimit:10;stroke-dasharray:none;stroke-opacity:1"
         id="path4429" /></g><g
       id="g4431"
       transform="translate(530.0161,883.33805)"><path
         d="M 0,0 H -0.16 -0.32 L -0.48,-0.16 H -0.64 -0.8 -0.96 -1.12 -1.28 -1.44 -1.6 -1.76"
         style="fill:none;stroke:#000000;stroke-width:1.92;stroke-linecap:round;stroke-linejoin:round;stroke-miterlimit:10;stroke-dasharray:none;stroke-opacity:1"
         id="path4433" /></g><g
       id="g4435"
       transform="translate(541.85607,749.25805)"><path
         d="M 0,0 0.16,2.08 0.32,4.32 0.48,6.4 0.64,8.64 0.8,10.72 0.96,12.96 V 15.2 L 1.12,17.280001 1.28,19.52 v 2.08 l 0.16,2.24 v 2.08 2.24 L 1.6,30.4 v 2.08 2.240001 2.079998 l 0.16,2.240002 v 2.239998 2.080002 2.239997 V 47.68 49.919998 52.16 54.240002 56.48 L 1.6,58.560001 v 2.239998 2.240002 2.080002 l -0.16,2.239998 v 2.080001 L 1.28,71.68 v 2.239998 L 1.12,76 v 2.239998 L 0.96,80.32 0.8,82.559998 v 2.240005 L 0.64,86.879997 0.48,89.120003 0.32,91.199997 0.16,93.440002 0,95.519997 -0.16,97.760002 -0.32,98.879997 V 100 l -0.16,0.96 -0.16,1.12 v 1.12 l -0.16,1.12 -0.16,0.96 -0.16,1.12 -0.16,1.12 -0.16,1.12 v 0.96 l -0.16,1.12 -0.32,1.12 -0.16,0.96 -0.16,1.12 -0.16,1.12 -0.16,0.96 -0.16,0.64 -0.16,0.48 v 0.48 l -0.16,0.64 -0.16,0.48 -0.16,0.48 v 0.64 l -0.16,0.48 -0.16,0.48 -0.16,0.64 -0.16,0.48 -0.16,0.48 -0.16,0.48 -0.16,0.48 -0.16,0.48 -0.16,0.64 -0.16,0.48 -0.16,0.48 -0.32,0.48 v 0.16 l -0.16,0.32 -0.16,0.32 -0.16,0.16 v 0.32 l -0.16,0.16 -0.16,0.32 -0.16,0.16 -0.16,0.32 -0.16,0.16001 V 128.64 l -0.16,0.16 -0.16,0.16001 -0.16,0.31999 -0.16,0.16 -0.16,0.16001 -0.16,0.31999 v 0.16 l -0.16,0.16 -0.16,0.15999 -0.16,0.16001 -0.16,0.16 -0.16,0.16 -0.16,0.15999 V 131.2 l -0.16,0.16 h -0.16 l -0.16,0.16 -0.16,0.15999 -0.16,0.16001 -0.16,0.16 -0.16,0.16 h -0.16 v 0.16001 l -0.16,0.15999 -0.16,0.16 -0.16,0.16 -0.16,0.16001 -0.32,0.31999 -0.32,0.16 -0.16,0.16001 -0.16,0.15998 -0.16,0.16001 -0.16,0.16"
         style="fill:none;stroke:#000000;stroke-width:1.92;stroke-linecap:round;stroke-linejoin:round;stroke-miterlimit:10;stroke-dasharray:none;stroke-opacity:1"
         id="path4437" /></g><g
       id="g4439"
       transform="translate(539.61608,745.09805)"><path
         d="M 0,0 V 0.32 L 0.16,0.48 V 0.8 0.96 L 0.32,1.12 V 1.44 L 0.48,1.6 V 1.76 2.08 L 0.64,2.24 V 2.4 2.56 L 0.8,2.72 V 2.88 L 0.96,3.04 V 3.2 L 1.12,3.36 V 3.52 L 1.28,3.68 V 3.84 H 1.44 V 4 H 1.6 v 0.16 h 0.16"
         style="fill:none;stroke:#000000;stroke-width:1.92;stroke-linecap:round;stroke-linejoin:round;stroke-miterlimit:10;stroke-dasharray:none;stroke-opacity:1"
         id="path4441" /></g><g
       id="g4443"
       transform="translate(528.25609,883.17805)"><path
         d="M 0,0 V -0.16 -0.32 -0.48 -0.64 -0.8 -0.96 -1.12 -1.28 -1.6 -1.76 -2.08 -2.24 -2.56 -2.72 L 0.16,-3.04 V -3.2 -3.52 -3.84 L 0.32,-4 V -4.32 L 0.48,-4.96 V -5.44 L 0.8,-6.56 V -7.2 L 0.96,-7.68 V -8.32 L 1.12,-8.8 v -0.48 l 0.16,-0.48 v -0.48 -0.48 l 0.16,-0.96 0.16,-0.48 v -0.64 -0.48 l 0.16,-0.48 v -0.48 l 0.16,-0.48 v -0.64 L 2.08,-15.84 2.24,-16.959999 2.4,-18.08 v -0.479999 l 0.16,-0.480002 V -19.52 l 0.16,-0.64 v -0.960001 L 2.88,-21.6 v -0.64 l 0.16,-0.479999 v -0.480002 L 3.2,-24.32 3.36,-25.440001 3.52,-26.4 3.68,-27.52 v -0.96 L 3.84,-29.6 4,-30.719999 4.16,-31.68 l 0.16,-1.119999 0.16,-1.119999 0.16,-0.960003 V -36 L 4.8,-37.119999 4.96,-38.240002 5.12,-39.200001 5.28,-40.32 v -1.119999 L 5.44,-42.560001 5.6,-43.52 5.76,-44.639999 v -1.119999 L 5.92,-46.880001 6.08,-48 6.24,-48.959999 v -1.120003 L 6.4,-51.200001 6.56,-52.32 6.72,-53.439999 v -0.960003 L 6.88,-55.52 7.04,-56.639999 v -1.119999 L 7.2,-58.880001 7.36,-60 v -1.119999 l 0.16,-0.960003 v -1.119999 L 7.68,-64.32 7.84,-65.440002 v -1.119996 L 8,-67.68 v -1.120003 l 0.16,-1.119995 0.16,-0.959999 V -72 l 0.16,-1.120003 v -1.119995 l 0.16,-1.120003 v -1.120002 l 0.16,-1.119995 v -1.120003 l 0.16,-1.119995 v -1.120003 l 0.16,-1.120003 v -0.959999 l 0.16,-1.120003 v -1.119995 l 0.16,-1.120003 v -1.119995 l 0.16,-1.120002 v -1.120003 -1.119995 L 9.76,-92 v -1.120003 l 0.16,-1.119995 V -95.199997 -96.32 l 0.16,-1.120002 V -98.559998 -99.68 l 0.16,-1.12 v -1.12 -1.12 l 0.16,-1.12 v -1.12 -0.96 l 0.16,-1.12 v -1.12 -1.12 -1.12 l 0.16,-1.12 v -1.12 -1.12 l 0.16,-1.12 v -0.96 -2.24 l 0.16,-2.24 v -2.24 -2.08 l 0.16,-2.24 v -2.24 -2.08 -2.23999 l 0.16,-2.08001 v -2.24"
         style="fill:none;stroke:#000000;stroke-width:1.92;stroke-linecap:round;stroke-linejoin:round;stroke-miterlimit:10;stroke-dasharray:none;stroke-opacity:1"
         id="path4445" /></g><g
       id="g4447"
       transform="translate(-156.38392,-501.94195)"><path
         d="m 684.47998,1385.12 h 0.16003 m 0,0 h 0.15998"
         style="fill:none;stroke:#000000;stroke-width:1.92;stroke-linecap:round;stroke-linejoin:round;stroke-miterlimit:10;stroke-dasharray:none;stroke-opacity:1"
         id="path4449" /></g><g
       id="g4451"
       transform="translate(539.29607,744.93805)"><path
         d="M 0,0 V 2.24 4.32 6.4 8.48 l -0.16,2.24 v 2.08 2.08 l -0.16,2.240001"
         style="fill:none;stroke:#000000;stroke-width:1.92;stroke-linecap:round;stroke-linejoin:round;stroke-miterlimit:10;stroke-dasharray:none;stroke-opacity:1"
         id="path4453" /></g><g
       id="g4455"
       transform="translate(-156.38392,-501.94195)"><path
         d="m 696,1249.12 h 0.15997 m -0.47998,0.48 h 0.16004"
         style="fill:none;stroke:#000000;stroke-width:1.92;stroke-linecap:round;stroke-linejoin:round;stroke-miterlimit:10;stroke-dasharray:none;stroke-opacity:1"
         id="path4457" /></g><g
       id="g4459"
       transform="translate(538.49608,749.09805)"><path
         d="M 0,0 V -0.16 -0.32 -0.48 -0.64 L 0.16,-0.8 V -0.96 -1.12 -1.28 L 0.32,-1.44 V -1.6 -1.76 -1.92 L 0.48,-2.08 V -2.24 -2.4 -2.72 L 0.64,-2.88 V -3.04 -3.2 -3.36 L 0.8,-3.68 v -0.16 -0.32"
         style="fill:none;stroke:#000000;stroke-width:1.92;stroke-linecap:round;stroke-linejoin:round;stroke-miterlimit:10;stroke-dasharray:none;stroke-opacity:1"
         id="path4461" /></g><g
       id="g4463"
       transform="translate(-156.38392,-501.94195)"><path
         d="m 686.23999,1385.28 h 0.16003"
         style="fill:none;stroke:#000000;stroke-width:1.92;stroke-linecap:round;stroke-linejoin:round;stroke-miterlimit:10;stroke-dasharray:none;stroke-opacity:1"
         id="path4465" /></g><g
       id="g4467"
       transform="translate(-156.38392,-501.94195)"><path
         d="M 686.40002,1385.28 H 686.56 Z"
         style="fill:none;stroke:#000000;stroke-width:1.92;stroke-linecap:round;stroke-linejoin:round;stroke-miterlimit:10;stroke-dasharray:none;stroke-opacity:1"
         id="path4469" /></g><g
       id="g4471"
       transform="translate(-156.38392,-501.94195)"><path
         d="m 684.64001,1385.12 h -0.16003"
         style="fill:none;stroke:#000000;stroke-width:1.92;stroke-linecap:round;stroke-linejoin:round;stroke-miterlimit:10;stroke-dasharray:none;stroke-opacity:1"
         id="path4473" /></g><g
       id="g4475"
       transform="translate(-156.38392,-501.94195)"><path
         d="m 695.67999,1246.88 h 0.16004 v 0.16 H 696"
         style="fill:none;stroke:#000000;stroke-width:1.92;stroke-linecap:round;stroke-linejoin:round;stroke-miterlimit:10;stroke-dasharray:none;stroke-opacity:1"
         id="path4477" /></g><g
       id="g4479"
       transform="translate(546.33605,719.49795)"><path
         d="M 0,0 -1.28,0.16 -2.56,0.8 -3.84,1.6 -4.96,2.88 -5.92,4.32 -6.88,6.08 -7.52,8 -8,10.24 l -0.32,2.24 -0.16,2.24 0.16,2.239999 0.32,2.240002 0.48,2.24 0.64,1.92 0.96,1.76 0.96,1.439998 1.12,1.280001 1.28,0.799999 1.28,0.640002 1.28,0.16"
         style="fill:none;stroke:#000000;stroke-width:0.96;stroke-linecap:round;stroke-linejoin:bevel;stroke-miterlimit:10;stroke-dasharray:none;stroke-opacity:1"
         id="path4481" /></g><g
       id="g4483"
       transform="translate(546.33605,748.93805)"><path
         d="M 0,0 1.28,-0.16 2.56,-0.8 3.84,-1.6 4.96,-2.88 5.92,-4.32 6.88,-6.08 7.52,-8 8,-10.24 8.32,-12.48 8.48,-14.72 8.32,-16.959999 8,-19.200001 l -0.48,-2.24 -0.64,-1.92 -0.96,-1.76 L 4.96,-26.559999 3.84,-27.84 2.56,-28.639999 1.28,-29.280001 0,-29.440001"
         style="fill:none;stroke:#000000;stroke-width:0.96;stroke-linecap:round;stroke-linejoin:bevel;stroke-miterlimit:10;stroke-dasharray:none;stroke-opacity:1"
         id="path4485" /></g><g
       id="g4487"
       transform="translate(537.6961,734.21805)"><path
         d="m 0,0 v 1.92 l 0.32,1.92 0.32,1.92 0.48,1.6 0.64,1.76 0.8,1.44 0.8,1.28 0.8,1.12 1.12,0.8 0.96,0.64 1.12,0.32 1.12,0.16"
         style="fill:none;stroke:#000000;stroke-width:0.96;stroke-linecap:round;stroke-linejoin:bevel;stroke-miterlimit:10;stroke-dasharray:none;stroke-opacity:1"
         id="path4489" /></g><g
       id="g4491"
       transform="translate(546.17608,719.33805)"><path
         d="m 0,0 -1.12,0.16 -1.12,0.32 -0.96,0.64 -0.96,0.8 -0.96,1.12 -0.8,1.28 -0.8,1.44 -0.64,1.6 -0.48,1.76 -0.32,1.92 -0.32,1.92 v 1.92"
         style="fill:none;stroke:#000000;stroke-width:0.96;stroke-linecap:round;stroke-linejoin:bevel;stroke-miterlimit:10;stroke-dasharray:none;stroke-opacity:1"
         id="path4493" /></g><g
       id="g4495"
       transform="translate(-156.38392,-501.94195)"><path
         d="m 686.40002,1225.12 h -0.16003"
         style="fill:none;stroke:#000000;stroke-width:1.92;stroke-linecap:round;stroke-linejoin:round;stroke-miterlimit:10;stroke-dasharray:none;stroke-opacity:1"
         id="path4497" /></g><g
       id="g4499"
       transform="translate(529.6961,721.73815)"><path
         d="m 0,0 -0.96,1.28 -0.8,1.44 -0.8,1.76 -0.48,1.76 -0.48,2.08 -0.16,2.08 -0.16,2.08 0.16,2.08 0.16,2.079999 0.48,2.08 0.48,1.760001 0.8,1.76 0.8,1.44 L 0,24.959999 1.12,26.08 l 1.12,0.639999 1.12,0.480002 1.28,0.16"
         style="fill:none;stroke:#000000;stroke-width:0.96;stroke-linecap:round;stroke-linejoin:bevel;stroke-miterlimit:10;stroke-dasharray:none;stroke-opacity:1"
         id="path4501" /></g><g
       id="g4503"
       transform="translate(-156.38392,-501.94195)"><path
         d="M 695.84003,1248 Z"
         style="fill:none;stroke:#000000;stroke-width:0.96;stroke-linecap:round;stroke-linejoin:bevel;stroke-miterlimit:10;stroke-dasharray:none;stroke-opacity:1"
         id="path4505" /></g><g
       id="g4507"
       transform="translate(-156.38392,-501.94195)"><path
         d="M 695.67999,1248.3199 Z"
         style="fill:none;stroke:#000000;stroke-width:0.96;stroke-linecap:round;stroke-linejoin:bevel;stroke-miterlimit:10;stroke-dasharray:none;stroke-opacity:1"
         id="path4509" /></g><g
       id="g4511"
       transform="translate(-156.38392,-501.94195)"><path
         d="M 695.84003,1247.84 Z"
         style="fill:none;stroke:#000000;stroke-width:0.96;stroke-linecap:round;stroke-linejoin:bevel;stroke-miterlimit:10;stroke-dasharray:none;stroke-opacity:1"
         id="path4513" /></g><g
       id="g4515"
       transform="translate(-156.38392,-501.94195)"><path
         d="M 696,1247.36 Z"
         style="fill:none;stroke:#000000;stroke-width:0.96;stroke-linecap:round;stroke-linejoin:bevel;stroke-miterlimit:10;stroke-dasharray:none;stroke-opacity:1"
         id="path4517" /></g><g
       id="g4519"
       transform="translate(529.6961,723.01805)"><path
         d="m 0,0 v -1.76 l -0.16,-1.76 v -1.6 -1.76 l -0.16,-1.76 v -1.6 L -0.48,-12 v -1.76 l -0.16,-1.76 v -1.600001 l -0.16,-1.759998 v -1.76 L -0.96,-22.24 V -24 l -0.16,-1.76 v -1.76 -1.600001 l -0.16,-1.759998 v -1.76 l -0.16,-1.760003 V -36 -37.759998 L -1.6,-39.52 v -1.759999 -1.760002 l -0.16,-1.599998 V -46.400002 -48.16 -49.919998 L -1.92,-51.52 v -1.759999 -1.760002 -1.759998 -1.600003 V -60.16 -61.919998 -63.68 v -1.599999 -1.760002 -1.760002 -3.360001 L -1.76,-75.68 v -3.360001 l 0.16,-3.519997 v -3.36 l 0.16,-3.520004 v -3.360001 L -1.28,-96.32 V -97.919998 -99.68 l 0.16,-1.76 v -1.76 -1.6 -1.76 l 0.16,-1.76 v -1.76"
         style="fill:none;stroke:#000000;stroke-width:1.92;stroke-linecap:round;stroke-linejoin:round;stroke-miterlimit:10;stroke-dasharray:none;stroke-opacity:1"
         id="path4521" /></g><g
       id="g4523"
       transform="translate(536.73608,584.93805)"><path
         d="M 0,0 0.16,0.16 0.48,0.32 0.64,0.48 0.8,0.64 0.96,0.8 1.12,0.96 1.28,1.28 1.44,1.44 1.6,1.6 1.76,1.92 1.92,2.08 2.08,2.4 2.24,2.56 2.4,2.88 V 3.04 L 2.56,3.36 2.72,3.68 V 3.84 L 2.88,4.16 3.04,4.32 3.2,4.96 3.36,5.44 3.68,6.4 3.84,7.04 4,7.52 4.32,8 4.48,8.48 4.64,9.12 4.8,9.6 l 0.48,0.96 0.48,1.12 0.32,0.96 0.32,0.48 0.16,0.48 0.32,1.12 0.48,0.96 0.32,1.119999 L 8,17.76 8.32,18.879999 8.8,19.84 9.12,20.959999 9.44,21.92 9.76,23.040001 10.08,24.16 l 0.64,2.08 0.64,2.08 0.64,2.08 0.48,2.239999 0.32,0.959999 0.32,1.120003 0.32,1.119999 0.32,0.959999 0.16,1.119999 0.32,1.120003 L 14.56,40 l 0.16,1.119999 0.32,1.120003 0.16,1.119999 0.32,0.959999 0.16,1.119999 0.32,1.120002 0.16,0.959999 0.32,1.119999 0.159999,1.119999 0.16,1.120003 L 17.120001,52 l 0.16,0.959999 0.16,1.120003 L 17.6,55.200001 17.76,56.32 l 0.16,1.119999 0.16,0.960003 0.16,1.119998 0.16,1.119999 0.159999,1.119999 0.16,1.120003 0.16,0.959999 0.160002,1.119999 v 1.120003 l 0.16,1.119995 0.16,1.120003 v 1.120002 L 19.52,70.559998 19.68,71.68 v 0.959999 l 0.16,1.120003 V 74.879997 76 L 20,77.120003 v 1.119995 1.120003 1.120002 l 0.16,1.119995 v 1.120003 1.119995 0.960007 1.119995 1.120003 1.120003 1.119995 1.120003 1.119995 1.120002 L 20,93.760002 V 94.879997 96 97.120003 l -0.16,1.119995 V 99.199997 100.32 l -0.16,1.12 v 1.12 l -0.16,1.12 v 1.12 l -0.159999,1.12 v 1.12 l -0.16,1.12 -0.16,1.12 v 1.12 l -0.160002,1.12 -0.16,0.96 v 1.12 l -0.16,1.12 -0.159999,1.12 -0.16,1.12 -0.16,1.12 -0.32,2.24 -0.16,2.08 -0.319999,2.24 -0.480002,2.24 -0.319999,2.08001 -0.32,2.23999 -0.48,2.24 -0.32,2.08 -0.48,2.23999"
         style="fill:none;stroke:#000000;stroke-width:1.92;stroke-linecap:round;stroke-linejoin:round;stroke-miterlimit:10;stroke-dasharray:none;stroke-opacity:1"
         id="path4525" /></g><g
       id="g4527"
       transform="translate(537.53606,794.37795)"><path
         d="M 0,0 0.16,-1.28 V -2.56 L 0.32,-4 V -5.28 -6.72 L 0.48,-8 v -1.44 l 0.16,-1.28 v -1.44 -1.28 l 0.16,-1.44 v -1.44 -1.44 l 0.16,-1.440001 V -20.48 -21.92 -23.360001 -24.799999 -26.24 l 0.16,-1.44 V -29.120001 -30.559999 -32 -33.439999 -34.880001 -36.32 -37.919998 l -0.16,-1.440003 v -1.439998 -1.440003 -1.439998 -1.599999"
         style="fill:none;stroke:#000000;stroke-width:1.92;stroke-linecap:round;stroke-linejoin:round;stroke-miterlimit:10;stroke-dasharray:none;stroke-opacity:1"
         id="path4529" /></g><g
       id="g4531"
       transform="translate(541.85607,749.25805)"><path
         d="m 0,0 0.16,2.08 0.16,2.08 0.16,2.08 0.16,2.08 0.16,2.08 0.16,2.24 0.16,2.08 v 2.079999 l 0.16,2.08 0.16,2.08 v 2.080002 l 0.16,2.24 v 2.08 l 0.16,2.08 V 31.52 l 0.16,2.079998 V 35.84 37.919998 40 l 0.16,2.080002 V 44.16 46.400002 48.48 v 2.080001 2.079998 2.080002 l -0.16,2.239998 v 2.080002 2.079998 2.080002 l -0.16,2.079998 v 2.239998 L 1.6,69.599998 V 71.68 l -0.16,2.080002 v 2.079994 L 1.28,78.080002 1.12,80.160004 0.96,82.239998 V 84.32 l -0.16,2.080002 -0.16,2.080001 -0.16,2.239998 -0.16,2.080002 -0.16,2.079994 -0.32,2.080002 -0.16,2.080002 -0.16,2.079999 -0.16,2.08 -0.16,1.12 -0.16,0.96 -0.16,1.12 v 0.96 l -0.16,1.12 -0.16,0.96 -0.16,1.12 -0.16,0.96 -0.16,1.12 -0.16,0.96 -0.16,1.12 -0.32,0.96 -0.16,1.12 -0.16,0.96 -0.32,1.12 -0.16,0.96 -0.16,0.48 -0.16,0.48 -0.16,0.64 -0.16,0.48 -0.16,0.48 -0.16,0.48 -0.16,0.48 -0.16,0.48 -0.16,0.48 -0.16,0.48 -0.16,0.48 -0.32,0.48 -0.16,0.48 -0.16,0.48 -0.32,0.48 -0.16,0.48 -0.32,0.48 v 0.16001 l -0.16,0.15999 -0.16,0.32 -0.16,0.16001 v 0.15998 l -0.16,0.16001 -0.16,0.32001 -0.16,0.15998 -0.16,0.16001 -0.16,0.16 -0.16,0.16 -0.16,0.15999 V 130.72 l -0.16,0.16 -0.16,0.15999 H -8.64 L -8.8,131.2 l -0.16,0.16 -0.16,0.16 -0.16,0.15999 L -9.6,132"
         style="fill:none;stroke:#000000;stroke-width:1.92;stroke-linecap:round;stroke-linejoin:round;stroke-miterlimit:10;stroke-dasharray:none;stroke-opacity:1"
         id="path4533" /></g><g
       id="g4535"
       transform="translate(531.61608,881.89805)"><path
         d="M 0,0 -0.48,0.32 -0.64,0.64 -0.8,0.8 -0.96,0.96 -1.12,1.12 -1.28,1.28 -1.44,1.44"
         style="fill:none;stroke:#000000;stroke-width:1.92;stroke-linecap:round;stroke-linejoin:round;stroke-miterlimit:10;stroke-dasharray:none;stroke-opacity:1"
         id="path4537" /></g><g
       id="g4539"
       transform="translate(528.09606,883.17805)"><path
         d="M 0,0 V -0.16 -0.32 -0.48 L -0.16,-0.64 V -0.8 -0.96 -1.12 -1.28 -1.6 -1.76 -1.92 L 0,-2.24 V -2.4 -2.56 -2.88 -3.04 -3.2 L 0.16,-3.52 V -4 L 0.32,-4.48 V -4.8 L 0.48,-5.76 0.64,-6.72 0.8,-7.2 v -0.48 l 0.16,-0.48 v -0.32 l 0.16,-0.48 v -0.48 l 0.16,-0.96 0.16,-1.76 0.16,-0.8 v -0.48 -0.48 l 0.16,-0.48 v -0.48 l 0.16,-0.96 0.32,-1.76 0.16,-1.92 0.32,-1.760001 0.32,-1.92 L 3.04,-24 3.2,-24.959999 3.36,-25.92 v -0.959999 L 3.52,-27.68 3.68,-28.639999 3.84,-29.6 v -0.959999 L 4,-31.52 l 0.16,-0.96 0.16,-0.959999 v -0.800003 L 4.64,-36.16 4.8,-38.080002 5.12,-40 5.28,-41.919998 5.6,-43.68 v -0.959999 l 0.16,-0.959999 0.16,-0.960003 V -47.52 l 0.16,-0.96 v -0.959999 l 0.16,-0.960003 0.16,-0.959999 V -52.32 l 0.16,-0.959999 0.16,-0.960003 v -0.959999 L 6.88,-56.16 v -0.959999 l 0.16,-0.960003 v -0.959999 L 7.2,-60 7.36,-60.959999 v -0.959999 l 0.16,-0.960003 V -63.84 l 0.16,-0.960003 v -0.959999 l 0.16,-0.959999 V -67.68 L 8,-68.800003 v -0.959999 l 0.16,-0.959999 V -71.68 l 0.16,-0.959999 v -0.959999 l 0.16,-0.96 v -0.959999 l 0.16,-0.960006 v -0.959999 l 0.16,-0.96 v -1.119995 l 0.16,-0.960006 v -1.919999 L 9.12,-84.32 l 0.16,-1.919998 0.16,-1.920006 0.16,-2.079994 v -1.920006 L 9.76,-94.080002 9.92,-96 v -1.919998 l 0.16,-1.919998 0.16,-2.080004 v -1.92 l 0.16,-1.92 v -1.92 l 0.16,-1.92 v -1.92 l 0.16,-1.92 v -1.92 -1.92 l 0.16,-1.92 v -1.92"
         style="fill:none;stroke:#000000;stroke-width:1.92;stroke-linecap:round;stroke-linejoin:round;stroke-miterlimit:10;stroke-dasharray:none;stroke-opacity:1"
         id="path4541" /></g><g
       id="g4543"
       transform="translate(546.17608,719.17805)"><path
         d="M 0,0 0.16,0.16 H 0.48 0.64 0.8 1.12 L 1.28,0.32 H 1.44 1.76 L 1.92,0.48 H 2.08 L 2.4,0.64 2.56,0.8 H 2.72 L 2.88,0.96 3.2,1.12 3.36,1.28 3.52,1.44 3.68,1.6 4,1.76 4.16,1.92 4.32,2.08 4.48,2.24 4.64,2.4 4.8,2.72 4.96,2.88 5.28,3.04 5.44,3.36 5.6,3.52 5.76,3.84 5.92,4 6.08,4.32 6.24,4.48 6.4,4.8 V 5.12 L 6.56,5.28 6.72,5.6 6.88,5.92 7.04,6.24 7.2,6.4 V 6.72 L 7.36,7.04 7.52,7.36 V 7.68 L 7.68,8 7.84,8.32 V 8.64 L 8,8.96 v 0.48 l 0.16,0.32 v 0.32 l 0.16,0.32 v 0.32 0.32 l 0.16,0.48 v 0.32 0.32 l 0.16,0.32 v 0.32 0.48 0.32 0.32 0.48 0.32 0.32 0.32 0.48 0.32 0.32 0.319999 0.480002 V 17.6 l -0.16,0.32 v 0.32 0.479999 l -0.16,0.320002 v 0.32 V 19.68 L 8.16,20 v 0.48 L 8,20.799999 v 0.320002 l -0.16,0.32 V 21.76 L 7.68,22.08 7.52,22.4 v 0.319999 l -0.16,0.320002 -0.16,0.32 L 7.2,23.68 7.04,24 6.88,24.16 6.72,24.48 6.56,24.799999 6.4,25.120001 v 0.16 L 6.24,25.6 6.08,25.92 5.92,26.08 5.76,26.4 5.6,26.559999 l -0.16,0.32 -0.16,0.160002 -0.32,0.16 L 4.8,27.52 4.64,27.68 4.48,27.84 4.32,28 4.16,28.16 4,28.48 l -0.32,0.159999 -0.16,0.16 H 3.36 l -0.16,0.16 -0.32,0.160002 -0.16,0.16 -0.16,0.16 H 2.4 L 2.08,29.6 H 1.92 L 1.76,29.76 H 1.44 L 1.28,29.92 H 1.12 0.8 0.64 L 0.48,30.08 H 0.16 0 -4.8"
         style="fill:none;stroke:#000000;stroke-width:1.92;stroke-linecap:round;stroke-linejoin:round;stroke-miterlimit:10;stroke-dasharray:none;stroke-opacity:1"
         id="path4545" /></g><g
       id="g4547"
       transform="translate(-156.38392,-501.94195)"><path
         d="m 694.88,1251.2 h -4.16003 M 702.56,1221.12 h -4.79999"
         style="fill:none;stroke:#000000;stroke-width:1.92;stroke-linecap:round;stroke-linejoin:round;stroke-miterlimit:10;stroke-dasharray:none;stroke-opacity:1"
         id="path4549" /></g><g
       id="g4551"
       transform="translate(534.33605,749.25805)"><path
         d="M 0,0 H -0.16 -0.32 -0.48 L -0.8,-0.16 H -0.96 -1.12 -1.28 L -1.44,-0.32 H -1.6 -1.76 L -1.92,-0.48 H -2.08 L -2.24,-0.64 H -2.4 L -2.72,-0.8 H -2.88 L -3.04,-0.96 -3.2,-1.12 H -3.36 L -3.52,-1.28 -3.68,-1.44 -3.84,-1.6 H -4 L -4.16,-1.76 -4.32,-1.92 -4.48,-2.08 -4.64,-2.24 -4.8,-2.4 V -2.56 L -4.96,-2.72 -5.12,-2.88 -5.28,-3.04 -5.44,-3.36 -5.6,-3.52 -5.76,-3.68 -5.92,-3.84 V -4.16 L -6.08,-4.32 -6.24,-4.48 -6.4,-4.8 V -4.96 L -6.56,-5.12 -6.72,-5.44 -6.88,-5.6 V -5.92 L -7.04,-6.08 -7.2,-6.4 V -6.56 L -7.36,-6.88 V -7.04 L -7.52,-7.36 V -7.68 L -7.68,-7.84 -7.84,-8.16 V -8.48 -8.64 L -8,-8.96 V -9.28 L -8.16,-9.6 v -0.16 l -0.16,-0.32 v -0.32 -0.32 l -0.16,-0.16 v -0.32 -0.32 -0.32 l -0.16,-0.32 v -0.32 -0.16 -0.32 -0.32 -0.32 -0.32 -0.32 l -0.16,-0.32 v -0.32 -0.16 -0.32 -0.32 L -8.64,-16 v -0.32 -0.319999 -0.32 -0.320002 -0.16 V -17.76 l 0.16,-0.32 v -0.32 -0.319999 -0.320002 l 0.16,-0.16 V -19.52 -19.84 l 0.16,-0.32 v -0.32 -0.159999 l 0.16,-0.32 v -0.320002 l 0.16,-0.16 V -21.76 l 0.16,-0.32 v -0.16 l 0.16,-0.319999 v -0.32 l 0.16,-0.160002 0.16,-0.32 V -23.52 l 0.16,-0.32 V -24 l 0.16,-0.32 0.16,-0.16 0.16,-0.319999 v -0.16 l 0.16,-0.320002 0.16,-0.16 L -6.08,-25.6 v -0.32 l 0.16,-0.16 0.16,-0.16 0.16,-0.16 0.16,-0.319999 v -0.16 l 0.16,-0.160002 0.16,-0.16 0.16,-0.16 0.16,-0.159999 0.16,-0.16"
         style="fill:none;stroke:#000000;stroke-width:1.92;stroke-linecap:round;stroke-linejoin:round;stroke-miterlimit:10;stroke-dasharray:none;stroke-opacity:1"
         id="path4553" /></g></g></svg>
